<svg width="792" height="919" viewBox="0 0 792 919" fill="none" xmlns="http://www.w3.org/2000/svg">
<path d="M217.512 627.312H248.677V845H217.512V627.312ZM372.246 847.493L353.08 824.899C369.182 814.718 383.258 802.408 395.309 787.968C407.359 773.424 415.41 758.517 419.461 743.246C409.593 749.375 398.009 752.44 384.712 752.44C368.091 752.44 353.807 746.259 341.86 733.896C330.018 721.534 324.096 706.679 324.096 689.33C324.096 671.255 330.433 655.932 343.107 643.362C355.781 630.792 371.259 624.507 389.543 624.507C410.112 624.507 426.941 631.935 440.03 646.79C453.12 661.645 459.664 680.708 459.664 703.978C459.664 730.364 451.458 757.063 435.044 784.072C418.63 810.978 397.698 832.118 372.246 847.493ZM425.539 712.237C426.785 703.926 427.409 698.524 427.409 696.031C427.409 683.461 423.876 673.177 416.812 665.177C409.852 657.178 400.866 653.179 389.855 653.179C379.778 653.179 371.415 656.607 364.767 663.463C358.222 670.216 354.95 678.734 354.95 689.019C354.95 698.472 358.534 706.627 365.702 713.483C372.87 720.34 381.44 723.768 391.413 723.768C403.048 723.768 414.423 719.924 425.539 712.237ZM536.642 627.312H567.807V845H536.642V627.312ZM689.195 718.314H691.065C704.674 718.314 715.01 715.509 722.074 709.899C729.242 704.29 732.826 696.135 732.826 685.435C732.826 675.774 729.346 667.93 722.386 661.905C715.53 655.88 706.492 652.867 695.272 652.867C683.949 652.867 671.379 656.399 657.563 663.463V633.701C670.236 627.364 684.053 624.195 699.012 624.195C719.062 624.195 734.852 629.442 746.383 639.934C758.018 650.426 763.836 664.762 763.836 682.942C763.836 693.953 761.602 703.251 757.135 710.834C752.668 718.314 745.552 724.755 735.787 730.157C744.305 733.481 750.538 737.584 754.486 742.467C758.434 747.246 761.498 753.063 763.68 759.919C765.861 766.776 766.952 774.047 766.952 781.735C766.952 800.746 760.615 816.484 747.941 828.95C735.268 841.312 719.27 847.493 699.947 847.493C683.43 847.493 667.484 843.494 652.109 835.495V801.525C668.522 811.809 684.469 816.951 699.947 816.951C710.439 816.951 718.854 813.835 725.191 807.602C731.632 801.369 734.852 793.11 734.852 782.826C734.852 774.203 732.203 766.672 726.905 760.231C723.788 756.595 720.308 753.946 716.465 752.284C712.725 750.518 704.57 748.856 692 747.297L689.195 746.986V718.314Z" fill="#0D3D35"/>
<path d="M310.676 672.474L310.676 679.798L259.52 679.798L259.52 672.474L310.676 672.474ZM258.934 708.836L264.243 704.332C266.636 708.116 269.529 711.424 272.922 714.256C276.34 717.088 279.843 718.98 283.432 719.932C281.991 717.613 281.271 714.891 281.271 711.766C281.271 707.86 282.724 704.503 285.629 701.696C288.534 698.913 292.025 697.521 296.102 697.521C300.35 697.521 303.951 699.01 306.904 701.989C309.858 704.967 311.335 708.604 311.335 712.901C311.335 717.735 309.59 721.69 306.099 724.766C302.608 727.842 298.128 729.38 292.66 729.38C286.459 729.38 280.185 727.451 273.838 723.594C267.515 719.737 262.547 714.817 258.934 708.836ZM290.719 721.36C292.672 721.653 293.941 721.799 294.527 721.799C297.481 721.799 299.898 720.969 301.778 719.309C303.658 717.674 304.597 715.562 304.597 712.974C304.597 710.606 303.792 708.641 302.181 707.079C300.594 705.541 298.592 704.772 296.175 704.772C293.954 704.772 292.037 705.614 290.426 707.298C288.815 708.983 288.009 710.997 288.009 713.34C288.009 716.075 288.912 718.748 290.719 721.36ZM310.676 747.469L310.676 754.793L259.52 754.793L259.52 747.469L310.676 747.469ZM289.291 783.319L289.291 783.759C289.291 786.957 289.95 789.386 291.268 791.046C292.586 792.73 294.503 793.573 297.017 793.573C299.288 793.573 301.131 792.755 302.547 791.119C303.963 789.508 304.671 787.384 304.671 784.747C304.671 782.087 303.841 779.133 302.181 775.886L309.175 775.886C310.664 778.864 311.409 782.111 311.409 785.626C311.409 790.338 310.176 794.049 307.71 796.759C305.244 799.493 301.875 800.86 297.603 800.86C295.016 800.86 292.831 800.335 291.048 799.285C289.291 798.235 287.777 796.563 286.508 794.268C285.727 796.27 284.762 797.735 283.615 798.663C282.492 799.59 281.125 800.311 279.513 800.823C277.902 801.336 276.193 801.592 274.387 801.592C269.919 801.592 266.221 800.103 263.291 797.125C260.386 794.146 258.934 790.387 258.934 785.846C258.934 781.964 259.874 778.217 261.753 774.604L269.736 774.604C267.319 778.461 266.111 782.209 266.111 785.846C266.111 788.312 266.843 790.289 268.308 791.778C269.773 793.292 271.714 794.049 274.13 794.049C276.157 794.049 277.927 793.426 279.44 792.181C280.295 791.449 280.917 790.631 281.308 789.728C281.723 788.849 282.113 786.932 282.48 783.978L282.553 783.319L289.291 783.319Z" fill="#D02B21"/>
<path d="M166.512 443.312H197.677V661H166.512V443.312ZM321.246 663.493L302.08 640.899C318.182 630.718 332.258 618.408 344.309 603.968C356.359 589.424 364.41 574.517 368.461 559.246C358.593 565.375 347.009 568.44 333.712 568.44C317.091 568.44 302.807 562.259 290.86 549.896C279.018 537.534 273.096 522.679 273.096 505.33C273.096 487.255 279.433 471.932 292.107 459.362C304.781 446.792 320.259 440.507 338.543 440.507C359.112 440.507 375.941 447.935 389.03 462.79C402.12 477.645 408.664 496.708 408.664 519.978C408.664 546.364 400.458 573.063 384.044 600.072C367.63 626.978 346.698 648.118 321.246 663.493ZM374.539 528.237C375.785 519.926 376.409 514.524 376.409 512.031C376.409 499.461 372.876 489.177 365.812 481.177C358.852 473.178 349.866 469.179 338.855 469.179C328.778 469.179 320.415 472.607 313.767 479.463C307.222 486.216 303.95 494.734 303.95 505.019C303.95 514.472 307.534 522.627 314.702 529.483C321.87 536.34 330.44 539.768 340.413 539.768C352.048 539.768 363.423 535.924 374.539 528.237ZM485.642 443.312H516.807V661H485.642V443.312ZM638.195 534.314H640.065C653.674 534.314 664.01 531.509 671.074 525.899C678.242 520.29 681.826 512.135 681.826 501.435C681.826 491.774 678.346 483.93 671.386 477.905C664.53 471.88 655.492 468.867 644.272 468.867C632.949 468.867 620.379 472.399 606.563 479.463V449.701C619.236 443.364 633.053 440.195 648.012 440.195C668.062 440.195 683.852 445.442 695.383 455.934C707.018 466.426 712.836 480.762 712.836 498.942C712.836 509.953 710.602 519.251 706.135 526.834C701.668 534.314 694.552 540.755 684.787 546.157C693.305 549.481 699.538 553.584 703.486 558.467C707.434 563.246 710.498 569.063 712.68 575.919C714.861 582.776 715.952 590.047 715.952 597.735C715.952 616.746 709.615 632.484 696.941 644.95C684.268 657.312 668.27 663.493 648.947 663.493C632.43 663.493 616.484 659.494 601.109 651.495V617.525C617.522 627.809 633.469 632.951 648.947 632.951C659.439 632.951 667.854 629.835 674.191 623.602C680.632 617.369 683.852 609.11 683.852 598.826C683.852 590.203 681.203 582.672 675.905 576.231C672.788 572.595 669.308 569.946 665.465 568.284C661.725 566.518 653.57 564.856 641 563.297L638.195 562.986V534.314Z" fill="#D02B21"/>
<path d="M259.676 488.474L259.676 495.798L208.52 495.798L208.52 488.474L259.676 488.474ZM207.934 524.836L213.243 520.332C215.636 524.116 218.529 527.424 221.922 530.256C225.34 533.088 228.843 534.98 232.432 535.932C230.991 533.613 230.271 530.891 230.271 527.766C230.271 523.86 231.724 520.503 234.629 517.696C237.534 514.913 241.025 513.521 245.102 513.521C249.35 513.521 252.951 515.01 255.904 517.989C258.858 520.967 260.335 524.604 260.335 528.901C260.335 533.735 258.59 537.69 255.099 540.766C251.608 543.842 247.128 545.38 241.66 545.38C235.459 545.38 229.185 543.451 222.838 539.594C216.515 535.737 211.547 530.817 207.934 524.836ZM239.719 537.36C241.672 537.653 242.941 537.799 243.527 537.799C246.481 537.799 248.898 536.969 250.778 535.309C252.658 533.674 253.597 531.562 253.597 528.974C253.597 526.606 252.792 524.641 251.181 523.079C249.594 521.541 247.592 520.772 245.175 520.772C242.954 520.772 241.037 521.614 239.426 523.298C237.815 524.983 237.009 526.997 237.009 529.34C237.009 532.075 237.912 534.748 239.719 537.36ZM259.676 563.469L259.676 570.793L208.52 570.793L208.52 563.469L259.676 563.469ZM238.291 599.319L238.291 599.759C238.291 602.957 238.95 605.386 240.268 607.046C241.586 608.73 243.503 609.573 246.017 609.573C248.288 609.573 250.131 608.755 251.547 607.119C252.963 605.508 253.671 603.384 253.671 600.747C253.671 598.087 252.841 595.133 251.181 591.886L258.175 591.886C259.664 594.864 260.409 598.111 260.409 601.626C260.409 606.338 259.176 610.049 256.71 612.759C254.244 615.493 250.875 616.86 246.603 616.86C244.016 616.86 241.831 616.335 240.048 615.285C238.291 614.235 236.777 612.563 235.508 610.268C234.727 612.27 233.762 613.735 232.615 614.663C231.492 615.59 230.125 616.311 228.513 616.823C226.902 617.336 225.193 617.592 223.387 617.592C218.919 617.592 215.221 616.103 212.291 613.125C209.386 610.146 207.934 606.387 207.934 601.846C207.934 597.964 208.874 594.217 210.753 590.604L218.736 590.604C216.319 594.461 215.111 598.209 215.111 601.846C215.111 604.312 215.843 606.289 217.308 607.778C218.773 609.292 220.714 610.049 223.13 610.049C225.157 610.049 226.927 609.426 228.44 608.181C229.295 607.449 229.917 606.631 230.308 605.728C230.723 604.849 231.113 602.932 231.48 599.978L231.553 599.319L238.291 599.319Z" fill="#0D3D35"/>
<path d="M115.512 259.312H146.677V477H115.512V259.312ZM270.246 479.493L251.08 456.899C267.182 446.718 281.258 434.408 293.309 419.968C305.359 405.424 313.41 390.517 317.461 375.246C307.593 381.375 296.009 384.44 282.712 384.44C266.091 384.44 251.807 378.259 239.86 365.896C228.018 353.534 222.096 338.679 222.096 321.33C222.096 303.255 228.433 287.932 241.107 275.362C253.781 262.792 269.259 256.507 287.543 256.507C308.112 256.507 324.941 263.935 338.03 278.79C351.12 293.645 357.664 312.708 357.664 335.978C357.664 362.364 349.458 389.063 333.044 416.072C316.63 442.978 295.698 464.118 270.246 479.493ZM323.539 344.237C324.785 335.926 325.409 330.524 325.409 328.031C325.409 315.461 321.876 305.177 314.812 297.177C307.852 289.178 298.866 285.179 287.855 285.179C277.778 285.179 269.415 288.607 262.767 295.463C256.222 302.216 252.95 310.734 252.95 321.019C252.95 330.472 256.534 338.627 263.702 345.483C270.87 352.34 279.44 355.768 289.413 355.768C301.048 355.768 312.423 351.924 323.539 344.237ZM434.642 259.312H465.807V477H434.642V259.312ZM587.195 350.314H589.065C602.674 350.314 613.01 347.509 620.074 341.899C627.242 336.29 630.826 328.135 630.826 317.435C630.826 307.774 627.346 299.93 620.386 293.905C613.53 287.88 604.492 284.867 593.272 284.867C581.949 284.867 569.379 288.399 555.563 295.463V265.701C568.236 259.364 582.053 256.195 597.012 256.195C617.062 256.195 632.852 261.442 644.383 271.934C656.018 282.426 661.836 296.762 661.836 314.942C661.836 325.953 659.602 335.251 655.135 342.834C650.668 350.314 643.552 356.755 633.787 362.157C642.305 365.481 648.538 369.584 652.486 374.467C656.434 379.246 659.498 385.063 661.68 391.919C663.861 398.776 664.952 406.047 664.952 413.735C664.952 432.746 658.615 448.484 645.941 460.95C633.268 473.312 617.27 479.493 597.947 479.493C581.43 479.493 565.484 475.494 550.109 467.495V433.525C566.522 443.809 582.469 448.951 597.947 448.951C608.439 448.951 616.854 445.835 623.191 439.602C629.632 433.369 632.852 425.11 632.852 414.826C632.852 406.203 630.203 398.672 624.905 392.231C621.788 388.595 618.308 385.946 614.465 384.284C610.725 382.518 602.57 380.856 590 379.297L587.195 378.986V350.314Z" fill="#0D3D35"/>
<path d="M208.676 304.474L208.676 311.798L157.52 311.798L157.52 304.474L208.676 304.474ZM156.934 340.836L162.243 336.332C164.636 340.116 167.529 343.424 170.922 346.256C174.34 349.088 177.843 350.98 181.432 351.932C179.991 349.613 179.271 346.891 179.271 343.766C179.271 339.86 180.724 336.503 183.629 333.696C186.534 330.913 190.025 329.521 194.102 329.521C198.35 329.521 201.951 331.01 204.904 333.989C207.858 336.967 209.335 340.604 209.335 344.901C209.335 349.735 207.59 353.69 204.099 356.766C200.608 359.842 196.128 361.38 190.66 361.38C184.459 361.38 178.185 359.451 171.838 355.594C165.515 351.737 160.547 346.817 156.934 340.836ZM188.719 353.36C190.672 353.653 191.941 353.799 192.527 353.799C195.481 353.799 197.898 352.969 199.778 351.309C201.658 349.674 202.597 347.562 202.597 344.974C202.597 342.606 201.792 340.641 200.181 339.079C198.594 337.541 196.592 336.772 194.175 336.772C191.954 336.772 190.037 337.614 188.426 339.298C186.815 340.983 186.009 342.997 186.009 345.34C186.009 348.075 186.912 350.748 188.719 353.36ZM208.676 379.469L208.676 386.793L157.52 386.793L157.52 379.469L208.676 379.469ZM187.291 415.319L187.291 415.759C187.291 418.957 187.95 421.386 189.268 423.046C190.586 424.73 192.503 425.573 195.017 425.573C197.288 425.573 199.131 424.755 200.547 423.119C201.963 421.508 202.671 419.384 202.671 416.747C202.671 414.087 201.841 411.133 200.181 407.886L207.175 407.886C208.664 410.864 209.409 414.111 209.409 417.626C209.409 422.338 208.176 426.049 205.71 428.759C203.244 431.493 199.875 432.86 195.603 432.86C193.016 432.86 190.831 432.335 189.048 431.285C187.291 430.235 185.777 428.563 184.508 426.268C183.727 428.27 182.762 429.735 181.615 430.663C180.492 431.59 179.125 432.311 177.513 432.823C175.902 433.336 174.193 433.592 172.387 433.592C167.919 433.592 164.221 432.103 161.291 429.125C158.386 426.146 156.934 422.387 156.934 417.846C156.934 413.964 157.874 410.217 159.753 406.604L167.736 406.604C165.319 410.461 164.111 414.209 164.111 417.846C164.111 420.312 164.843 422.289 166.308 423.778C167.773 425.292 169.714 426.049 172.13 426.049C174.157 426.049 175.927 425.426 177.44 424.181C178.295 423.449 178.917 422.631 179.308 421.728C179.723 420.849 180.113 418.932 180.48 415.978L180.553 415.319L187.291 415.319Z" fill="#D02B21"/>
<path d="M157.676 120.474L157.676 127.798L106.52 127.798L106.52 120.474L157.676 120.474ZM105.934 156.836L111.243 152.332C113.636 156.116 116.529 159.424 119.922 162.256C123.34 165.088 126.843 166.98 130.432 167.932C128.991 165.613 128.271 162.891 128.271 159.766C128.271 155.86 129.724 152.503 132.629 149.696C135.534 146.913 139.025 145.521 143.102 145.521C147.35 145.521 150.951 147.01 153.904 149.989C156.858 152.967 158.335 156.604 158.335 160.901C158.335 165.735 156.59 169.69 153.099 172.766C149.608 175.842 145.128 177.38 139.66 177.38C133.459 177.38 127.185 175.451 120.838 171.594C114.515 167.737 109.547 162.817 105.934 156.836ZM137.719 169.36C139.672 169.653 140.941 169.799 141.527 169.799C144.481 169.799 146.898 168.969 148.778 167.309C150.658 165.674 151.597 163.562 151.597 160.974C151.597 158.606 150.792 156.641 149.181 155.079C147.594 153.541 145.592 152.772 143.175 152.772C140.954 152.772 139.037 153.614 137.426 155.298C135.815 156.983 135.009 158.997 135.009 161.34C135.009 164.075 135.912 166.748 137.719 169.36ZM157.676 195.469L157.676 202.793L106.52 202.793L106.52 195.469L157.676 195.469ZM136.291 231.319L136.291 231.759C136.291 234.957 136.95 237.386 138.268 239.046C139.586 240.73 141.503 241.573 144.017 241.573C146.288 241.573 148.131 240.755 149.547 239.119C150.963 237.508 151.671 235.384 151.671 232.747C151.671 230.087 150.841 227.133 149.181 223.886L156.175 223.886C157.664 226.864 158.409 230.111 158.409 233.626C158.409 238.338 157.176 242.049 154.71 244.759C152.244 247.493 148.875 248.86 144.603 248.86C142.016 248.86 139.831 248.335 138.048 247.285C136.291 246.235 134.777 244.563 133.508 242.268C132.727 244.27 131.762 245.735 130.615 246.663C129.492 247.59 128.125 248.311 126.513 248.823C124.902 249.336 123.193 249.592 121.387 249.592C116.919 249.592 113.221 248.103 110.291 245.125C107.386 242.146 105.934 238.387 105.934 233.846C105.934 229.964 106.874 226.217 108.753 222.604L116.736 222.604C114.319 226.461 113.111 230.209 113.111 233.846C113.111 236.312 113.843 238.289 115.308 239.778C116.773 241.292 118.714 242.049 121.13 242.049C123.157 242.049 124.927 241.426 126.44 240.181C127.295 239.449 127.917 238.631 128.308 237.728C128.723 236.849 129.113 234.932 129.48 231.978L129.553 231.319L136.291 231.319Z" fill="#0D3D35"/>
<path d="M64.5117 75.3119H95.6768V293H64.5117V75.3119ZM219.246 295.493L200.08 272.899C216.182 262.718 230.258 250.408 242.309 235.968C254.359 221.424 262.41 206.517 266.461 191.246C256.593 197.375 245.009 200.44 231.712 200.44C215.091 200.44 200.807 194.259 188.86 181.896C177.018 169.534 171.096 154.679 171.096 137.33C171.096 119.255 177.433 103.932 190.107 91.3619C202.781 78.792 218.259 72.5071 236.543 72.5071C257.112 72.5071 273.941 79.9347 287.03 94.7901C300.12 109.645 306.664 128.708 306.664 151.978C306.664 178.364 298.458 205.063 282.044 232.072C265.63 258.978 244.698 280.118 219.246 295.493ZM272.539 160.237C273.785 151.926 274.409 146.524 274.409 144.031C274.409 131.461 270.876 121.177 263.812 113.177C256.852 105.178 247.866 101.179 236.855 101.179C226.778 101.179 218.415 104.607 211.767 111.463C205.222 118.216 201.95 126.734 201.95 137.019C201.95 146.472 205.534 154.627 212.702 161.483C219.87 168.34 228.44 171.768 238.413 171.768C250.048 171.768 261.423 167.924 272.539 160.237ZM383.642 75.3119H414.807V293H383.642V75.3119ZM536.195 166.314H538.065C551.674 166.314 562.01 163.509 569.074 157.899C576.242 152.29 579.826 144.135 579.826 133.435C579.826 123.774 576.346 115.93 569.386 109.905C562.53 103.88 553.492 100.867 542.272 100.867C530.949 100.867 518.379 104.399 504.563 111.463V81.7007C517.236 75.3638 531.053 72.1954 546.012 72.1954C566.062 72.1954 581.852 77.4415 593.383 87.9338C605.018 98.426 610.836 112.762 610.836 130.942C610.836 141.953 608.602 151.251 604.135 158.834C599.668 166.314 592.552 172.755 582.787 178.157C591.305 181.481 597.538 185.584 601.486 190.467C605.434 195.246 608.498 201.063 610.68 207.919C612.861 214.776 613.952 222.047 613.952 229.735C613.952 248.746 607.615 264.484 594.941 276.95C582.268 289.312 566.27 295.493 546.947 295.493C530.43 295.493 514.484 291.494 499.109 283.495V249.525C515.522 259.809 531.469 264.951 546.947 264.951C557.439 264.951 565.854 261.835 572.191 255.602C578.632 249.369 581.852 241.11 581.852 230.826C581.852 222.203 579.203 214.672 573.905 208.231C570.788 204.595 567.308 201.946 563.465 200.284C559.725 198.518 551.57 196.856 539 195.297L536.195 194.986V166.314Z" fill="#D02B21"/>
</svg>
