<svg width="639" height="809" viewBox="0 0 639 809" fill="none" xmlns="http://www.w3.org/2000/svg">
<path d="M64.5117 75.3119H95.6768V293H64.5117V75.3119ZM219.246 295.493L200.08 272.899C216.182 262.718 230.258 250.408 242.309 235.968C254.359 221.424 262.41 206.517 266.461 191.246C256.593 197.375 245.009 200.44 231.712 200.44C215.091 200.44 200.807 194.259 188.86 181.896C177.018 169.534 171.096 154.679 171.096 137.33C171.096 119.255 177.433 103.932 190.107 91.3619C202.781 78.792 218.259 72.5071 236.543 72.5071C257.112 72.5071 273.941 79.9347 287.03 94.7901C300.12 109.645 306.664 128.708 306.664 151.978C306.664 178.364 298.458 205.063 282.044 232.072C265.63 258.978 244.698 280.118 219.246 295.493ZM272.539 160.237C273.785 151.926 274.409 146.524 274.409 144.031C274.409 131.461 270.876 121.177 263.812 113.177C256.852 105.178 247.866 101.179 236.855 101.179C226.778 101.179 218.415 104.607 211.767 111.463C205.222 118.216 201.95 126.734 201.95 137.019C201.95 146.472 205.534 154.627 212.702 161.483C219.87 168.34 228.44 171.768 238.413 171.768C250.048 171.768 261.423 167.924 272.539 160.237ZM384.889 262.926H467.788V293H330.038V290.818L343.128 275.392C363.593 250.044 379.85 228.54 391.901 210.88C404.055 193.22 411.95 179.871 415.586 170.833C419.326 161.795 421.196 152.861 421.196 144.031C421.196 131.773 417.716 121.956 410.756 114.58C403.796 107.1 394.55 103.36 383.019 103.36C374.293 103.36 365.67 105.958 357.152 111.152C348.737 116.242 341.154 123.462 334.401 132.811V93.2318C351.334 79.4153 368.787 72.5071 386.759 72.5071C405.769 72.5071 421.404 78.8439 433.662 91.5177C446.024 104.192 452.205 120.294 452.205 139.824C452.205 148.55 450.647 157.899 447.531 167.872C444.518 177.741 439.116 189.168 431.325 202.154C423.533 215.035 410.288 232.644 391.589 254.979L384.889 262.926ZM576.71 74.6886L579.826 72.5071L598.681 96.3483C582.06 107.048 568.243 118.735 557.232 131.409C546.324 144.083 537.909 158.99 531.988 176.131C543.519 170.21 554.998 167.249 566.425 167.249C583.566 167.249 598.006 173.326 609.745 185.48C621.484 197.635 627.353 212.542 627.353 230.202C627.353 248.382 620.964 263.809 608.187 276.483C595.409 289.156 579.878 295.493 561.595 295.493C541.13 295.493 524.56 288.325 511.886 273.989C499.317 259.549 493.032 240.695 493.032 217.425C493.032 199.972 496.252 182.624 502.693 165.379C509.237 148.03 518.587 131.825 530.741 116.761C543 101.594 558.322 87.5702 576.71 74.6886ZM525.287 208.387C524.456 213.269 524.041 218.723 524.041 224.748C524.041 237.007 527.573 247.083 534.637 254.979C541.805 262.874 550.947 266.821 562.062 266.821C572.035 266.821 580.242 263.445 586.683 256.693C593.227 249.94 596.5 241.422 596.5 231.137C596.5 220.645 593.02 212.179 586.059 205.738C579.203 199.193 570.113 195.921 558.79 195.921C552.972 195.921 547.674 196.804 542.896 198.57C538.221 200.336 532.352 203.608 525.287 208.387Z" fill="#0D3D35"/>
<path d="M157.676 120.474L157.676 127.798L106.52 127.798L106.52 120.474L157.676 120.474ZM105.934 156.836L111.243 152.332C113.636 156.116 116.529 159.424 119.922 162.256C123.34 165.088 126.843 166.98 130.432 167.932C128.991 165.613 128.271 162.891 128.271 159.766C128.271 155.86 129.724 152.503 132.629 149.696C135.534 146.913 139.025 145.521 143.102 145.521C147.35 145.521 150.951 147.01 153.904 149.989C156.858 152.967 158.335 156.604 158.335 160.901C158.335 165.735 156.59 169.69 153.099 172.766C149.608 175.842 145.128 177.38 139.66 177.38C133.459 177.38 127.185 175.451 120.838 171.594C114.515 167.737 109.547 162.817 105.934 156.836ZM137.719 169.36C139.672 169.653 140.941 169.799 141.527 169.799C144.481 169.799 146.898 168.969 148.778 167.309C150.658 165.674 151.597 163.562 151.597 160.974C151.597 158.606 150.792 156.641 149.181 155.079C147.594 153.541 145.592 152.772 143.175 152.772C140.954 152.772 139.037 153.614 137.426 155.298C135.815 156.983 135.009 158.997 135.009 161.34C135.009 164.075 135.912 166.748 137.719 169.36ZM113.587 195.762L113.587 215.244L106.52 215.244L106.52 182.872L107.032 182.872L110.657 185.948C116.614 190.758 121.668 194.578 125.818 197.41C129.968 200.266 133.105 202.122 135.229 202.976C137.353 203.855 139.452 204.295 141.527 204.295C144.408 204.295 146.715 203.477 148.448 201.841C150.206 200.205 151.085 198.033 151.085 195.323C151.085 193.272 150.474 191.246 149.254 189.244C148.058 187.267 146.361 185.485 144.164 183.898L153.465 183.898C156.712 187.877 158.335 191.978 158.335 196.202C158.335 200.669 156.846 204.343 153.868 207.224C150.89 210.129 147.106 211.582 142.516 211.582C140.465 211.582 138.268 211.216 135.925 210.483C133.605 209.775 130.92 208.506 127.868 206.675C124.841 204.844 120.703 201.731 115.455 197.337L113.587 195.762ZM157.823 240.84L158.335 241.573L152.733 246.004C150.218 242.098 147.472 238.851 144.493 236.263C141.515 233.7 138.012 231.722 133.984 230.331C135.375 233.04 136.071 235.738 136.071 238.423C136.071 242.452 134.643 245.845 131.787 248.604C128.93 251.362 125.427 252.741 121.277 252.741C117.005 252.741 113.379 251.24 110.401 248.237C107.423 245.235 105.934 241.585 105.934 237.288C105.934 232.479 107.618 228.585 110.987 225.607C114.38 222.653 118.811 221.176 124.28 221.176C128.381 221.176 132.458 221.933 136.51 223.446C140.587 224.984 144.396 227.181 147.936 230.038C151.5 232.918 154.796 236.519 157.823 240.84ZM126.404 228.756C125.256 228.561 123.975 228.463 122.559 228.463C119.678 228.463 117.31 229.293 115.455 230.953C113.599 232.638 112.672 234.786 112.672 237.398C112.672 239.742 113.465 241.67 115.052 243.184C116.639 244.722 118.64 245.491 121.057 245.491C123.523 245.491 125.513 244.673 127.026 243.037C128.564 241.426 129.333 239.29 129.333 236.629C129.333 235.262 129.126 234.017 128.711 232.894C128.296 231.795 127.527 230.416 126.404 228.756Z" fill="#0D3D35"/>
<path d="M64.5117 222.312H95.6768V440H64.5117V222.312ZM219.246 442.493L200.08 419.899C216.182 409.718 230.258 397.408 242.309 382.968C254.359 368.424 262.41 353.517 266.461 338.246C256.593 344.375 245.009 347.44 231.712 347.44C215.091 347.44 200.807 341.259 188.86 328.896C177.018 316.534 171.096 301.679 171.096 284.33C171.096 266.255 177.433 250.932 190.107 238.362C202.781 225.792 218.259 219.507 236.543 219.507C257.112 219.507 273.941 226.935 287.03 241.79C300.12 256.645 306.664 275.708 306.664 298.978C306.664 325.364 298.458 352.063 282.044 379.072C265.63 405.978 244.698 427.118 219.246 442.493ZM272.539 307.237C273.785 298.926 274.409 293.524 274.409 291.031C274.409 278.461 270.876 268.177 263.812 260.177C256.852 252.178 247.866 248.179 236.855 248.179C226.778 248.179 218.415 251.607 211.767 258.463C205.222 265.216 201.95 273.734 201.95 284.019C201.95 293.472 205.534 301.627 212.702 308.483C219.87 315.34 228.44 318.768 238.413 318.768C250.048 318.768 261.423 314.924 272.539 307.237ZM384.889 409.926H467.788V440H330.038V437.818L343.128 422.392C363.593 397.044 379.85 375.54 391.901 357.88C404.055 340.22 411.95 326.871 415.586 317.833C419.326 308.795 421.196 299.861 421.196 291.031C421.196 278.773 417.716 268.956 410.756 261.58C403.796 254.1 394.55 250.36 383.019 250.36C374.293 250.36 365.67 252.958 357.152 258.152C348.737 263.242 341.154 270.462 334.401 279.811V240.232C351.334 226.415 368.787 219.507 386.759 219.507C405.769 219.507 421.404 225.844 433.662 238.518C446.024 251.192 452.205 267.294 452.205 286.824C452.205 295.55 450.647 304.899 447.531 314.872C444.518 324.741 439.116 336.168 431.325 349.154C423.533 362.035 410.288 379.644 391.589 401.979L384.889 409.926ZM576.71 221.689L579.826 219.507L598.681 243.348C582.06 254.048 568.243 265.735 557.232 278.409C546.324 291.083 537.909 305.99 531.988 323.131C543.519 317.21 554.998 314.249 566.425 314.249C583.566 314.249 598.006 320.326 609.745 332.48C621.484 344.635 627.353 359.542 627.353 377.202C627.353 395.382 620.964 410.809 608.187 423.483C595.409 436.156 579.878 442.493 561.595 442.493C541.13 442.493 524.56 435.325 511.886 420.989C499.317 406.549 493.032 387.695 493.032 364.425C493.032 346.972 496.252 329.624 502.693 312.379C509.237 295.03 518.587 278.825 530.741 263.761C543 248.594 558.322 234.57 576.71 221.689ZM525.287 355.387C524.456 360.269 524.041 365.723 524.041 371.748C524.041 384.007 527.573 394.083 534.637 401.979C541.805 409.874 550.947 413.821 562.062 413.821C572.035 413.821 580.242 410.445 586.683 403.693C593.227 396.94 596.5 388.422 596.5 378.137C596.5 367.645 593.02 359.179 586.059 352.738C579.203 346.193 570.113 342.921 558.79 342.921C552.972 342.921 547.674 343.804 542.896 345.57C538.221 347.336 532.352 350.608 525.287 355.387Z" fill="#D02B21"/>
<path d="M157.676 267.474L157.676 274.798L106.52 274.798L106.52 267.474L157.676 267.474ZM105.934 303.836L111.243 299.332C113.636 303.116 116.529 306.424 119.922 309.256C123.34 312.088 126.843 313.98 130.432 314.932C128.991 312.613 128.271 309.891 128.271 306.766C128.271 302.86 129.724 299.503 132.629 296.696C135.534 293.913 139.025 292.521 143.102 292.521C147.35 292.521 150.951 294.01 153.904 296.989C156.858 299.967 158.335 303.604 158.335 307.901C158.335 312.735 156.59 316.69 153.099 319.766C149.608 322.842 145.128 324.38 139.66 324.38C133.459 324.38 127.185 322.451 120.838 318.594C114.515 314.737 109.547 309.817 105.934 303.836ZM137.719 316.36C139.672 316.653 140.941 316.799 141.527 316.799C144.481 316.799 146.898 315.969 148.778 314.309C150.658 312.674 151.597 310.562 151.597 307.974C151.597 305.606 150.792 303.641 149.181 302.079C147.594 300.541 145.592 299.772 143.175 299.772C140.954 299.772 139.037 300.614 137.426 302.298C135.815 303.983 135.009 305.997 135.009 308.34C135.009 311.075 135.912 313.748 137.719 316.36ZM113.587 342.762L113.587 362.244L106.52 362.244L106.52 329.872L107.032 329.872L110.657 332.948C116.614 337.758 121.668 341.578 125.818 344.41C129.968 347.266 133.105 349.122 135.229 349.976C137.353 350.855 139.452 351.295 141.527 351.295C144.408 351.295 146.715 350.477 148.448 348.841C150.206 347.205 151.085 345.033 151.085 342.323C151.085 340.272 150.474 338.246 149.254 336.244C148.058 334.267 146.361 332.485 144.164 330.898L153.465 330.898C156.712 334.877 158.335 338.978 158.335 343.202C158.335 347.669 156.846 351.343 153.868 354.224C150.89 357.129 147.106 358.582 142.516 358.582C140.465 358.582 138.268 358.216 135.925 357.483C133.605 356.775 130.92 355.506 127.868 353.675C124.841 351.844 120.703 348.731 115.455 344.337L113.587 342.762ZM157.823 387.84L158.335 388.573L152.733 393.004C150.218 389.098 147.472 385.851 144.493 383.263C141.515 380.7 138.012 378.722 133.984 377.331C135.375 380.04 136.071 382.738 136.071 385.423C136.071 389.452 134.643 392.845 131.787 395.604C128.93 398.362 125.427 399.741 121.277 399.741C117.005 399.741 113.379 398.24 110.401 395.237C107.423 392.235 105.934 388.585 105.934 384.288C105.934 379.479 107.618 375.585 110.987 372.607C114.38 369.653 118.811 368.176 124.28 368.176C128.381 368.176 132.458 368.933 136.51 370.446C140.587 371.984 144.396 374.181 147.936 377.038C151.5 379.918 154.796 383.519 157.823 387.84ZM126.404 375.756C125.256 375.561 123.975 375.463 122.559 375.463C119.678 375.463 117.31 376.293 115.455 377.953C113.599 379.638 112.672 381.786 112.672 384.398C112.672 386.742 113.465 388.67 115.052 390.184C116.639 391.722 118.64 392.491 121.057 392.491C123.523 392.491 125.513 391.673 127.026 390.037C128.564 388.426 129.333 386.29 129.333 383.629C129.333 382.262 129.126 381.017 128.711 379.894C128.296 378.795 127.527 377.416 126.404 375.756Z" fill="#D02B21"/>
<path d="M64.5117 368.312H95.6768V586H64.5117V368.312ZM219.246 588.493L200.08 565.899C216.182 555.718 230.258 543.408 242.309 528.968C254.359 514.424 262.41 499.517 266.461 484.246C256.593 490.375 245.009 493.44 231.712 493.44C215.091 493.44 200.807 487.259 188.86 474.896C177.018 462.534 171.096 447.679 171.096 430.33C171.096 412.255 177.433 396.932 190.107 384.362C202.781 371.792 218.259 365.507 236.543 365.507C257.112 365.507 273.941 372.935 287.03 387.79C300.12 402.645 306.664 421.708 306.664 444.978C306.664 471.364 298.458 498.063 282.044 525.072C265.63 551.978 244.698 573.118 219.246 588.493ZM272.539 453.237C273.785 444.926 274.409 439.524 274.409 437.031C274.409 424.461 270.876 414.177 263.812 406.177C256.852 398.178 247.866 394.179 236.855 394.179C226.778 394.179 218.415 397.607 211.767 404.463C205.222 411.216 201.95 419.734 201.95 430.019C201.95 439.472 205.534 447.627 212.702 454.483C219.87 461.34 228.44 464.768 238.413 464.768C250.048 464.768 261.423 460.924 272.539 453.237ZM384.889 555.926H467.788V586H330.038V583.818L343.128 568.392C363.593 543.044 379.85 521.54 391.901 503.88C404.055 486.22 411.95 472.871 415.586 463.833C419.326 454.795 421.196 445.861 421.196 437.031C421.196 424.773 417.716 414.956 410.756 407.58C403.796 400.1 394.55 396.36 383.019 396.36C374.293 396.36 365.67 398.958 357.152 404.152C348.737 409.242 341.154 416.462 334.401 425.811V386.232C351.334 372.415 368.787 365.507 386.759 365.507C405.769 365.507 421.404 371.844 433.662 384.518C446.024 397.192 452.205 413.294 452.205 432.824C452.205 441.55 450.647 450.899 447.531 460.872C444.518 470.741 439.116 482.168 431.325 495.154C423.533 508.035 410.288 525.644 391.589 547.979L384.889 555.926ZM576.71 367.689L579.826 365.507L598.681 389.348C582.06 400.048 568.243 411.735 557.232 424.409C546.324 437.083 537.909 451.99 531.988 469.131C543.519 463.21 554.998 460.249 566.425 460.249C583.566 460.249 598.006 466.326 609.745 478.48C621.484 490.635 627.353 505.542 627.353 523.202C627.353 541.382 620.964 556.809 608.187 569.483C595.409 582.156 579.878 588.493 561.595 588.493C541.13 588.493 524.56 581.325 511.886 566.989C499.317 552.549 493.032 533.695 493.032 510.425C493.032 492.972 496.252 475.624 502.693 458.379C509.237 441.03 518.587 424.825 530.741 409.761C543 394.594 558.322 380.57 576.71 367.689ZM525.287 501.387C524.456 506.269 524.041 511.723 524.041 517.748C524.041 530.007 527.573 540.083 534.637 547.979C541.805 555.874 550.947 559.821 562.062 559.821C572.035 559.821 580.242 556.445 586.683 549.693C593.227 542.94 596.5 534.422 596.5 524.137C596.5 513.645 593.02 505.179 586.059 498.738C579.203 492.193 570.113 488.921 558.79 488.921C552.972 488.921 547.674 489.804 542.896 491.57C538.221 493.336 532.352 496.608 525.287 501.387Z" fill="#0D3D35"/>
<path d="M157.676 413.474L157.676 420.798L106.52 420.798L106.52 413.474L157.676 413.474ZM105.934 449.836L111.243 445.332C113.636 449.116 116.529 452.424 119.922 455.256C123.34 458.088 126.843 459.98 130.432 460.932C128.991 458.613 128.271 455.891 128.271 452.766C128.271 448.86 129.724 445.503 132.629 442.696C135.534 439.913 139.025 438.521 143.102 438.521C147.35 438.521 150.951 440.01 153.904 442.989C156.858 445.967 158.335 449.604 158.335 453.901C158.335 458.735 156.59 462.69 153.099 465.766C149.608 468.842 145.128 470.38 139.66 470.38C133.459 470.38 127.185 468.451 120.838 464.594C114.515 460.737 109.547 455.817 105.934 449.836ZM137.719 462.36C139.672 462.653 140.941 462.799 141.527 462.799C144.481 462.799 146.898 461.969 148.778 460.309C150.658 458.674 151.597 456.562 151.597 453.974C151.597 451.606 150.792 449.641 149.181 448.079C147.594 446.541 145.592 445.772 143.175 445.772C140.954 445.772 139.037 446.614 137.426 448.298C135.815 449.983 135.009 451.997 135.009 454.34C135.009 457.075 135.912 459.748 137.719 462.36ZM113.587 488.762L113.587 508.244L106.52 508.244L106.52 475.872L107.032 475.872L110.657 478.948C116.614 483.758 121.668 487.578 125.818 490.41C129.968 493.266 133.105 495.122 135.229 495.976C137.353 496.855 139.452 497.295 141.527 497.295C144.408 497.295 146.715 496.477 148.448 494.841C150.206 493.205 151.085 491.033 151.085 488.323C151.085 486.272 150.474 484.246 149.254 482.244C148.058 480.267 146.361 478.485 144.164 476.898L153.465 476.898C156.712 480.877 158.335 484.978 158.335 489.202C158.335 493.669 156.846 497.343 153.868 500.224C150.89 503.129 147.106 504.582 142.516 504.582C140.465 504.582 138.268 504.216 135.925 503.483C133.605 502.775 130.92 501.506 127.868 499.675C124.841 497.844 120.703 494.731 115.455 490.337L113.587 488.762ZM157.823 533.84L158.335 534.573L152.733 539.004C150.218 535.098 147.472 531.851 144.493 529.263C141.515 526.7 138.012 524.722 133.984 523.331C135.375 526.04 136.071 528.738 136.071 531.423C136.071 535.452 134.643 538.845 131.787 541.604C128.93 544.362 125.427 545.741 121.277 545.741C117.005 545.741 113.379 544.24 110.401 541.237C107.423 538.235 105.934 534.585 105.934 530.288C105.934 525.479 107.618 521.585 110.987 518.607C114.38 515.653 118.811 514.176 124.28 514.176C128.381 514.176 132.458 514.933 136.51 516.446C140.587 517.984 144.396 520.181 147.936 523.038C151.5 525.918 154.796 529.519 157.823 533.84ZM126.404 521.756C125.256 521.561 123.975 521.463 122.559 521.463C119.678 521.463 117.31 522.293 115.455 523.953C113.599 525.638 112.672 527.786 112.672 530.398C112.672 532.742 113.465 534.67 115.052 536.184C116.639 537.722 118.64 538.491 121.057 538.491C123.523 538.491 125.513 537.673 127.026 536.037C128.564 534.426 129.333 532.29 129.333 529.629C129.333 528.262 129.126 527.017 128.711 525.894C128.296 524.795 127.527 523.416 126.404 521.756Z" fill="#0D3D35"/>
<path d="M64.5117 517.312H95.6768V735H64.5117V517.312ZM219.246 737.493L200.08 714.899C216.182 704.718 230.258 692.408 242.309 677.968C254.359 663.424 262.41 648.517 266.461 633.246C256.593 639.375 245.009 642.44 231.712 642.44C215.091 642.44 200.807 636.259 188.86 623.896C177.018 611.534 171.096 596.679 171.096 579.33C171.096 561.255 177.433 545.932 190.107 533.362C202.781 520.792 218.259 514.507 236.543 514.507C257.112 514.507 273.941 521.935 287.03 536.79C300.12 551.645 306.664 570.708 306.664 593.978C306.664 620.364 298.458 647.063 282.044 674.072C265.63 700.978 244.698 722.118 219.246 737.493ZM272.539 602.237C273.785 593.926 274.409 588.524 274.409 586.031C274.409 573.461 270.876 563.177 263.812 555.177C256.852 547.178 247.866 543.179 236.855 543.179C226.778 543.179 218.415 546.607 211.767 553.463C205.222 560.216 201.95 568.734 201.95 579.019C201.95 588.472 205.534 596.627 212.702 603.483C219.87 610.34 228.44 613.768 238.413 613.768C250.048 613.768 261.423 609.924 272.539 602.237ZM384.889 704.926H467.788V735H330.038V732.818L343.128 717.392C363.593 692.044 379.85 670.54 391.901 652.88C404.055 635.22 411.95 621.871 415.586 612.833C419.326 603.795 421.196 594.861 421.196 586.031C421.196 573.773 417.716 563.956 410.756 556.58C403.796 549.1 394.55 545.36 383.019 545.36C374.293 545.36 365.67 547.958 357.152 553.152C348.737 558.242 341.154 565.462 334.401 574.811V535.232C351.334 521.415 368.787 514.507 386.759 514.507C405.769 514.507 421.404 520.844 433.662 533.518C446.024 546.192 452.205 562.294 452.205 581.824C452.205 590.55 450.647 599.899 447.531 609.872C444.518 619.741 439.116 631.168 431.325 644.154C423.533 657.035 410.288 674.644 391.589 696.979L384.889 704.926ZM576.71 516.689L579.826 514.507L598.681 538.348C582.06 549.048 568.243 560.735 557.232 573.409C546.324 586.083 537.909 600.99 531.988 618.131C543.519 612.21 554.998 609.249 566.425 609.249C583.566 609.249 598.006 615.326 609.745 627.48C621.484 639.635 627.353 654.542 627.353 672.202C627.353 690.382 620.964 705.809 608.187 718.483C595.409 731.156 579.878 737.493 561.595 737.493C541.13 737.493 524.56 730.325 511.886 715.989C499.317 701.549 493.032 682.695 493.032 659.425C493.032 641.972 496.252 624.624 502.693 607.379C509.237 590.03 518.587 573.825 530.741 558.761C543 543.594 558.322 529.57 576.71 516.689ZM525.287 650.387C524.456 655.269 524.041 660.723 524.041 666.748C524.041 679.007 527.573 689.083 534.637 696.979C541.805 704.874 550.947 708.821 562.062 708.821C572.035 708.821 580.242 705.445 586.683 698.693C593.227 691.94 596.5 683.422 596.5 673.137C596.5 662.645 593.02 654.179 586.059 647.738C579.203 641.193 570.113 637.921 558.79 637.921C552.972 637.921 547.674 638.804 542.896 640.57C538.221 642.336 532.352 645.608 525.287 650.387Z" fill="#D02B21"/>
<path d="M157.676 562.474L157.676 569.798L106.52 569.798L106.52 562.474L157.676 562.474ZM105.934 598.836L111.243 594.332C113.636 598.116 116.529 601.424 119.922 604.256C123.34 607.088 126.843 608.98 130.432 609.932C128.991 607.613 128.271 604.891 128.271 601.766C128.271 597.86 129.724 594.503 132.629 591.696C135.534 588.913 139.025 587.521 143.102 587.521C147.35 587.521 150.951 589.01 153.904 591.989C156.858 594.967 158.335 598.604 158.335 602.901C158.335 607.735 156.59 611.69 153.099 614.766C149.608 617.842 145.128 619.38 139.66 619.38C133.459 619.38 127.185 617.451 120.838 613.594C114.515 609.737 109.547 604.817 105.934 598.836ZM137.719 611.36C139.672 611.653 140.941 611.799 141.527 611.799C144.481 611.799 146.898 610.969 148.778 609.309C150.658 607.674 151.597 605.562 151.597 602.974C151.597 600.606 150.792 598.641 149.181 597.079C147.594 595.541 145.592 594.772 143.175 594.772C140.954 594.772 139.037 595.614 137.426 597.298C135.815 598.983 135.009 600.997 135.009 603.34C135.009 606.075 135.912 608.748 137.719 611.36ZM113.587 637.762L113.587 657.244L106.52 657.244L106.52 624.872L107.032 624.872L110.657 627.948C116.614 632.758 121.668 636.578 125.818 639.41C129.968 642.266 133.105 644.122 135.229 644.976C137.353 645.855 139.452 646.295 141.527 646.295C144.408 646.295 146.715 645.477 148.448 643.841C150.206 642.205 151.085 640.033 151.085 637.323C151.085 635.272 150.474 633.246 149.254 631.244C148.058 629.267 146.361 627.485 144.164 625.898L153.465 625.898C156.712 629.877 158.335 633.978 158.335 638.202C158.335 642.669 156.846 646.343 153.868 649.224C150.89 652.129 147.106 653.582 142.516 653.582C140.465 653.582 138.268 653.216 135.925 652.483C133.605 651.775 130.92 650.506 127.868 648.675C124.841 646.844 120.703 643.731 115.455 639.337L113.587 637.762ZM157.823 682.84L158.335 683.573L152.733 688.004C150.218 684.098 147.472 680.851 144.493 678.263C141.515 675.7 138.012 673.722 133.984 672.331C135.375 675.04 136.071 677.738 136.071 680.423C136.071 684.452 134.643 687.845 131.787 690.604C128.93 693.362 125.427 694.741 121.277 694.741C117.005 694.741 113.379 693.24 110.401 690.237C107.423 687.235 105.934 683.585 105.934 679.288C105.934 674.479 107.618 670.585 110.987 667.607C114.38 664.653 118.811 663.176 124.28 663.176C128.381 663.176 132.458 663.933 136.51 665.446C140.587 666.984 144.396 669.181 147.936 672.038C151.5 674.918 154.796 678.519 157.823 682.84ZM126.404 670.756C125.256 670.561 123.975 670.463 122.559 670.463C119.678 670.463 117.31 671.293 115.455 672.953C113.599 674.638 112.672 676.786 112.672 679.398C112.672 681.742 113.465 683.67 115.052 685.184C116.639 686.722 118.64 687.491 121.057 687.491C123.523 687.491 125.513 686.673 127.026 685.037C128.564 683.426 129.333 681.29 129.333 678.629C129.333 677.262 129.126 676.017 128.711 674.894C128.296 673.795 127.527 672.416 126.404 670.756Z" fill="#D02B21"/>
</svg>
