<svg width="805" height="644" viewBox="0 0 805 644" fill="none" xmlns="http://www.w3.org/2000/svg">
<path d="M75.3122 574.701L75.3122 543.536L293 543.536L293 574.701L75.3122 574.701ZM262.926 254.325L262.926 171.426L293 171.426L293 309.175L290.818 309.175L275.392 296.086C250.044 275.621 228.54 259.363 210.88 247.313C193.22 235.158 179.871 227.263 170.833 223.627C161.795 219.887 152.861 218.017 144.031 218.017C131.773 218.017 121.956 221.497 114.58 228.458C107.101 235.418 103.361 244.663 103.361 256.195C103.361 264.921 105.958 273.543 111.152 282.062C116.242 290.476 123.462 298.06 132.812 304.812L93.2321 304.812C79.4156 287.879 72.5073 270.427 72.5073 252.455C72.5073 233.444 78.8442 217.81 91.518 205.551C104.192 193.189 120.294 187.008 139.824 187.008C148.55 187.008 157.9 188.566 167.872 191.683C177.741 194.696 189.168 200.097 202.154 207.889C215.035 215.68 232.644 228.925 254.979 247.624L262.926 254.325Z" fill="#D02B21"/>
<path d="M295.493 419.967L272.899 439.133C262.718 423.031 250.408 408.955 235.968 396.905C221.424 384.854 206.517 376.803 191.246 372.752C197.375 382.621 200.44 394.204 200.44 407.501C200.44 424.122 194.259 438.406 181.897 450.353C169.534 462.195 154.679 468.117 137.331 468.117C119.255 468.117 103.932 461.78 91.3622 449.106C78.7923 436.432 72.5073 420.954 72.5073 402.67C72.5073 382.101 79.935 365.272 94.7903 352.183C109.646 339.094 128.708 332.549 151.978 332.549C178.365 332.549 205.063 340.756 232.072 357.169C258.978 373.583 280.118 394.515 295.493 419.967ZM160.237 366.675C151.926 365.428 146.524 364.805 144.031 364.805C131.461 364.805 121.177 368.337 113.178 375.401C105.179 382.361 101.179 391.347 101.179 402.359C101.179 412.435 104.607 420.798 111.464 427.446C118.216 433.991 126.735 437.263 137.019 437.263C146.472 437.263 154.627 433.679 161.484 426.511C168.34 419.344 171.768 410.773 171.768 400.8C171.768 389.165 167.924 377.79 160.237 366.675ZM133.747 145.247C116.71 145.247 102.27 138.858 90.4272 126.081C78.4806 113.303 72.5073 97.6684 72.5073 79.1771C72.5073 60.9975 78.4287 45.6747 90.2714 33.2087C102.01 20.6388 116.502 14.3538 133.747 14.3538C153.173 14.3538 169.223 23.3917 181.897 41.4674C193.532 21.314 210.672 11.2373 233.319 11.2373C251.291 11.2373 266.146 17.782 277.885 30.8713C289.624 43.9606 295.493 60.4781 295.493 80.4237C295.493 100.162 289.52 116.731 277.573 130.132C265.523 143.533 250.667 150.233 233.007 150.233C210.88 150.233 193.843 139.949 181.897 119.38C174.417 128.626 166.989 135.274 159.614 139.326C152.134 143.273 143.512 145.247 133.747 145.247ZM134.682 45.3631C125.228 45.3631 117.437 48.6354 111.308 55.18C105.179 61.6208 102.114 69.8276 102.114 79.8004C102.114 89.8771 105.127 98.1359 111.152 104.577C117.177 111.017 124.917 114.238 134.37 114.238C143.408 114.238 151.147 110.862 157.588 104.109C164.029 97.2528 167.249 89.0461 167.249 79.4888C167.249 70.0354 164.081 61.9844 157.744 55.3359C151.303 48.6873 143.616 45.3631 134.682 45.3631ZM234.566 42.714L231.449 42.714C221.476 42.714 213.373 46.298 207.14 53.466C200.803 60.53 197.635 69.7237 197.635 81.047C197.635 92.1626 200.803 101.252 207.14 108.316C213.477 115.277 221.684 118.757 231.761 118.757C241.837 118.757 250.044 115.173 256.381 108.005C262.718 100.837 265.886 91.5393 265.886 80.1121C265.886 69.2043 262.978 60.2703 257.16 53.3101C251.343 46.2461 243.811 42.714 234.566 42.714Z" fill="#0D3D35"/>
<path d="M123.161 58.0532H130.485V109.213H123.161L123.161 58.0532ZM159.526 109.799L155.021 104.489C158.806 102.096 162.114 99.2031 164.946 95.8096C167.778 92.3916 169.67 88.8882 170.622 85.2993C168.303 86.7397 165.581 87.46 162.456 87.46C158.549 87.46 155.192 86.0073 152.385 83.1021C149.602 80.1968 148.21 76.7056 148.21 72.6284C148.21 68.3804 149.699 64.7793 152.678 61.8252C155.656 58.8711 159.294 57.394 163.591 57.394C168.425 57.394 172.38 59.1396 175.456 62.6309C178.532 66.1221 180.07 70.6021 180.07 76.0708C180.07 82.272 178.142 88.5464 174.284 94.894C170.427 101.217 165.507 106.186 159.526 109.799ZM172.05 78.0117C172.343 76.0586 172.49 74.7891 172.49 74.2031C172.49 71.249 171.66 68.832 170 66.9521C168.364 65.0723 166.252 64.1323 163.664 64.1323C161.296 64.1323 159.331 64.938 157.768 66.5493C156.23 68.1362 155.461 70.1382 155.461 72.5552C155.461 74.7769 156.303 76.6934 157.988 78.3047C159.672 79.916 161.687 80.7217 164.03 80.7217C166.765 80.7217 169.438 79.8184 172.05 78.0117ZM198.454 102.145H217.937V109.213H185.563V108.7L188.64 105.075C193.449 99.1177 197.27 94.064 200.102 89.9136C202.958 85.7632 204.814 82.626 205.668 80.502C206.547 78.3779 206.987 76.2783 206.987 74.2031C206.987 71.3223 206.169 69.0151 204.533 67.2817C202.897 65.5239 200.725 64.645 198.015 64.645C195.964 64.645 193.938 65.2554 191.936 66.4761C189.958 67.6724 188.176 69.3691 186.589 71.5664V62.2646C190.568 59.0176 194.67 57.394 198.894 57.394C203.361 57.394 207.036 58.8833 209.917 61.8618C212.822 64.8403 214.274 68.6245 214.274 73.2144C214.274 75.2651 213.908 77.4624 213.176 79.8062C212.468 82.1255 211.198 84.811 209.367 87.8628C207.536 90.8901 204.423 95.0283 200.029 100.277L198.454 102.145ZM224.089 71.7861C224.089 67.7822 225.59 64.3887 228.593 61.6055C231.596 58.7979 235.271 57.394 239.616 57.394C243.889 57.394 247.49 58.7856 250.419 61.5688C253.374 64.3276 254.851 67.7334 254.851 71.7861C254.851 76.3516 252.727 80.1235 248.479 83.1021C253.215 85.8364 255.583 89.8647 255.583 95.187C255.583 99.4106 254.045 102.902 250.969 105.661C247.893 108.419 244.011 109.799 239.323 109.799C234.685 109.799 230.791 108.395 227.641 105.587C224.492 102.755 222.917 99.2642 222.917 95.1138C222.917 89.9136 225.334 85.9097 230.168 83.1021C227.995 81.3442 226.433 79.5986 225.48 77.8652C224.553 76.1074 224.089 74.0811 224.089 71.7861ZM247.563 72.0059C247.563 69.7842 246.794 67.9531 245.256 66.5127C243.742 65.0723 241.813 64.3521 239.47 64.3521C237.102 64.3521 235.161 65.0601 233.647 66.4761C232.133 67.8921 231.376 69.7109 231.376 71.9326C231.376 74.0566 232.17 75.8755 233.757 77.3892C235.368 78.9028 237.297 79.6597 239.543 79.6597C241.765 79.6597 243.657 78.915 245.219 77.4258C246.782 75.9121 247.563 74.1055 247.563 72.0059ZM248.186 95.48V94.7476C248.186 92.4038 247.343 90.4995 245.659 89.0347C243.999 87.5454 241.838 86.8008 239.177 86.8008C236.564 86.8008 234.428 87.5454 232.768 89.0347C231.132 90.5239 230.314 92.4526 230.314 94.8208C230.314 97.189 231.157 99.1177 232.841 100.607C234.526 102.096 236.711 102.841 239.396 102.841C241.96 102.841 244.06 102.157 245.695 100.79C247.355 99.4229 248.186 97.6528 248.186 95.48Z" fill="#D02B21"/>
<path d="M85.8571 596.213H64.9996L64.9996 519.886H85.8571L85.8571 596.213ZM141.75 597.34L122.921 591.139C130.363 584.826 137.465 577.836 142.313 570.507C141.073 570.846 139.382 571.071 137.24 571.071C123.936 571.071 112.549 561.375 112.549 546.268C112.549 532.175 124.049 518.871 141.975 518.871C162.043 518.871 172.19 533.753 172.19 549.086C172.19 566.674 160.014 584.375 141.75 597.34ZM132.392 546.606C132.392 554.16 137.691 556.865 142.201 556.865C150.093 556.865 152.347 550.214 152.347 546.606C152.347 540.743 148.289 536.008 142.539 536.008C134.985 536.008 132.392 542.66 132.392 546.606ZM238.455 579.076V596.213H180.505V594.747C186.03 589.448 192.456 581.782 198.206 575.017C204.97 567.125 212.411 558.331 212.411 547.846C212.411 540.63 207.789 536.008 201.588 536.008C194.034 536.008 187.721 540.743 182.985 545.704V527.665C187.946 524.508 195.725 518.871 207.676 518.871C221.769 518.871 232.705 527.665 232.705 542.434C232.705 553.258 226.504 561.713 223.911 565.659C220.867 570.169 217.372 574.792 213.764 579.076H238.455ZM258.834 556.865C253.422 553.483 249.138 549.086 249.138 540.518C249.138 532.513 255.226 518.871 276.309 518.871C297.955 518.871 303.48 532.513 303.48 540.518C303.48 549.086 299.421 553.258 293.784 556.865C301.112 560.586 306.073 567.914 306.073 575.694C306.073 581.218 302.578 597.228 276.309 597.228C249.476 597.228 246.545 581.218 246.545 575.694C246.545 567.914 251.28 560.586 258.834 556.865ZM276.309 552.13C280.255 552.13 284.201 548.184 284.201 541.983C284.201 538.488 282.622 531.724 276.534 531.724C270.221 531.724 268.417 537.925 268.417 541.983C268.417 548.184 272.363 552.13 276.309 552.13ZM276.421 585.051C281.495 585.051 286.456 580.88 286.456 573.664C286.456 566.223 280.818 562.39 276.309 562.39C271.574 562.39 266.162 566.336 266.162 573.664C266.162 581.669 271.799 585.051 276.421 585.051Z" fill="#0D3D35"/>
<path d="M322.371 450.647L322.371 426.219L493 426.219L493 450.647L322.371 450.647ZM469.427 199.528L469.427 134.549L493 134.549L493 242.521L491.29 242.521L479.198 232.261C459.33 216.22 442.475 203.477 428.632 194.031C414.79 184.504 404.326 178.316 397.242 175.466C390.158 172.535 383.156 171.069 376.234 171.069C366.626 171.069 358.931 173.797 353.15 179.252C347.287 184.708 344.356 191.955 344.356 200.993C344.356 207.833 346.392 214.591 350.463 221.268C354.453 227.864 360.112 233.808 367.44 239.101L336.417 239.101C325.587 225.828 320.172 212.149 320.172 198.062C320.172 183.161 325.139 170.906 335.073 161.298C345.007 151.608 357.628 146.763 372.937 146.763C379.776 146.763 387.105 147.985 394.922 150.427C402.657 152.789 411.614 157.023 421.792 163.13C431.889 169.237 445.691 179.619 463.198 194.276L469.427 199.528Z" fill="#D02B21"/>
<path d="M494.954 329.362L477.244 344.385C469.264 331.764 459.615 320.731 448.297 311.285C436.897 301.84 425.212 295.529 413.243 292.354C418.047 300.089 420.449 309.168 420.449 319.591C420.449 332.619 415.604 343.815 405.914 353.179C396.225 362.462 384.581 367.103 370.982 367.103C356.814 367.103 344.804 362.136 334.951 352.202C325.098 342.268 320.172 330.136 320.172 315.805C320.172 299.682 325.994 286.491 337.638 276.231C349.282 265.972 364.224 260.842 382.463 260.842C403.146 260.842 424.072 267.274 445.243 280.14C466.333 293.005 482.903 309.413 494.954 329.362ZM388.937 287.59C382.423 286.613 378.189 286.125 376.234 286.125C366.382 286.125 358.32 288.893 352.051 294.43C345.781 299.886 342.646 306.929 342.646 315.56C342.646 323.459 345.333 330.014 350.707 335.225C356 340.355 362.677 342.92 370.738 342.92C378.148 342.92 384.54 340.11 389.914 334.492C395.288 328.874 397.975 322.156 397.975 314.339C397.975 305.219 394.962 296.303 388.937 287.59ZM368.173 114.03C354.819 114.03 343.501 109.022 334.218 99.0065C324.854 88.991 320.172 76.7363 320.172 62.2424C320.172 47.9928 324.813 35.9823 334.096 26.2112C343.297 16.3585 354.656 11.4322 368.173 11.4322C383.4 11.4322 395.98 18.5163 405.914 32.6846C415.034 16.8878 428.469 8.98944 446.22 8.98944C460.307 8.98944 471.951 14.1193 481.152 24.3791C490.354 34.6388 494.954 47.5856 494.954 63.2195C494.954 78.6906 490.272 91.6781 480.908 102.182C471.463 112.686 459.819 117.938 445.976 117.938C428.632 117.938 415.278 109.877 405.914 93.7545C400.052 101.001 394.23 106.213 388.448 109.388C382.586 112.483 375.827 114.03 368.173 114.03ZM368.906 35.7381C361.496 35.7381 355.389 38.303 350.585 43.4329C345.781 48.4813 343.379 54.914 343.379 62.731C343.379 70.6293 345.74 77.1027 350.463 82.1512C355.186 87.1996 361.252 89.7239 368.662 89.7239C375.746 89.7239 381.812 87.0775 386.86 81.7848C391.909 76.4106 394.433 69.9779 394.433 62.4867C394.433 55.0769 391.95 48.7663 386.983 43.555C381.934 38.3437 375.909 35.7381 368.906 35.7381ZM447.198 33.6617L444.755 33.6617C436.938 33.6617 430.587 36.4709 425.701 42.0893C420.734 47.6263 418.25 54.8326 418.25 63.7081C418.25 72.4207 420.734 79.5455 425.701 85.0825C430.668 90.5381 437.101 93.2659 444.999 93.2659C452.897 93.2659 459.33 90.4567 464.297 84.8383C469.264 79.2198 471.748 71.9322 471.748 62.9752C471.748 54.4255 469.468 47.4228 464.908 41.9672C460.348 36.4302 454.445 33.6617 447.198 33.6617Z" fill="#0D3D35"/>
<path d="M360.536 45.6019H366.277V85.7021H360.536V45.6019ZM389.04 86.1614L385.509 81.9993C388.475 80.1239 391.068 77.8562 393.288 75.1963C395.508 72.5172 396.991 69.7711 397.737 66.9581C395.919 68.0871 393.785 68.6516 391.336 68.6516C388.274 68.6516 385.643 67.513 383.442 65.2358C381.261 62.9586 380.17 60.2221 380.17 57.0263C380.17 53.6966 381.337 50.8739 383.672 48.5584C386.007 46.2429 388.858 45.0852 392.226 45.0852C396.015 45.0852 399.115 46.4534 401.526 49.1899C403.937 51.9265 405.143 55.438 405.143 59.7245C405.143 64.5852 403.631 69.5032 400.608 74.4787C397.584 79.435 393.728 83.3292 389.04 86.1614ZM398.857 61.2459C399.086 59.715 399.201 58.7199 399.201 58.2606C399.201 55.9451 398.55 54.0506 397.249 52.5771C395.967 51.1036 394.312 50.3668 392.283 50.3668C390.427 50.3668 388.887 50.9983 387.662 52.2613C386.456 53.5052 385.853 55.0744 385.853 56.9689C385.853 58.7103 386.514 60.2125 387.834 61.4755C389.154 62.7385 390.733 63.37 392.57 63.37C394.714 63.37 396.809 62.662 398.857 61.2459ZM419.553 80.1622H434.823V85.7021L409.449 85.7021V85.3003L411.86 82.4585C415.63 77.7893 418.624 73.828 420.844 70.5748C423.083 67.3217 424.538 64.8626 425.207 63.1978C425.896 61.5329 426.241 59.8872 426.241 58.2606C426.241 56.0025 425.6 54.1941 424.318 52.8354C423.035 51.4576 421.332 50.7687 419.208 50.7687C417.601 50.7687 416.012 51.2471 414.443 52.2039C412.893 53.1416 411.496 54.4716 410.252 56.1939V48.9029C413.372 46.3578 416.586 45.0852 419.897 45.0852C423.399 45.0852 426.279 46.2525 428.537 48.5872C430.814 50.9218 431.953 53.8879 431.953 57.4856C431.953 59.093 431.666 60.8153 431.092 62.6524C430.537 64.4703 429.542 66.5753 428.107 68.9674C426.671 71.3403 424.231 74.5839 420.787 78.6982L419.553 80.1622ZM439.646 56.3661C439.646 53.2277 440.823 50.5678 443.176 48.3862C445.53 46.1855 448.41 45.0852 451.817 45.0852C455.165 45.0852 457.988 46.176 460.284 48.3575C462.6 50.5199 463.758 53.1895 463.758 56.3661C463.758 59.9446 462.093 62.9012 458.763 65.2358C462.475 67.3791 464.332 70.5366 464.332 74.7083C464.332 78.0189 463.126 80.7554 460.715 82.9178C458.304 85.0802 455.261 86.1614 451.587 86.1614C447.951 86.1614 444.899 85.0611 442.43 82.8604C439.962 80.6406 438.727 77.9041 438.727 74.6509C438.727 70.5748 440.622 67.4365 444.411 65.2358C442.708 63.858 441.483 62.4897 440.737 61.131C440.009 59.7532 439.646 58.1649 439.646 56.3661ZM458.045 56.5383C458.045 54.7969 457.443 53.3617 456.237 52.2326C455.051 51.1036 453.539 50.5391 451.702 50.5391C449.845 50.5391 448.324 51.094 447.138 52.2039C445.951 53.3138 445.358 54.7395 445.358 56.4809C445.358 58.1458 445.98 59.5714 447.224 60.7579C448.487 61.9443 449.999 62.5376 451.759 62.5376C453.501 62.5376 454.984 61.9539 456.208 60.7866C457.433 59.6001 458.045 58.184 458.045 56.5383ZM458.533 74.9379V74.3638C458.533 72.5268 457.873 71.0341 456.553 69.8859C455.252 68.7186 453.558 68.135 451.472 68.135C449.424 68.135 447.75 68.7186 446.449 69.8859C445.167 71.0533 444.526 72.565 444.526 74.4213C444.526 76.2775 445.186 77.7893 446.506 78.9566C447.827 80.1239 449.539 80.7076 451.644 80.7076C453.654 80.7076 455.299 80.1717 456.581 79.1001C457.883 78.0285 458.533 76.6411 458.533 74.9379Z" fill="#D02B21"/>
<path d="M331.298 467.532H314.95V407.705H331.298V467.532ZM375.108 468.416L360.35 463.556C366.183 458.607 371.75 453.128 375.55 447.384C374.578 447.649 373.252 447.825 371.573 447.825C361.146 447.825 352.22 440.226 352.22 428.384C352.22 417.337 361.234 406.91 375.285 406.91C391.015 406.91 398.968 418.575 398.968 430.593C398.968 444.379 389.424 458.253 375.108 468.416ZM367.773 428.649C367.773 434.57 371.927 436.691 375.462 436.691C381.648 436.691 383.415 431.477 383.415 428.649C383.415 424.054 380.234 420.342 375.727 420.342C369.806 420.342 367.773 425.556 367.773 428.649ZM450.909 454.1V467.532H405.486V466.383C409.816 462.23 414.853 456.221 419.36 450.918C424.662 444.732 430.495 437.84 430.495 429.621C430.495 423.965 426.872 420.342 422.011 420.342C416.09 420.342 411.142 424.054 407.43 427.942V413.803C411.318 411.328 417.416 406.91 426.783 406.91C437.83 406.91 446.402 413.803 446.402 425.379C446.402 433.863 441.541 440.491 439.509 443.584C437.123 447.119 434.383 450.742 431.555 454.1H450.909ZM466.882 436.691C462.64 434.04 459.282 430.593 459.282 423.877C459.282 417.603 464.054 406.91 480.579 406.91C497.546 406.91 501.877 417.603 501.877 423.877C501.877 430.593 498.695 433.863 494.277 436.691C500.021 439.607 503.909 445.351 503.909 451.449C503.909 455.779 501.17 468.328 480.579 468.328C459.547 468.328 457.249 455.779 457.249 451.449C457.249 445.351 460.961 439.607 466.882 436.691ZM480.579 432.979C483.672 432.979 486.765 429.886 486.765 425.026C486.765 422.286 485.528 416.984 480.756 416.984C475.807 416.984 474.393 421.844 474.393 425.026C474.393 429.886 477.486 432.979 480.579 432.979ZM480.667 458.783C484.644 458.783 488.533 455.514 488.533 449.858C488.533 444.026 484.114 441.021 480.579 441.021C476.868 441.021 472.626 444.114 472.626 449.858C472.626 456.132 477.044 458.783 480.667 458.783Z" fill="#0D3D35"/>
<path d="M519.609 347.063L519.609 328.252L651 328.252L651 347.063L519.609 347.063ZM632.848 153.692L632.848 103.656L651 103.656L651 186.798L649.683 186.798L640.372 178.898C625.073 166.546 612.094 156.733 601.435 149.459C590.775 142.123 582.718 137.358 577.263 135.164C571.808 132.906 566.416 131.778 561.086 131.778C553.688 131.778 547.762 133.878 543.311 138.079C538.796 142.28 536.539 147.861 536.539 154.82C536.539 160.087 538.106 165.292 541.241 170.433C544.314 175.512 548.672 180.089 554.315 184.165L530.425 184.165C522.086 173.944 517.917 163.41 517.917 152.563C517.917 141.089 521.741 131.652 529.391 124.254C537.04 116.792 546.759 113.061 558.547 113.061C563.814 113.061 569.457 114.002 575.476 115.883C581.433 117.701 588.33 120.962 596.168 125.664C603.943 130.367 614.571 138.361 628.051 149.648L632.848 153.692Z" fill="#D02B21"/>
<path d="M652.505 253.669L638.867 265.237C632.723 255.519 625.292 247.023 616.577 239.749C607.799 232.476 598.801 227.617 589.584 225.171C593.283 231.128 595.133 238.119 595.133 246.145C595.133 256.177 591.402 264.798 583.941 272.009C576.48 279.157 567.513 282.731 557.042 282.731C546.132 282.731 536.884 278.906 529.297 271.257C521.71 263.607 517.917 254.265 517.917 243.229C517.917 230.814 522.4 220.657 531.366 212.756C540.332 204.856 551.838 200.906 565.883 200.906C581.809 200.906 597.923 205.859 614.226 215.766C630.465 225.673 643.225 238.307 652.505 253.669ZM570.868 221.503C565.852 220.751 562.591 220.375 561.086 220.375C553.5 220.375 547.292 222.506 542.464 226.77C537.636 230.971 535.222 236.395 535.222 243.041C535.222 249.123 537.291 254.171 541.43 258.183C545.505 262.134 550.647 264.109 556.854 264.109C562.56 264.109 567.482 261.946 571.62 257.619C575.758 253.293 577.828 248.12 577.828 242.101C577.828 235.078 575.508 228.212 570.868 221.503ZM554.879 87.8555C544.596 87.8555 535.88 83.9993 528.733 76.2871C521.522 68.5748 517.917 59.1383 517.917 47.9774C517.917 37.0047 521.491 27.7563 528.638 20.2321C535.724 12.6453 544.471 8.85185 554.879 8.85185C566.604 8.85185 576.291 14.3069 583.941 25.2169C590.964 13.0528 601.309 6.97081 614.978 6.97081C625.825 6.97081 634.792 10.921 641.877 18.8213C648.962 26.7217 652.505 36.6912 652.505 48.7299C652.505 60.6431 648.899 70.6439 641.689 78.7324C634.416 86.8209 625.449 90.8651 614.79 90.8651C601.435 90.8651 591.152 84.6577 583.941 72.2428C579.426 77.8232 574.943 81.8361 570.492 84.2815C565.977 86.6641 560.773 87.8554 554.879 87.8555ZM555.443 27.5682C549.737 27.5682 545.035 29.5433 541.335 33.4934C537.636 37.3809 535.786 42.3343 535.786 48.3537C535.786 54.4357 537.605 59.4204 541.241 63.3079C544.878 67.1954 549.549 69.1391 555.255 69.1391C560.71 69.1391 565.381 67.1013 569.269 63.0257C573.156 58.8875 575.1 53.9341 575.1 48.1655C575.1 42.4597 573.188 37.6004 569.363 33.5875C565.475 29.5746 560.836 27.5682 555.443 27.5682ZM615.731 25.9693L613.849 25.9693C607.83 25.9693 602.939 28.1325 599.177 32.4589C595.353 36.7226 593.44 42.2716 593.44 49.1061C593.44 55.8151 595.353 61.3015 599.177 65.5651C603.002 69.7661 607.956 71.8666 614.038 71.8666C620.12 71.8666 625.073 69.7034 628.898 65.377C632.723 61.0507 634.635 55.4389 634.635 48.5418C634.635 41.9581 632.879 36.5658 629.368 32.3648C625.857 28.1011 621.311 25.9693 615.731 25.9693Z" fill="#0D3D35"/>
<path d="M548.334 35.5823H552.755V66.4609H548.334V35.5823ZM570.283 66.8146L567.564 63.6096C569.849 62.1655 571.845 60.4193 573.555 58.3711C575.264 56.3081 576.406 54.1935 576.981 52.0273C575.581 52.8968 573.938 53.3315 572.052 53.3315C569.694 53.3315 567.668 52.4547 565.973 50.7011C564.293 48.9476 563.453 46.8404 563.453 44.3795C563.453 41.8155 564.352 39.642 566.15 37.859C567.948 36.076 570.143 35.1845 572.737 35.1845C575.654 35.1845 578.042 36.2381 579.898 38.3453C581.755 40.4525 582.683 43.1565 582.683 46.4573C582.683 50.2001 581.519 53.9872 579.191 57.8185C576.863 61.635 573.893 64.6337 570.283 66.8146ZM577.843 47.6287C578.019 46.4499 578.108 45.6836 578.108 45.33C578.108 43.547 577.607 42.0881 576.605 40.9535C575.618 39.8188 574.343 39.2515 572.781 39.2515C571.352 39.2515 570.165 39.7378 569.222 40.7103C568.294 41.6682 567.83 42.8765 567.83 44.3353C567.83 45.6763 568.338 46.833 569.355 47.8056C570.372 48.7781 571.587 49.2644 573.002 49.2644C574.652 49.2644 576.266 48.7192 577.843 47.6287ZM593.779 62.195L605.538 62.195V66.4609L585.999 66.4609V66.1515L587.856 63.9632C590.758 60.3677 593.065 57.3175 594.774 54.8124C596.498 52.3073 597.618 50.4138 598.134 49.1318C598.664 47.8498 598.929 46.5825 598.929 45.33C598.929 43.5912 598.436 42.1987 597.448 41.1524C596.461 40.0915 595.15 39.561 593.514 39.561C592.276 39.561 591.053 39.9294 589.845 40.6661C588.651 41.3882 587.576 42.4123 586.618 43.7385V38.1242C589.02 36.1644 591.495 35.1845 594.045 35.1845C596.741 35.1845 598.959 36.0833 600.698 37.8811C602.451 39.6789 603.328 41.9629 603.328 44.7332C603.328 45.971 603.107 47.2972 602.665 48.7118C602.238 50.1117 601.471 51.7326 600.366 53.5746C599.261 55.4018 597.382 57.8995 594.73 61.0677L593.779 62.195ZM609.252 43.8712C609.252 41.4545 610.158 39.4062 611.97 37.7264C613.783 36.0318 616.001 35.1845 618.624 35.1845C621.202 35.1845 623.376 36.0244 625.144 37.7043C626.927 39.3694 627.819 41.425 627.819 43.8712C627.819 46.6267 626.537 48.9034 623.973 50.7011C626.831 52.3515 628.261 54.7829 628.261 57.9953C628.261 60.5446 627.332 62.6518 625.476 64.3169C623.619 65.982 621.276 66.8146 618.447 66.8146C615.647 66.8146 613.297 65.9673 611.396 64.2727C609.495 62.5634 608.544 60.4562 608.544 57.9511C608.544 54.8124 610.003 52.3957 612.921 50.7011C611.609 49.6402 610.666 48.5866 610.092 47.5403C609.532 46.4794 609.252 45.2563 609.252 43.8712ZM623.42 44.0038C623.42 42.6628 622.956 41.5577 622.028 40.6882C621.114 39.8188 619.95 39.3841 618.535 39.3841C617.106 39.3841 615.934 39.8115 615.021 40.6661C614.107 41.5208 613.65 42.6186 613.65 43.9596C613.65 45.2416 614.129 46.3394 615.087 47.253C616.06 48.1666 617.224 48.6234 618.579 48.6234C619.92 48.6234 621.062 48.174 622.005 47.2751C622.949 46.3615 623.42 45.271 623.42 44.0038ZM623.796 58.1721V57.7301C623.796 56.3154 623.287 55.166 622.271 54.2819C621.269 53.383 619.965 52.9336 618.358 52.9336C616.782 52.9336 615.492 53.383 614.49 54.2819C613.503 55.1808 613.009 56.3449 613.009 57.7743C613.009 59.2036 613.518 60.3677 614.534 61.2666C615.551 62.1655 616.87 62.6149 618.491 62.6149C620.038 62.6149 621.305 62.2023 622.293 61.3771C623.295 60.5519 623.796 59.4836 623.796 58.1721Z" fill="#D02B21"/>
<path d="M525.823 359.933H513.234V313.864H525.823V359.933ZM559.558 360.613L548.194 356.87C552.685 353.06 556.972 348.841 559.898 344.417C559.149 344.622 558.129 344.758 556.836 344.758C548.806 344.758 541.933 338.906 541.933 329.787C541.933 321.281 548.874 313.251 559.694 313.251C571.807 313.251 577.931 322.234 577.931 331.488C577.931 342.104 570.582 352.787 559.558 360.613ZM553.91 329.991C553.91 334.55 557.108 336.184 559.83 336.184C564.593 336.184 565.954 332.169 565.954 329.991C565.954 326.453 563.505 323.595 560.034 323.595C555.475 323.595 553.91 327.609 553.91 329.991ZM617.927 349.589V359.933H582.95V359.048C586.284 355.85 590.163 351.222 593.633 347.139C597.716 342.376 602.207 337.068 602.207 330.74C602.207 326.385 599.417 323.595 595.675 323.595C591.115 323.595 587.305 326.453 584.447 329.447V318.559C587.441 316.654 592.136 313.251 599.349 313.251C607.855 313.251 614.456 318.559 614.456 327.473C614.456 334.006 610.713 339.11 609.148 341.491C607.311 344.213 605.202 347.003 603.024 349.589H617.927ZM630.226 336.184C626.96 334.142 624.374 331.488 624.374 326.316C624.374 321.485 628.049 313.251 640.774 313.251C653.839 313.251 657.174 321.485 657.174 326.316C657.174 331.488 654.724 334.006 651.322 336.184C655.745 338.429 658.739 342.852 658.739 347.548C658.739 350.882 656.629 360.545 640.774 360.545C624.578 360.545 622.809 350.882 622.809 347.548C622.809 342.852 625.667 338.429 630.226 336.184ZM640.774 333.326C643.156 333.326 645.537 330.944 645.537 327.201C645.537 325.092 644.585 321.009 640.91 321.009C637.099 321.009 636.011 324.751 636.011 327.201C636.011 330.944 638.392 333.326 640.774 333.326ZM640.842 353.196C643.904 353.196 646.898 350.678 646.898 346.323C646.898 341.832 643.496 339.518 640.774 339.518C637.916 339.518 634.65 341.9 634.65 346.323C634.65 351.154 638.052 353.196 640.842 353.196Z" fill="#0D3D35"/>
<path d="M677.396 252.668L677.396 238.981L773 238.981L773 252.668L677.396 252.668ZM759.792 111.965L759.792 75.5575L773 75.5575L773 136.054L772.042 136.054L765.267 130.306C754.135 121.318 744.691 114.178 736.935 108.885C729.179 103.547 723.316 100.08 719.347 98.4833C715.378 96.8408 711.454 96.0196 707.576 96.0196C702.192 96.0196 697.881 97.548 694.642 100.605C691.357 103.662 689.714 107.722 689.714 112.786C689.714 116.619 690.855 120.405 693.136 124.146C695.372 127.842 698.542 131.172 702.649 134.138L685.266 134.138C679.198 126.701 676.164 119.037 676.164 111.144C676.164 102.795 678.947 95.9283 684.513 90.5448C690.079 85.1156 697.151 82.401 705.728 82.401C709.561 82.401 713.667 83.0853 718.047 84.454C722.381 85.7771 727.399 88.1495 733.102 91.5713C738.76 94.9931 746.493 100.81 756.302 109.022L759.792 111.965Z" fill="#D02B21"/>
<path d="M774.095 184.712L764.172 193.129C759.701 186.058 754.294 179.876 747.953 174.583C741.565 169.291 735.018 165.755 728.312 163.976C731.004 168.31 732.349 173.397 732.349 179.237C732.349 186.537 729.635 192.81 724.206 198.057C718.776 203.258 712.252 205.858 704.633 205.858C696.695 205.858 689.965 203.075 684.445 197.509C678.924 191.943 676.164 185.145 676.164 177.115C676.164 168.082 679.426 160.691 685.95 154.942C692.475 149.194 700.846 146.319 711.066 146.319C722.654 146.319 734.38 149.924 746.242 157.132C758.058 164.341 767.343 173.534 774.095 184.712ZM714.693 161.307C711.043 160.759 708.671 160.486 707.576 160.486C702.055 160.486 697.539 162.037 694.026 165.139C690.513 168.196 688.756 172.142 688.756 176.978C688.756 181.404 690.262 185.077 693.273 187.997C696.238 190.871 699.98 192.308 704.496 192.308C708.648 192.308 712.23 190.734 715.241 187.586C718.252 184.438 719.757 180.674 719.757 176.294C719.757 171.184 718.069 166.189 714.693 161.307ZM703.059 64.0603C695.577 64.0603 689.235 61.2545 684.034 55.6428C678.788 50.0311 676.164 43.1648 676.164 35.0438C676.164 27.0597 678.765 20.3302 683.966 14.8554C689.121 9.33498 695.486 6.57476 703.059 6.57476C711.591 6.57476 718.64 10.544 724.206 18.4825C729.316 9.63153 736.843 5.20605 746.789 5.20605C754.682 5.20605 761.206 8.08033 766.362 13.8289C771.517 19.5774 774.095 26.8316 774.095 35.5913C774.095 44.2597 771.472 51.5367 766.225 57.4221C760.933 63.3076 754.408 66.2503 746.652 66.2503C736.935 66.2503 729.452 61.7335 724.206 52.7001C720.921 56.7606 717.659 59.6805 714.419 61.4598C711.135 63.1935 707.348 64.0603 703.059 64.0603ZM703.47 20.1934C699.318 20.1934 695.896 21.6305 693.205 24.5048C690.513 27.3334 689.167 30.9377 689.167 35.3176C689.167 39.743 690.49 43.3701 693.136 46.1988C695.782 49.0274 699.181 50.4417 703.333 50.4417C707.302 50.4417 710.701 48.959 713.53 45.9934C716.358 42.9823 717.773 39.378 717.773 35.1807C717.773 31.0289 716.381 27.4931 713.598 24.5732C710.77 21.6533 707.393 20.1934 703.47 20.1934ZM747.337 19.03L745.968 19.03C741.588 19.03 738.03 20.604 735.292 23.752C732.509 26.8544 731.118 30.8921 731.118 35.865C731.118 40.7467 732.509 44.7388 735.292 47.8412C738.075 50.898 741.679 52.4264 746.105 52.4264C750.53 52.4264 754.135 50.8523 756.918 47.7043C759.701 44.5563 761.092 40.473 761.092 35.4544C761.092 30.664 759.815 26.7403 757.26 23.6836C754.705 20.5812 751.397 19.03 747.337 19.03Z" fill="#0D3D35"/>
<path d="M698.088 25.4643H701.305V47.9326H698.088V25.4643ZM714.059 48.1899L712.081 45.8579C713.742 44.8071 715.195 43.5365 716.439 42.0462C717.683 40.5451 718.514 39.0064 718.932 37.4303C717.913 38.0629 716.718 38.3792 715.345 38.3792C713.63 38.3792 712.156 37.7412 710.923 36.4653C709.7 35.1893 709.089 33.6561 709.089 31.8655C709.089 29.9998 709.743 28.4183 711.051 27.1209C712.359 25.8235 713.957 25.1748 715.844 25.1748C717.967 25.1748 719.704 25.9415 721.055 27.4747C722.406 29.008 723.081 30.9755 723.081 33.3773C723.081 36.1007 722.234 38.8563 720.54 41.6441C718.846 44.4211 716.686 46.6031 714.059 48.1899ZM719.559 34.2297C719.688 33.3719 719.752 32.8144 719.752 32.557C719.752 31.2597 719.388 30.1982 718.659 29.3726C717.94 28.547 717.013 28.1342 715.876 28.1342C714.836 28.1342 713.973 28.488 713.287 29.1957C712.611 29.8926 712.274 30.7718 712.274 31.8333C712.274 32.809 712.643 33.6507 713.383 34.3584C714.123 35.066 715.008 35.4199 716.037 35.4199C717.238 35.4199 718.412 35.0231 719.559 34.2297ZM731.155 44.8286H739.712V47.9326H725.494V47.7075L726.845 46.1152C728.957 43.499 730.635 41.2795 731.879 39.4568C733.134 37.634 733.948 36.2562 734.324 35.3234C734.71 34.3905 734.903 33.4684 734.903 32.557C734.903 31.2918 734.543 30.2786 733.825 29.5173C733.107 28.7453 732.152 28.3593 730.962 28.3593C730.062 28.3593 729.172 28.6274 728.292 29.1635C727.424 29.6889 726.641 30.4341 725.944 31.3991V27.3139C727.692 25.8879 729.493 25.1748 731.348 25.1748C733.31 25.1748 734.924 25.8289 736.189 27.137C737.465 28.4451 738.103 30.107 738.103 32.1228C738.103 33.0235 737.942 33.9885 737.621 35.0178C737.31 36.0364 736.752 37.2158 735.948 38.5561C735.144 39.8856 733.777 41.703 731.847 44.0083L731.155 44.8286ZM742.414 31.4956C742.414 29.7371 743.073 28.2467 744.392 27.0244C745.711 25.7914 747.324 25.1748 749.233 25.1748C751.109 25.1748 752.691 25.786 753.977 27.0083C755.275 28.2199 755.923 29.7157 755.923 31.4956C755.923 33.5006 754.991 35.1572 753.125 36.4653C755.205 37.6662 756.245 39.4353 756.245 41.7727C756.245 43.6277 755.57 45.1609 754.219 46.3725C752.868 47.5841 751.163 48.1899 749.104 48.1899C747.067 48.1899 745.357 47.5734 743.974 46.3404C742.59 45.0966 741.899 43.5633 741.899 41.7406C741.899 39.4568 742.96 37.6983 745.083 36.4653C744.129 35.6933 743.443 34.9266 743.025 34.1654C742.617 33.3934 742.414 32.5034 742.414 31.4956ZM752.723 31.5921C752.723 30.6163 752.385 29.8122 751.71 29.1796C751.045 28.547 750.198 28.2307 749.168 28.2307C748.128 28.2307 747.276 28.5416 746.611 29.1635C745.946 29.7854 745.614 30.5842 745.614 31.5599C745.614 32.4927 745.963 33.2915 746.66 33.9563C747.367 34.6211 748.214 34.9534 749.201 34.9534C750.176 34.9534 751.007 34.6264 751.694 33.9724C752.38 33.3076 752.723 32.5142 752.723 31.5921ZM752.996 41.9014V41.5797C752.996 40.5504 752.626 39.7141 751.887 39.0708C751.157 38.4167 750.209 38.0897 749.04 38.0897C747.893 38.0897 746.954 38.4167 746.225 39.0708C745.507 39.7248 745.148 40.5719 745.148 41.6119C745.148 42.652 745.518 43.499 746.257 44.1531C746.997 44.8071 747.957 45.1341 749.136 45.1341C750.262 45.1341 751.184 44.8339 751.903 44.2335C752.632 43.633 752.996 42.8557 752.996 41.9014Z" fill="#D02B21"/>
<path d="M681.706 262.468H672.546V228.946H681.706V262.468ZM706.253 262.963L697.984 260.24C701.252 257.467 704.372 254.397 706.501 251.178C705.956 251.327 705.213 251.426 704.273 251.426C698.43 251.426 693.429 247.168 693.429 240.533C693.429 234.344 698.48 228.501 706.352 228.501C715.166 228.501 719.622 235.037 719.622 241.771C719.622 249.495 714.275 257.269 706.253 262.963ZM702.144 240.681C702.144 243.999 704.471 245.187 706.451 245.187C709.917 245.187 710.908 242.266 710.908 240.681C710.908 238.107 709.125 236.027 706.6 236.027C703.282 236.027 702.144 238.948 702.144 240.681ZM748.724 254.942V262.468H723.274V261.824C725.7 259.497 728.522 256.13 731.048 253.159C734.019 249.693 737.287 245.831 737.287 241.226C737.287 238.057 735.256 236.027 732.533 236.027C729.216 236.027 726.443 238.107 724.363 240.285V232.363C726.542 230.977 729.958 228.501 735.207 228.501C741.396 228.501 746.199 232.363 746.199 238.849C746.199 243.603 743.476 247.316 742.337 249.049C741 251.03 739.465 253.06 737.881 254.942H748.724ZM757.674 245.187C755.297 243.702 753.416 241.771 753.416 238.008C753.416 234.492 756.09 228.501 765.349 228.501C774.856 228.501 777.282 234.492 777.282 238.008C777.282 241.771 775.499 243.603 773.024 245.187C776.242 246.821 778.421 250.04 778.421 253.456C778.421 255.882 776.886 262.913 765.349 262.913C753.564 262.913 752.277 255.882 752.277 253.456C752.277 250.04 754.357 246.821 757.674 245.187ZM765.349 243.108C767.082 243.108 768.815 241.375 768.815 238.651C768.815 237.116 768.122 234.145 765.448 234.145C762.675 234.145 761.883 236.869 761.883 238.651C761.883 241.375 763.616 243.108 765.349 243.108ZM765.398 257.566C767.627 257.566 769.805 255.734 769.805 252.565C769.805 249.297 767.329 247.613 765.349 247.613C763.269 247.613 760.893 249.346 760.893 252.565C760.893 256.08 763.368 257.566 765.398 257.566Z" fill="#0D3D35"/>
</svg>
