<svg width="960" height="838" viewBox="0 0 960 838" fill="none" xmlns="http://www.w3.org/2000/svg">
<path d="M491.857 117.026L491.857 124.141L442.164 124.141L442.164 117.026L491.857 117.026ZM441.595 152.349L446.753 147.974C449.077 151.649 451.887 154.863 455.183 157.614C458.503 160.364 461.906 162.202 465.392 163.127C463.993 160.874 463.294 158.23 463.294 155.195C463.294 151.4 464.705 148.14 467.527 145.412C470.349 142.709 473.74 141.357 477.7 141.357C481.826 141.357 485.324 142.804 488.194 145.697C491.063 148.59 492.498 152.124 492.498 156.297C492.498 160.993 490.802 164.835 487.411 167.823C484.02 170.811 479.668 172.305 474.356 172.305C468.333 172.305 462.238 170.431 456.073 166.684C449.931 162.937 445.105 158.159 441.595 152.349ZM472.471 164.514C474.368 164.799 475.601 164.941 476.17 164.941C479.04 164.941 481.388 164.135 483.214 162.522C485.04 160.934 485.953 158.882 485.953 156.369C485.953 154.068 485.17 152.159 483.605 150.641C482.063 149.147 480.119 148.4 477.771 148.4C475.613 148.4 473.752 149.219 472.186 150.855C470.621 152.491 469.839 154.448 469.839 156.724C469.839 159.38 470.716 161.977 472.471 164.514ZM449.029 190.161L449.029 209.086L442.164 209.086L442.164 177.64L442.662 177.64L446.184 180.628C451.97 185.3 456.879 189.011 460.91 191.762C464.942 194.537 467.989 196.339 470.052 197.169C472.115 198.023 474.155 198.45 476.17 198.45C478.969 198.45 481.21 197.655 482.893 196.066C484.601 194.477 485.455 192.367 485.455 189.735C485.455 187.743 484.862 185.774 483.676 183.83C482.514 181.909 480.866 180.178 478.732 178.636L487.767 178.636C490.921 182.502 492.498 186.486 492.498 190.588C492.498 194.928 491.051 198.497 488.158 201.295C485.265 204.117 481.589 205.528 477.131 205.528C475.139 205.528 473.005 205.173 470.728 204.461C468.475 203.773 465.867 202.54 462.902 200.762C459.962 198.983 455.942 195.96 450.844 191.691L449.029 190.161ZM441.595 225.199L446.753 220.824C449.077 224.5 451.887 227.713 455.183 230.464C458.503 233.215 461.906 235.053 465.392 235.978C463.993 233.725 463.294 231.081 463.294 228.045C463.294 224.251 464.705 220.99 467.527 218.263C470.349 215.56 473.74 214.208 477.7 214.208C481.826 214.208 485.324 215.654 488.194 218.548C491.063 221.441 492.498 224.974 492.498 229.148C492.498 233.843 490.802 237.685 487.411 240.673C484.02 243.661 479.668 245.155 474.356 245.155C468.333 245.155 462.238 243.282 456.073 239.535C449.931 235.788 445.105 231.009 441.595 225.199ZM472.471 237.365C474.368 237.649 475.601 237.792 476.17 237.792C479.04 237.792 481.388 236.985 483.214 235.373C485.04 233.784 485.953 231.733 485.953 229.219C485.953 226.919 485.17 225.01 483.605 223.492C482.063 221.998 480.119 221.251 477.771 221.251C475.613 221.251 473.752 222.069 472.186 223.705C470.621 225.342 469.839 227.298 469.839 229.575C469.839 232.231 470.716 234.827 472.471 237.365Z" fill="#D02B21"/>
<path d="M401.33 73.5387H431.604V285H401.33V73.5387ZM712.543 255.786H793.071V285H659.262V282.881L671.977 267.895C691.856 243.273 707.649 222.384 719.355 205.229C731.162 188.074 738.831 175.107 742.363 166.327C745.996 157.548 747.812 148.87 747.812 140.292C747.812 128.384 744.432 118.848 737.671 111.683C730.909 104.418 721.928 100.785 710.727 100.785C702.25 100.785 693.875 103.308 685.6 108.353C677.426 113.298 670.059 120.311 663.5 129.394V90.946C679.949 77.5247 696.902 70.814 714.36 70.814C732.827 70.814 748.014 76.9697 759.922 89.281C771.93 101.592 777.934 117.234 777.934 136.205C777.934 144.682 776.421 153.764 773.393 163.451C770.467 173.038 765.22 184.138 757.651 196.752C750.083 209.265 737.216 226.37 719.052 248.066L712.543 255.786Z" fill="#0D3D35"/>
<path d="M551.639 287.422L533.021 265.474C548.662 255.584 562.336 243.626 574.042 229.599C585.747 215.472 593.568 200.991 597.504 186.157C587.917 192.11 576.665 195.087 563.749 195.087C547.603 195.087 533.727 189.083 522.122 177.074C510.618 165.066 504.866 150.636 504.866 133.783C504.866 116.224 511.022 101.34 523.333 89.1296C535.645 76.9192 550.68 70.814 568.441 70.814C588.422 70.814 604.769 78.0293 617.484 92.4597C630.199 106.89 636.557 125.407 636.557 148.012C636.557 173.643 628.585 199.578 612.64 225.815C596.696 251.951 576.363 272.487 551.639 287.422ZM603.407 156.034C604.618 147.961 605.223 142.714 605.223 140.292C605.223 128.082 601.792 118.091 594.93 110.321C588.169 102.551 579.44 98.6658 568.744 98.6658C558.955 98.6658 550.832 101.996 544.373 108.656C538.016 115.215 534.837 123.49 534.837 133.48C534.837 142.663 538.319 150.585 545.282 157.245C552.245 163.905 560.57 167.236 570.257 167.236C581.56 167.236 592.609 163.502 603.407 156.034ZM861.641 287.422L843.023 265.474C858.664 255.584 872.338 243.626 884.044 229.599C895.749 215.472 903.57 200.991 907.506 186.157C897.919 192.11 886.667 195.087 873.751 195.087C857.605 195.087 843.729 189.083 832.124 177.074C820.62 165.066 814.868 150.636 814.868 133.783C814.868 116.224 821.024 101.34 833.335 89.1296C845.647 76.9192 860.682 70.814 878.443 70.814C898.424 70.814 914.771 78.0293 927.486 92.4597C940.201 106.89 946.559 125.407 946.559 148.012C946.559 173.643 938.587 199.578 922.642 225.815C906.698 251.951 886.365 272.487 861.641 287.422ZM913.409 156.034C914.62 147.961 915.225 142.714 915.225 140.292C915.225 128.082 911.794 118.091 904.932 110.321C898.171 102.551 889.442 98.6658 878.746 98.6658C868.957 98.6658 860.834 101.996 854.375 108.656C848.018 115.215 844.839 123.49 844.839 133.48C844.839 142.663 848.321 150.585 855.284 157.245C862.247 163.905 870.572 167.236 880.259 167.236C891.562 167.236 902.611 163.502 913.409 156.034Z" fill="#D02B21"/>
<path d="M378.967 277.54L378.967 284.654L329.273 284.654L329.273 277.54L378.967 277.54ZM328.704 312.863L333.862 308.487C336.186 312.163 338.996 315.376 342.293 318.127C345.613 320.878 349.016 322.716 352.502 323.641C351.102 321.388 350.403 318.744 350.403 315.708C350.403 311.914 351.814 308.653 354.636 305.926C357.458 303.223 360.849 301.871 364.809 301.871C368.936 301.871 372.434 303.318 375.303 306.211C378.172 309.104 379.607 312.637 379.607 316.811C379.607 321.506 377.912 325.348 374.52 328.336C371.129 331.324 366.778 332.818 361.466 332.818C355.442 332.818 349.348 330.945 343.182 327.198C337.04 323.451 332.214 318.673 328.704 312.863ZM359.58 325.028C361.478 325.313 362.711 325.455 363.28 325.455C366.149 325.455 368.497 324.649 370.323 323.036C372.149 321.447 373.062 319.396 373.062 316.882C373.062 314.582 372.279 312.673 370.714 311.155C369.173 309.661 367.228 308.914 364.881 308.914C362.723 308.914 360.861 309.732 359.296 311.369C357.731 313.005 356.948 314.961 356.948 317.238C356.948 319.894 357.826 322.491 359.58 325.028ZM336.139 350.675L336.139 369.599L329.273 369.599L329.273 338.154L329.771 338.154L333.293 341.142C339.079 345.814 343.988 349.525 348.02 352.276C352.051 355.05 355.098 356.853 357.162 357.683C359.225 358.536 361.264 358.963 363.28 358.963C366.078 358.963 368.319 358.169 370.003 356.58C371.71 354.991 372.564 352.881 372.564 350.248C372.564 348.256 371.971 346.288 370.785 344.343C369.623 342.423 367.975 340.691 365.841 339.15L374.876 339.15C378.03 343.015 379.607 346.999 379.607 351.102C379.607 355.442 378.161 359.011 375.267 361.809C372.374 364.631 368.699 366.042 364.24 366.042C362.248 366.042 360.114 365.686 357.837 364.975C355.585 364.287 352.976 363.054 350.012 361.275C347.071 359.497 343.051 356.473 337.953 352.205L336.139 350.675ZM328.704 385.713L333.862 381.338C336.186 385.014 338.996 388.227 342.293 390.978C345.613 393.729 349.016 395.566 352.502 396.491C351.102 394.238 350.403 391.594 350.403 388.559C350.403 384.765 351.814 381.504 354.636 378.777C357.458 376.073 360.849 374.721 364.809 374.721C368.936 374.721 372.434 376.168 375.303 379.061C378.172 381.954 379.607 385.488 379.607 389.662C379.607 394.357 377.912 398.199 374.52 401.187C371.129 404.175 366.778 405.669 361.466 405.669C355.442 405.669 349.348 403.795 343.182 400.048C337.04 396.302 332.214 391.523 328.704 385.713ZM359.58 397.879C361.478 398.163 362.711 398.305 363.28 398.305C366.149 398.305 368.497 397.499 370.323 395.887C372.149 394.298 373.062 392.246 373.062 389.733C373.062 387.432 372.279 385.523 370.714 384.006C369.173 382.512 367.228 381.765 364.881 381.765C362.723 381.765 360.861 382.583 359.296 384.219C357.731 385.855 356.948 387.812 356.948 390.088C356.948 392.744 357.826 395.341 359.58 397.879Z" fill="#0D3D35"/>
<path d="M288.444 234.052H318.717V445.514H288.444V234.052ZM599.657 416.3H680.185V445.514H546.375V443.395L559.09 428.409C578.97 403.787 594.762 382.898 606.468 365.743C618.275 348.588 625.944 335.62 629.476 326.841C633.109 318.062 634.926 309.383 634.926 300.806C634.926 288.898 631.545 279.362 624.784 272.197C618.023 264.931 609.042 261.299 597.84 261.299C589.364 261.299 580.988 263.821 572.713 268.867C564.539 273.812 557.173 280.825 550.613 289.907V251.46C567.062 238.038 584.015 231.328 601.473 231.328C619.94 231.328 635.127 237.483 647.035 249.795C659.044 262.106 665.048 277.747 665.048 296.719C665.048 305.195 663.534 314.277 660.507 323.965C657.58 333.552 652.333 344.652 644.764 357.266C637.196 369.779 624.33 386.884 606.166 408.58L599.657 416.3Z" fill="#D02B21"/>
<path d="M438.752 447.936L420.134 425.987C435.775 416.098 449.449 404.14 461.155 390.113C472.861 375.985 480.681 361.504 484.617 346.67C475.03 352.624 463.779 355.601 450.862 355.601C434.716 355.601 420.84 349.597 409.236 337.588C397.732 325.58 391.98 311.149 391.98 294.297C391.98 276.738 398.135 261.854 410.447 249.643C422.758 237.433 437.794 231.328 455.554 231.328C475.535 231.328 491.883 238.543 504.598 252.973C517.312 267.404 523.67 285.921 523.67 308.525C523.67 334.157 515.698 360.092 499.754 386.329C483.81 412.465 463.476 433.001 438.752 447.936ZM490.52 316.548C491.731 308.475 492.337 303.228 492.337 300.806C492.337 288.595 488.906 278.605 482.044 270.835C475.283 263.065 466.554 259.179 455.857 259.179C446.068 259.179 437.945 262.51 431.487 269.17C425.129 275.729 421.95 284.004 421.95 293.994C421.95 303.177 425.432 311.099 432.395 317.759C439.358 324.419 447.683 327.749 457.371 327.749C468.673 327.749 479.723 324.015 490.52 316.548ZM748.754 447.936L730.136 425.987C745.777 416.098 759.451 404.14 771.157 390.113C782.863 375.985 790.683 361.504 794.619 346.67C785.032 352.624 773.781 355.601 760.864 355.601C744.718 355.601 730.842 349.597 719.238 337.588C707.734 325.58 701.982 311.149 701.982 294.297C701.982 276.738 708.137 261.854 720.449 249.643C732.76 237.433 747.796 231.328 765.556 231.328C785.537 231.328 801.885 238.543 814.6 252.973C827.314 267.404 833.672 285.921 833.672 308.525C833.672 334.157 825.7 360.092 809.756 386.329C793.812 412.465 773.478 433.001 748.754 447.936ZM800.522 316.548C801.733 308.475 802.339 303.228 802.339 300.806C802.339 288.595 798.908 278.605 792.046 270.835C785.285 263.065 776.556 259.179 765.859 259.179C756.071 259.179 747.947 262.51 741.489 269.17C735.131 275.729 731.953 284.004 731.953 293.994C731.953 303.177 735.434 311.099 742.397 317.759C749.36 324.419 757.685 327.749 767.373 327.749C778.675 327.749 789.725 324.015 800.522 316.548Z" fill="#0D3D35"/>
<path d="M266.08 438.053L266.08 445.167L216.387 445.167L216.387 438.053L266.08 438.053ZM215.818 473.375L220.975 469C223.299 472.676 226.11 475.889 229.406 478.64C232.726 481.391 236.129 483.229 239.615 484.153C238.216 481.901 237.516 479.256 237.516 476.221C237.516 472.427 238.927 469.166 241.749 466.439C244.571 463.735 247.962 462.384 251.923 462.384C256.049 462.384 259.547 463.83 262.416 466.723C265.286 469.617 266.72 473.15 266.72 477.324C266.72 482.019 265.025 485.861 261.634 488.849C258.243 491.837 253.891 493.331 248.579 493.331C242.555 493.331 236.461 491.457 230.295 487.711C224.153 483.964 219.327 479.185 215.818 473.375ZM246.694 485.541C248.591 485.825 249.824 485.968 250.393 485.968C253.263 485.968 255.61 485.161 257.436 483.549C259.262 481.96 260.175 479.909 260.175 477.395C260.175 475.095 259.393 473.186 257.828 471.668C256.286 470.174 254.342 469.427 251.994 469.427C249.836 469.427 247.974 470.245 246.409 471.881C244.844 473.518 244.061 475.474 244.061 477.751C244.061 480.407 244.939 483.003 246.694 485.541ZM223.252 511.188L223.252 530.112L216.387 530.112L216.387 498.667L216.885 498.667L220.406 501.655C226.193 506.326 231.101 510.038 235.133 512.789C239.164 515.563 242.212 517.365 244.275 518.195C246.338 519.049 248.377 519.476 250.393 519.476C253.191 519.476 255.432 518.682 257.116 517.093C258.824 515.504 259.677 513.393 259.677 510.761C259.677 508.769 259.084 506.801 257.899 504.856C256.737 502.935 255.089 501.204 252.954 499.663L261.989 499.663C265.143 503.528 266.72 507.512 266.72 511.615C266.72 515.954 265.274 519.523 262.381 522.322C259.488 525.144 255.812 526.555 251.354 526.555C249.362 526.555 247.227 526.199 244.951 525.488C242.698 524.8 240.089 523.567 237.125 521.788C234.184 520.01 230.165 516.986 225.066 512.717L223.252 511.188ZM215.818 546.226L220.975 541.85C223.299 545.526 226.11 548.739 229.406 551.49C232.726 554.241 236.129 556.079 239.615 557.004C238.216 554.751 237.516 552.107 237.516 549.071C237.516 545.277 238.927 542.016 241.749 539.289C244.571 536.586 247.962 535.234 251.923 535.234C256.049 535.234 259.547 536.681 262.416 539.574C265.286 542.467 266.72 546 266.72 550.174C266.72 554.87 265.025 558.711 261.634 561.699C258.243 564.687 253.891 566.181 248.579 566.181C242.555 566.181 236.461 564.308 230.295 560.561C224.153 556.814 219.327 552.036 215.818 546.226ZM246.694 558.391C248.591 558.676 249.824 558.818 250.393 558.818C253.263 558.818 255.61 558.012 257.436 556.399C259.262 554.81 260.175 552.759 260.175 550.245C260.175 547.945 259.393 546.036 257.828 544.518C256.286 543.024 254.342 542.277 251.994 542.277C249.836 542.277 247.974 543.095 246.409 544.732C244.844 546.368 244.061 548.324 244.061 550.601C244.061 553.257 244.939 555.854 246.694 558.391Z" fill="#D02B21"/>
<path d="M175.553 394.565H205.827V606.026H175.553V394.565ZM486.766 576.812H567.294V606.026H433.485V603.907L446.199 588.922C466.079 564.299 481.872 543.41 493.578 526.255C505.384 509.1 513.054 496.133 516.586 487.354C520.218 478.574 522.035 469.896 522.035 461.318C522.035 449.411 518.654 439.875 511.893 432.71C505.132 425.444 496.151 421.811 484.95 421.811C476.473 421.811 468.097 424.334 459.823 429.38C451.649 434.324 444.282 441.338 437.723 450.42V411.972C454.171 398.551 471.125 391.84 488.583 391.84C507.049 391.84 522.237 397.996 534.144 410.307C546.153 422.619 552.157 438.26 552.157 457.231C552.157 465.708 550.643 474.79 547.616 484.478C544.69 494.064 539.442 505.165 531.874 517.779C524.305 530.292 511.439 547.396 493.275 569.093L486.766 576.812Z" fill="#0D3D35"/>
<path d="M325.862 608.448L307.243 586.5C322.885 576.61 336.558 564.652 348.264 550.626C359.97 536.498 367.791 522.017 371.726 507.183C362.14 513.137 350.888 516.114 337.971 516.114C321.825 516.114 307.95 510.109 296.345 498.101C284.841 486.092 279.089 471.662 279.089 454.81C279.089 437.251 285.245 422.366 297.556 410.156C309.867 397.946 324.903 391.84 342.664 391.84C362.644 391.84 378.992 399.056 391.707 413.486C404.422 427.916 410.779 446.434 410.779 469.038C410.779 494.67 402.807 520.604 386.863 546.841C370.919 572.978 350.585 593.513 325.862 608.448ZM377.63 477.061C378.841 468.988 379.446 463.74 379.446 461.318C379.446 449.108 376.015 439.118 369.153 431.347C362.392 423.577 353.663 419.692 342.966 419.692C333.178 419.692 325.054 423.022 318.596 429.682C312.239 436.242 309.06 444.517 309.06 454.507C309.06 463.69 312.541 471.611 319.504 478.272C326.467 484.932 334.792 488.262 344.48 488.262C355.782 488.262 366.832 484.528 377.63 477.061ZM635.864 608.448L617.245 586.5C632.887 576.61 646.56 564.652 658.266 550.626C669.972 536.498 677.793 522.017 681.728 507.183C672.142 513.137 660.89 516.114 647.973 516.114C631.827 516.114 617.952 510.109 606.347 498.101C594.843 486.092 589.091 471.662 589.091 454.81C589.091 437.251 595.247 422.366 607.558 410.156C619.869 397.946 634.905 391.84 652.666 391.84C672.646 391.84 688.994 399.056 701.709 413.486C714.424 427.916 720.781 446.434 720.781 469.038C720.781 494.67 712.809 520.604 696.865 546.841C680.921 572.978 660.587 593.513 635.864 608.448ZM687.632 477.061C688.843 468.988 689.448 463.74 689.448 461.318C689.448 449.108 686.017 439.118 679.155 431.347C672.394 423.577 663.665 419.692 652.968 419.692C643.18 419.692 635.056 423.022 628.598 429.682C622.241 436.242 619.062 444.517 619.062 454.507C619.062 463.69 622.543 471.611 629.506 478.272C636.469 484.932 644.794 488.262 654.482 488.262C665.784 488.262 676.834 484.528 687.632 477.061Z" fill="#D02B21"/>
<path d="M153.193 598.566L153.193 605.681L103.5 605.681L103.5 598.566L153.193 598.566ZM102.931 633.889L108.089 629.514C110.413 633.189 113.223 636.403 116.519 639.154C119.839 641.904 123.242 643.742 126.728 644.667C125.329 642.414 124.629 639.77 124.629 636.735C124.629 632.94 126.04 629.68 128.862 626.953C131.684 624.249 135.076 622.897 139.036 622.897C143.162 622.897 146.66 624.344 149.53 627.237C152.399 630.13 153.834 633.664 153.834 637.837C153.834 642.533 152.138 646.375 148.747 649.363C145.356 652.351 141.004 653.845 135.692 653.845C129.669 653.845 123.574 651.971 117.408 648.224C111.266 644.477 106.441 639.699 102.931 633.889ZM133.807 646.054C135.704 646.339 136.937 646.481 137.506 646.481C140.376 646.481 142.724 645.675 144.55 644.062C146.376 642.474 147.289 640.422 147.289 637.909C147.289 635.608 146.506 633.699 144.941 632.182C143.399 630.688 141.455 629.941 139.107 629.941C136.949 629.941 135.088 630.759 133.522 632.395C131.957 634.031 131.175 635.988 131.175 638.264C131.175 640.92 132.052 643.517 133.807 646.054ZM110.365 671.701L110.365 690.626L103.5 690.626L103.5 659.18L103.998 659.18L107.52 662.168C113.306 666.84 118.215 670.551 122.246 673.302C126.278 676.077 129.325 677.879 131.388 678.709C133.451 679.563 135.491 679.99 137.506 679.99C140.305 679.99 142.546 679.195 144.229 677.606C145.937 676.018 146.791 673.907 146.791 671.275C146.791 669.283 146.198 667.314 145.012 665.37C143.85 663.449 142.202 661.718 140.068 660.176L149.103 660.176C152.257 664.042 153.834 668.026 153.834 672.128C153.834 676.468 152.387 680.037 149.494 682.835C146.601 685.657 142.925 687.068 138.467 687.068C136.475 687.068 134.341 686.713 132.064 686.001C129.811 685.314 127.202 684.08 124.238 682.302C121.298 680.523 117.278 677.5 112.179 673.231L110.365 671.701ZM102.931 706.739L108.089 702.364C110.413 706.04 113.223 709.253 116.519 712.004C119.839 714.755 123.242 716.593 126.728 717.518C125.329 715.265 124.629 712.621 124.629 709.585C124.629 705.791 126.04 702.53 128.862 699.803C131.684 697.1 135.076 695.748 139.036 695.748C143.162 695.748 146.66 697.194 149.53 700.088C152.399 702.981 153.834 706.514 153.834 710.688C153.834 715.383 152.138 719.225 148.747 722.213C145.356 725.201 141.004 726.695 135.692 726.695C129.669 726.695 123.574 724.822 117.408 721.075C111.266 717.328 106.441 712.549 102.931 706.739ZM133.807 718.905C135.704 719.189 136.937 719.332 137.506 719.332C140.376 719.332 142.724 718.525 144.55 716.913C146.376 715.324 147.289 713.273 147.289 710.759C147.289 708.459 146.506 706.55 144.941 705.032C143.399 703.538 141.455 702.791 139.107 702.791C136.949 702.791 135.088 703.609 133.522 705.245C131.957 706.882 131.175 708.838 131.175 711.115C131.175 713.771 132.052 716.367 133.807 718.905Z" fill="#0D3D35"/>
<path d="M62.6664 555.079H92.9401V766.54H62.6664V555.079ZM373.879 737.326H454.407V766.54H320.598V764.421L333.313 749.435C353.192 724.813 368.985 703.924 380.691 686.769C392.498 669.614 400.167 656.647 403.699 647.867C407.332 639.088 409.148 630.41 409.148 621.832C409.148 609.924 405.768 600.388 399.006 593.223C392.245 585.958 383.264 582.325 372.063 582.325C363.586 582.325 355.211 584.848 346.936 589.893C338.762 594.838 331.395 601.851 324.836 610.934V572.486C341.285 559.065 358.238 552.354 375.696 552.354C394.163 552.354 409.35 558.51 421.258 570.821C433.266 583.132 439.27 598.774 439.27 617.745C439.27 626.222 437.757 635.304 434.729 644.991C431.803 654.578 426.556 665.678 418.987 678.292C411.419 690.805 398.552 707.91 380.388 729.606L373.879 737.326Z" fill="#D02B21"/>
<path d="M212.975 768.962L194.357 747.014C209.998 737.124 223.672 725.166 235.378 711.139C247.083 697.012 254.904 682.531 258.84 667.697C249.253 673.65 238.001 676.627 225.084 676.627C208.939 676.627 195.063 670.623 183.458 658.615C171.954 646.606 166.202 632.176 166.202 615.323C166.202 597.765 172.358 582.88 184.669 570.67C196.98 558.459 212.016 552.354 229.777 552.354C249.757 552.354 266.105 559.569 278.82 574C291.535 588.43 297.893 606.948 297.893 629.552C297.893 655.184 289.921 681.118 273.976 707.355C258.032 733.491 237.698 754.027 212.975 768.962ZM264.743 637.574C265.954 629.501 266.559 624.254 266.559 621.832C266.559 609.622 263.128 599.631 256.266 591.861C249.505 584.091 240.776 580.206 230.08 580.206C220.291 580.206 212.168 583.536 205.709 590.196C199.352 596.755 196.173 605.03 196.173 615.02C196.173 624.204 199.655 632.125 206.618 638.785C213.58 645.446 221.906 648.776 231.593 648.776C242.895 648.776 253.945 645.042 264.743 637.574ZM522.977 768.962L504.359 747.014C520 737.124 533.674 725.166 545.38 711.139C557.085 697.012 564.906 682.531 568.842 667.697C559.255 673.65 548.003 676.627 535.086 676.627C518.941 676.627 505.065 670.623 493.46 658.615C481.956 646.606 476.204 632.176 476.204 615.323C476.204 597.765 482.36 582.88 494.671 570.67C506.982 558.459 522.018 552.354 539.779 552.354C559.759 552.354 576.107 559.569 588.822 574C601.537 588.43 607.895 606.948 607.895 629.552C607.895 655.184 599.923 681.118 583.978 707.355C568.034 733.491 547.7 754.027 522.977 768.962ZM574.745 637.574C575.956 629.501 576.561 624.254 576.561 621.832C576.561 609.622 573.13 599.631 566.268 591.861C559.507 584.091 550.778 580.206 540.082 580.206C530.293 580.206 522.17 583.536 515.711 590.196C509.354 596.755 506.175 605.03 506.175 615.02C506.175 624.204 509.657 632.125 516.62 638.785C523.583 645.446 531.908 648.776 541.595 648.776C552.897 648.776 563.947 645.042 574.745 637.574Z" fill="#0D3D35"/>
</svg>
