<svg width="135" height="145" viewBox="0 0 135 145" fill="none" xmlns="http://www.w3.org/2000/svg">
<path d="M78.1201 0.000483751C88.1073 0.000483751 98.3089 1.37908 108.725 4.13626C119.018 6.77091 127.658 10.3246 134.642 14.7974L108.633 64.3348C104.957 63.0481 100.944 62.0678 96.5933 61.3938C92.3043 60.7198 87.9541 60.3829 83.5426 60.3829C76.8641 60.3829 71.8705 61.3019 68.5619 63.14C65.3145 64.9782 63.6909 67.6434 63.6909 71.1359C63.6909 74.6283 65.4983 77.3242 69.1133 79.2236C72.7896 81.123 78.0589 82.0727 84.9212 82.0727C89.3327 82.0727 93.5604 81.6438 97.6042 80.786C101.648 79.9282 105.324 78.7028 108.633 77.1098L134.642 130.232C127.412 134.582 118.528 138.105 107.99 140.801C97.6961 143.435 87.709 144.753 78.0282 144.753C62.5267 144.753 48.8633 141.689 37.0381 135.562C25.2128 129.435 16.0835 120.796 9.65002 109.645C3.21659 98.5546 -0.000131369 86.4536 -0.000131369 73.3416C-0.000131369 59.1268 3.46167 46.3518 10.3853 35.0167C17.3089 23.6816 26.7139 15.0118 38.6005 9.00729C50.6095 3.00275 63.7828 0.000483751 78.1201 0.000483751Z" fill="#D02B21"/>
</svg>
