<svg width="426" height="832" viewBox="0 0 426 832" fill="none" xmlns="http://www.w3.org/2000/svg">
<g clip-path="url(#clip0_191_359)">
<rect width="426" height="832" fill="#D02B21"/>
<path d="M118.106 230.43L116.751 238.808H84.9628V239.301C96.0517 245.954 101.596 256.221 101.596 270.103C101.596 279.385 99.1319 287.681 94.2035 294.991C89.2752 302.302 83.7308 307.23 77.5703 309.776C71.492 312.241 63.278 314.212 52.9284 315.691C42.661 317.087 36.0487 318.771 33.0917 320.742C30.2168 322.631 28.7794 324.89 28.7794 327.519C28.7794 330.311 30.1347 332.365 32.8453 333.679C35.6381 334.911 44.4681 337.334 59.3353 340.948C74.2847 344.563 84.5522 348.793 90.1376 353.639C95.8053 358.567 98.6391 364.522 98.6391 371.504C98.6391 380.54 94.2035 388.22 85.3325 394.544C76.5435 400.869 64.1405 404.032 48.1233 404.032C33.6667 404.032 22.4547 401.362 14.4871 396.023C6.51958 390.684 2.53581 383.948 2.53581 375.817C2.53581 362.51 15.4728 352.653 41.3467 346.246V345.754C25.8224 342.632 18.0602 336.924 18.0602 328.627C18.0602 320.167 25.8224 314.499 41.3467 311.625V311.132C25.1653 305.136 17.0745 293.225 17.0745 275.401C17.0745 263.162 21.6743 252.607 30.874 243.736C40.0736 234.865 51.1214 230.43 64.0173 230.43H118.106ZM61.5531 239.794C52.5177 239.794 44.5913 243.367 37.7737 250.513C31.0382 257.659 27.6705 266.119 27.6705 275.894C27.6705 284.026 30.2168 291.049 35.3095 296.963C40.4021 302.877 47.1376 305.834 55.5158 305.834C66.6868 305.834 75.3115 301.809 81.3898 293.759C87.4681 285.71 90.5073 277.29 90.5073 268.501C90.5073 260.205 87.5913 253.347 81.7594 247.925C75.9275 242.504 69.1921 239.794 61.5531 239.794ZM88.0431 372.244C88.0431 364.933 82.6629 359.471 71.9027 355.857C61.1424 352.325 54.7355 350.559 52.682 350.559C46.768 350.559 38.6772 353.023 28.4098 357.951C18.2245 362.88 13.1318 369.41 13.1318 377.542C13.1318 383.045 16.1299 387.439 22.1261 390.725C28.1223 394.011 36.2952 395.653 46.6448 395.653C60.0335 395.653 70.2599 393.477 77.3239 389.123C84.47 384.852 88.0431 379.225 88.0431 372.244ZM147.553 232.647L131.659 346H120.447L136.464 232.647H147.553ZM154.083 183.733L151.249 202.461H140.161L142.994 183.733H154.083ZM199.917 173.877L175.768 346H164.556L188.828 173.877H199.917ZM244.519 173.877L220.37 346H209.158L233.43 173.877H244.519Z" fill="#D02B21"/>
<path d="M54.7733 64.9978H105.22V128.674C86.719 136.705 68.3619 140.721 50.1482 140.721C25.2656 140.721 5.36677 133.479 -9.54841 118.994C-24.3919 104.437 -31.8136 86.51 -31.8136 65.2129C-31.8136 42.7684 -24.105 24.0886 -8.68792 9.17341C6.72921 -5.74177 26.0544 -13.1994 49.2877 -13.1994C57.7492 -13.1994 65.7804 -12.2672 73.3814 -10.4028C80.9824 -8.61008 90.5912 -5.27567 102.208 -0.399558V21.543C84.281 11.1454 66.4975 5.94656 48.8574 5.94656C32.4364 5.94656 18.5968 11.5398 7.33873 22.7261C-3.91936 33.9125 -9.54841 47.6445 -9.54841 63.9222C-9.54841 80.9886 -3.91936 94.9357 7.33873 105.764C18.5968 116.591 33.0818 122.005 50.7935 122.005C59.3984 122.005 69.6885 120.033 81.6636 116.089L83.7073 115.444V84.1437H54.7733V64.9978ZM144.049 -1.58273C147.276 -1.58273 150.037 -0.471265 152.331 1.75167C154.626 3.97461 155.773 6.69949 155.773 9.92634C155.773 13.0815 154.626 15.8064 152.331 18.101C150.037 20.3956 147.276 21.543 144.049 21.543C141.038 21.543 138.384 20.3956 136.09 18.101C133.795 15.7347 132.648 13.0098 132.648 9.92634C132.648 6.91462 133.795 4.26144 136.09 1.96679C138.384 -0.399558 141.038 -1.58273 144.049 -1.58273ZM134.369 40.0435H153.945V139H134.369V40.0435ZM182.771 -11.2633H202.348V139H182.771V-11.2633ZM231.174 -11.2633H250.75V139H231.174V-11.2633Z" fill="#F4EDD2"/>
<path d="M123.985 116.28C129.578 116.28 135.243 116.567 140.98 117.14C146.717 117.642 152.632 118.395 158.728 119.399C164.823 120.403 170.452 121.55 175.615 122.841C180.778 124.132 185.51 125.602 189.813 127.251L171.742 178.988C166.078 171.387 159.767 165.507 152.812 161.348C145.856 157.117 138.578 155.002 130.977 155.002C126.459 155.002 123.196 155.934 121.189 157.799C119.181 159.591 118.177 161.85 118.177 164.575C118.177 167.156 120.113 169.63 123.985 171.997C127.929 174.363 133.988 177.088 142.163 180.171C163.46 187.987 177.228 195.768 183.467 203.512C189.562 211.113 192.609 220.507 192.609 231.693C192.609 249.118 185.976 262.492 172.711 271.814C159.516 281.064 139.833 285.689 113.659 285.689C100.035 285.689 87.0917 284.757 74.8297 282.892C62.5677 281.028 50.5208 277.837 38.689 273.319L56.4367 218.463C61.4562 226.351 67.8023 232.697 75.475 237.502C83.076 242.306 90.4261 244.708 97.5251 244.708C101.039 244.708 103.943 243.848 106.238 242.127C108.604 240.334 109.787 238.111 109.787 235.458C109.787 232.303 108.138 229.578 104.839 227.283C101.612 224.917 96.5571 222.407 89.6731 219.754C72.7501 213.372 61.1335 206.452 54.8232 198.995C48.5847 191.465 45.4654 182.251 45.4654 171.351C45.4654 153.066 52.0625 139.334 65.2567 130.155C78.4509 120.905 98.0271 116.28 123.985 116.28ZM340.506 283H274.033V273.319C269.301 276.833 264.03 279.486 258.222 281.279C252.198 283.143 246.677 284.076 241.657 284.076C231.905 284.076 223.659 280.885 216.918 274.503C210.321 268.049 207.023 259.946 207.023 250.194C207.023 239.223 211.11 230.223 219.285 223.196C227.459 216.097 238.144 212.547 251.338 212.547C255.21 212.547 259.046 212.798 262.847 213.3C266.647 213.802 270.376 214.555 274.033 215.559C274.033 212.476 273.388 209.751 272.097 207.384C270.878 204.946 269.121 202.938 266.827 201.361C264.532 199.712 261.771 198.493 258.545 197.704C255.318 196.843 251.696 196.413 247.681 196.413C241.299 196.413 235.132 197.238 229.18 198.887C226.312 199.676 223.3 200.751 220.145 202.114C217.062 203.405 213.799 204.946 210.357 206.739V167.802C211.576 167.085 213.261 166.224 215.412 165.22C217.564 164.145 220.253 162.926 223.48 161.563C226.706 160.201 230.112 158.982 233.698 157.906C237.355 156.759 241.263 155.791 245.422 155.002C253.668 153.281 263.241 152.42 274.141 152.42C297.374 152.42 314.225 157.404 324.695 167.372C335.236 177.267 340.506 191.573 340.506 210.289V283ZM263.707 257.938C267.723 257.938 271.165 256.755 274.033 254.389V236.318C271.739 235.601 269.803 235.099 268.225 234.812C266.719 234.454 264.998 234.275 263.062 234.275C259.118 234.275 255.927 235.314 253.489 237.394C251.051 239.402 249.832 242.127 249.832 245.569C249.832 249.082 251.159 252.022 253.812 254.389C256.465 256.755 259.764 257.938 263.707 257.938ZM518.305 283H455.489V206.847C455.489 202.114 454.521 198.349 452.585 195.553C450.649 192.756 447.53 191.358 443.227 191.358C441.435 191.358 439.427 191.752 437.204 192.541C434.981 193.33 433.009 194.334 431.288 195.553V283H364.815V153.496H431.288V169.738C437.455 163.499 443.693 159.053 450.004 156.4C456.386 153.747 463.521 152.42 471.408 152.42C486.969 152.42 498.657 156.759 506.473 165.435C514.361 174.112 518.305 186.123 518.305 201.468V283ZM640.28 194.907C635.332 190.39 630.205 186.912 624.899 184.474C619.664 182.036 614.68 180.817 609.948 180.817C606.721 180.817 604.103 181.534 602.096 182.968C600.088 184.33 599.084 186.159 599.084 188.454C599.084 191.896 600.554 194.549 603.494 196.413C605 197.345 607.151 198.277 609.948 199.21C612.816 200.142 616.365 201.074 620.596 202.006C634.149 205.161 644.08 210.073 650.391 216.742C656.701 223.339 659.856 231.693 659.856 241.804C659.856 255.285 654.442 265.826 643.614 273.427C632.786 281.1 618.803 284.936 601.665 284.936C596.502 284.936 591.053 284.613 585.316 283.968C579.579 283.323 573.448 282.39 566.923 281.171C560.398 279.952 554.123 278.447 548.1 276.654C542.076 274.789 536.232 272.71 530.567 270.415L545.411 234.06C549.57 239.94 554.948 244.708 561.545 248.365C568.142 251.951 574.632 253.743 581.014 253.743C584.886 253.743 587.969 252.883 590.264 251.162C592.63 249.441 593.813 247.218 593.813 244.493C593.813 241.123 592.379 238.47 589.511 236.533C586.714 234.597 582.376 232.841 576.496 231.263C560.792 227.176 550 221.654 544.12 214.699C538.168 207.671 535.192 199.963 535.192 191.573C535.192 178.809 540.678 168.806 551.649 161.563C562.692 154.392 578.289 150.807 598.438 150.807C609.481 150.807 619.843 151.739 629.524 153.604C639.276 155.468 648.168 158.229 656.199 161.886L640.28 194.907Z" fill="#F4EDD2"/>
<path d="M52.8578 816.138L18.2115 816.138L18.2115 689.436H52.8578L52.8578 816.138ZM196.379 737.886C196.379 747.455 194.307 757.023 190.163 766.591C186.019 776.159 180.108 785.331 172.429 794.107C164.811 802.883 155.944 810.836 145.827 817.966L114.563 807.728C129.068 795.356 139.794 783.929 146.741 773.447C144.486 774.056 141.683 774.361 138.331 774.361C130.896 774.361 124.07 772.655 117.854 769.242C111.638 765.829 106.671 760.984 102.953 754.707C99.2357 748.369 97.3769 741.208 97.3769 733.224C97.3769 727.374 98.5044 721.736 100.759 716.312C103.014 710.888 106.336 705.983 110.724 701.595C115.111 697.207 120.322 693.794 126.356 691.356C132.389 688.918 139.001 687.7 146.193 687.7C154.237 687.7 161.459 689.071 167.858 691.813C174.257 694.556 179.529 698.304 183.673 703.057C187.878 707.811 191.047 713.174 193.18 719.146C195.313 725.058 196.379 731.305 196.379 737.886ZM163.379 733.773C163.379 728.775 161.855 724.601 158.808 721.249C155.761 717.836 151.86 716.13 147.107 716.13C143.206 716.13 139.976 717.105 137.417 719.055C134.918 720.944 133.09 723.26 131.932 726.002C130.835 728.684 130.286 731.274 130.286 733.773C130.286 739.562 131.901 743.859 135.131 746.662C138.422 749.405 142.231 750.776 146.558 750.776C150.641 750.776 153.932 749.831 156.431 747.942C158.93 746.053 160.697 743.828 161.733 741.269C162.83 738.709 163.379 736.21 163.379 733.773ZM306.626 816.138L210.366 816.138V813.669C214.084 810.074 218.167 805.777 222.616 800.78C227.064 795.783 232.793 789.17 239.802 780.943C243.032 777.225 246.048 773.569 248.852 769.973C251.716 766.377 254.154 762.904 256.165 759.552C258.176 756.139 259.882 752.391 261.284 748.308C262.686 744.225 263.387 740.05 263.387 735.784C263.387 729.933 261.68 725.21 258.267 721.615C254.916 717.958 250.619 716.13 245.378 716.13C235.018 716.13 224.718 721.493 214.48 732.219L214.48 702.326C218.075 700.01 221.031 698.151 223.347 696.75C225.663 695.348 228.314 693.977 231.3 692.636C234.347 691.295 237.943 690.137 242.087 689.162C246.231 688.187 250.71 687.7 255.525 687.7C263.265 687.7 270.304 689.284 276.642 692.453C282.98 695.561 287.947 700.101 291.543 706.074C295.199 711.985 297.027 718.903 297.027 726.825C297.027 732.432 296.205 737.673 294.559 742.549C292.914 747.424 291.207 751.355 289.44 754.341C287.673 757.327 285.326 761.014 282.401 765.402C277.16 773.203 271.553 780.638 265.581 787.708L306.626 787.708L306.626 816.138ZM419.067 782.04C419.067 785.026 418.427 788.439 417.147 792.278C415.928 796.118 413.582 800.018 410.108 803.979C406.634 807.88 401.576 811.171 394.933 813.852C388.29 816.473 379.849 817.783 369.611 817.783C359.19 817.783 350.688 816.473 344.106 813.852C337.524 811.232 332.436 807.941 328.84 803.979C325.305 799.957 322.989 796.118 321.892 792.461C320.795 788.744 320.247 785.27 320.247 782.04C320.247 775.641 322.075 769.607 325.732 763.94C329.388 758.272 334.355 753.884 340.632 750.776C335.513 747.546 331.552 743.859 328.748 739.715C325.945 735.51 324.543 730.147 324.543 723.626C324.543 719.969 325.305 716.099 326.829 712.016C328.413 707.933 330.942 704.002 334.416 700.223C337.951 696.445 342.613 693.428 348.403 691.173C354.253 688.857 361.323 687.7 369.611 687.7C378.265 687.7 385.487 688.857 391.276 691.173C397.066 693.428 401.728 696.445 405.263 700.223C408.798 703.941 411.266 707.811 412.668 711.833C414.069 715.855 414.77 719.786 414.77 723.626C414.77 730.329 413.399 735.692 410.656 739.715C407.975 743.676 403.983 747.363 398.681 750.776C402.886 752.97 406.451 755.651 409.377 758.82C412.363 761.929 414.709 765.524 416.416 769.607C418.183 773.691 419.067 777.835 419.067 782.04ZM382.775 726.094C382.775 722.072 381.769 718.232 379.758 714.576C377.808 710.919 374.547 709.091 369.977 709.091C365.284 709.091 361.871 710.858 359.738 714.393C357.605 717.866 356.539 721.767 356.539 726.094C356.539 731.03 357.849 735.083 360.469 738.252C363.151 741.36 366.198 742.914 369.611 742.914C373.085 742.914 376.132 741.36 378.753 738.252C381.434 735.083 382.775 731.03 382.775 726.094ZM386.523 778.658C386.523 774.757 385.67 771.405 383.963 768.602C382.257 765.738 380.093 763.605 377.473 762.203C374.852 760.74 372.232 760.009 369.611 760.009C365.345 760.009 361.475 761.685 358.001 765.037C354.528 768.389 352.791 772.929 352.791 778.658C352.791 784.813 354.528 789.505 358.001 792.735C361.475 795.965 365.406 797.58 369.794 797.58C374.304 797.58 378.204 795.844 381.495 792.37C384.847 788.896 386.523 784.325 386.523 778.658Z" fill="#0D3D35"/>
<path d="M52.8578 711.854L18.2115 711.854L18.2115 585.152H52.8578L52.8578 711.854ZM196.379 633.602C196.379 643.17 194.307 652.738 190.163 662.307C186.019 671.875 180.108 681.047 172.429 689.822C164.811 698.598 155.944 706.551 145.827 713.682L114.563 703.443C129.068 691.072 139.794 679.645 146.741 669.163C144.486 669.772 141.683 670.077 138.331 670.077C130.896 670.077 124.07 668.37 117.854 664.958C111.638 661.545 106.671 656.7 102.953 650.423C99.2357 644.084 97.3769 636.924 97.3769 628.94C97.3769 623.089 98.5044 617.452 100.759 612.028C103.014 606.604 106.336 601.698 110.724 597.31C115.111 592.923 120.322 589.51 126.356 587.072C132.389 584.634 139.001 583.415 146.193 583.415C154.237 583.415 161.459 584.787 167.858 587.529C174.257 590.271 179.529 594.019 183.673 598.773C187.878 603.527 191.047 608.89 193.18 614.862C195.313 620.774 196.379 627.02 196.379 633.602ZM163.379 629.489C163.379 624.491 161.855 620.317 158.808 616.965C155.761 613.552 151.86 611.845 147.107 611.845C143.206 611.845 139.976 612.821 137.417 614.771C134.918 616.66 133.09 618.976 131.932 621.718C130.835 624.4 130.286 626.99 130.286 629.489C130.286 635.278 131.901 639.575 135.131 642.378C138.422 645.121 142.231 646.492 146.558 646.492C150.641 646.492 153.932 645.547 156.431 643.658C158.93 641.769 160.697 639.544 161.733 636.985C162.83 634.425 163.379 631.926 163.379 629.489ZM306.626 711.854L210.366 711.854V709.385C214.084 705.79 218.167 701.493 222.616 696.496C227.064 691.498 232.793 684.886 239.802 676.659C243.032 672.941 246.048 669.285 248.852 665.689C251.716 662.093 254.154 658.619 256.165 655.268C258.176 651.855 259.882 648.107 261.284 644.024C262.686 639.94 263.387 635.766 263.387 631.5C263.387 625.649 261.68 620.926 258.267 617.33C254.916 613.674 250.619 611.845 245.378 611.845C235.018 611.845 224.718 617.208 214.48 627.934L214.48 598.042C218.075 595.726 221.031 593.867 223.347 592.465C225.663 591.064 228.314 589.693 231.3 588.352C234.347 587.011 237.943 585.853 242.087 584.878C246.231 583.903 250.71 583.415 255.525 583.415C263.265 583.415 270.304 585 276.642 588.169C282.98 591.277 287.947 595.817 291.543 601.79C295.199 607.701 297.027 614.618 297.027 622.541C297.027 628.148 296.205 633.389 294.559 638.264C292.914 643.14 291.207 647.071 289.44 650.057C287.673 653.043 285.326 656.73 282.401 661.118C277.16 668.919 271.553 676.354 265.581 683.423L306.626 683.423L306.626 711.854ZM419.067 677.756C419.067 680.742 418.427 684.155 417.147 687.994C415.928 691.834 413.582 695.734 410.108 699.695C406.634 703.596 401.576 706.887 394.933 709.568C388.29 712.189 379.849 713.499 369.611 713.499C359.19 713.499 350.688 712.189 344.106 709.568C337.524 706.948 332.436 703.657 328.84 699.695C325.305 695.673 322.989 691.834 321.892 688.177C320.795 684.459 320.247 680.986 320.247 677.756C320.247 671.357 322.075 665.323 325.732 659.656C329.388 653.988 334.355 649.6 340.632 646.492C335.513 643.262 331.552 639.575 328.748 635.431C325.945 631.225 324.543 625.862 324.543 619.341C324.543 615.685 325.305 611.815 326.829 607.732C328.413 603.649 330.942 599.718 334.416 595.939C337.951 592.161 342.613 589.144 348.403 586.889C354.253 584.573 361.323 583.415 369.611 583.415C378.265 583.415 385.487 584.573 391.276 586.889C397.066 589.144 401.728 592.161 405.263 595.939C408.798 599.657 411.266 603.527 412.668 607.549C414.069 611.571 414.77 615.502 414.77 619.341C414.77 626.045 413.399 631.408 410.656 635.431C407.975 639.392 403.983 643.079 398.681 646.492C402.886 648.686 406.451 651.367 409.377 654.536C412.363 657.644 414.709 661.24 416.416 665.323C418.183 669.406 419.067 673.551 419.067 677.756ZM382.775 621.81C382.775 617.787 381.769 613.948 379.758 610.291C377.808 606.635 374.547 604.806 369.977 604.806C365.284 604.806 361.871 606.574 359.738 610.109C357.605 613.582 356.539 617.483 356.539 621.81C356.539 626.746 357.849 630.799 360.469 633.968C363.151 637.076 366.198 638.63 369.611 638.63C373.085 638.63 376.132 637.076 378.753 633.968C381.434 630.799 382.775 626.746 382.775 621.81ZM386.523 674.373C386.523 670.473 385.67 667.121 383.963 664.318C382.257 661.453 380.093 659.32 377.473 657.919C374.852 656.456 372.232 655.725 369.611 655.725C365.345 655.725 361.475 657.401 358.001 660.752C354.528 664.104 352.791 668.645 352.791 674.373C352.791 680.529 354.528 685.221 358.001 688.451C361.475 691.681 365.406 693.296 369.794 693.296C374.304 693.296 378.204 691.559 381.495 688.086C384.847 684.612 386.523 680.041 386.523 674.373Z" fill="#0D3D35"/>
<path d="M52.8578 607.569L18.2115 607.569L18.2115 480.868L52.8578 480.868L52.8578 607.569ZM196.379 529.318C196.379 538.886 194.307 548.454 190.163 558.022C186.019 567.59 180.108 576.762 172.429 585.538C164.811 594.314 155.944 602.267 145.827 609.398L114.563 599.159C129.068 586.788 139.794 575.361 146.741 564.878C144.486 565.488 141.683 565.793 138.331 565.793C130.896 565.793 124.07 564.086 117.854 560.673C111.638 557.261 106.671 552.416 102.953 546.138C99.2357 539.8 97.3769 532.639 97.3769 524.656C97.3769 518.805 98.5044 513.168 100.759 507.744C103.014 502.32 106.336 497.414 110.724 493.026C115.111 488.638 120.322 485.226 126.356 482.788C132.389 480.35 139.001 479.131 146.193 479.131C154.237 479.131 161.459 480.502 167.858 483.245C174.257 485.987 179.529 489.735 183.673 494.489C187.878 499.242 191.047 504.605 193.18 510.578C195.313 516.489 196.379 522.736 196.379 529.318ZM163.379 525.204C163.379 520.207 161.855 516.032 158.808 512.68C155.761 509.268 151.86 507.561 147.107 507.561C143.206 507.561 139.976 508.536 137.417 510.487C134.918 512.376 133.09 514.692 131.932 517.434C130.835 520.116 130.286 522.706 130.286 525.204C130.286 530.994 131.901 535.29 135.131 538.094C138.422 540.836 142.231 542.208 146.558 542.208C150.641 542.208 153.932 541.263 156.431 539.374C158.93 537.484 160.697 535.26 161.733 532.7C162.83 530.141 163.379 527.642 163.379 525.204ZM306.626 607.569L210.366 607.569V605.101C214.084 601.505 218.167 597.209 222.616 592.212C227.064 587.214 232.793 580.602 239.802 572.375C243.032 568.657 246.048 565 248.852 561.405C251.716 557.809 254.154 554.335 256.165 550.983C258.176 547.571 259.882 543.823 261.284 539.739C262.686 535.656 263.387 531.482 263.387 527.215C263.387 521.365 261.68 516.642 258.267 513.046C254.916 509.39 250.619 507.561 245.378 507.561C235.018 507.561 224.718 512.924 214.48 523.65L214.48 493.758C218.075 491.442 221.031 489.583 223.347 488.181C225.663 486.78 228.314 485.408 231.3 484.068C234.347 482.727 237.943 481.569 242.087 480.594C246.231 479.619 250.71 479.131 255.525 479.131C263.265 479.131 270.304 480.716 276.642 483.885C282.98 486.993 287.947 491.533 291.543 497.506C295.199 503.417 297.027 510.334 297.027 518.257C297.027 523.864 296.205 529.105 294.559 533.98C292.914 538.856 291.207 542.787 289.44 545.773C287.673 548.759 285.326 552.446 282.401 556.834C277.16 564.635 271.553 572.07 265.581 579.139L306.626 579.139L306.626 607.569ZM419.067 573.472C419.067 576.458 418.427 579.871 417.147 583.71C415.928 587.549 413.582 591.45 410.108 595.411C406.634 599.312 401.576 602.602 394.933 605.284C388.29 607.905 379.849 609.215 369.611 609.215C359.19 609.215 350.688 607.905 344.106 605.284C337.524 602.663 332.436 599.372 328.84 595.411C325.305 591.389 322.989 587.549 321.892 583.893C320.795 580.175 320.247 576.702 320.247 573.472C320.247 567.072 322.075 561.039 325.732 555.371C329.388 549.704 334.355 545.316 340.632 542.208C335.513 538.978 331.552 535.29 328.748 531.146C325.945 526.941 324.543 521.578 324.543 515.057C324.543 511.401 325.305 507.531 326.829 503.448C328.413 499.364 330.942 495.434 334.416 491.655C337.951 487.877 342.613 484.86 348.403 482.605C354.253 480.289 361.323 479.131 369.611 479.131C378.265 479.131 385.487 480.289 391.276 482.605C397.066 484.86 401.728 487.877 405.263 491.655C408.798 495.373 411.266 499.242 412.668 503.265C414.069 507.287 414.77 511.218 414.77 515.057C414.77 521.761 413.399 527.124 410.656 531.146C407.975 535.108 403.983 538.795 398.681 542.208C402.886 544.402 406.451 547.083 409.377 550.252C412.363 553.36 414.709 556.956 416.416 561.039C418.183 565.122 419.067 569.266 419.067 573.472ZM382.775 517.525C382.775 513.503 381.769 509.664 379.758 506.007C377.808 502.351 374.547 500.522 369.977 500.522C365.284 500.522 361.871 502.29 359.738 505.824C357.605 509.298 356.539 513.199 356.539 517.525C356.539 522.462 357.849 526.515 360.469 529.684C363.151 532.792 366.198 534.346 369.611 534.346C373.085 534.346 376.132 532.792 378.753 529.684C381.434 526.515 382.775 522.462 382.775 517.525ZM386.523 570.089C386.523 566.189 385.67 562.837 383.963 560.033C382.257 557.169 380.093 555.036 377.473 553.634C374.852 552.172 372.232 551.44 369.611 551.44C365.345 551.44 361.475 553.116 358.001 556.468C354.528 559.82 352.791 564.36 352.791 570.089C352.791 576.244 354.528 580.937 358.001 584.167C361.475 587.397 365.406 589.012 369.794 589.012C374.304 589.012 378.204 587.275 381.495 583.801C384.847 580.328 386.523 575.757 386.523 570.089Z" fill="#0D3D35"/>
<path d="M52.8578 503.285L18.2115 503.285L18.2115 376.584L52.8578 376.584L52.8578 503.285ZM196.379 425.034C196.379 434.602 194.307 444.17 190.163 453.738C186.019 463.306 180.108 472.478 172.429 481.254C164.811 490.03 155.944 497.983 145.827 505.113L114.563 494.875C129.068 482.503 139.794 471.077 146.741 460.594C144.486 461.204 141.683 461.508 138.331 461.508C130.896 461.508 124.07 459.802 117.854 456.389C111.638 452.976 106.671 448.131 102.953 441.854C99.2357 435.516 97.3769 428.355 97.3769 420.372C97.3769 414.521 98.5044 408.884 100.759 403.46C103.014 398.036 106.336 393.13 110.724 388.742C115.111 384.354 120.322 380.941 126.356 378.504C132.389 376.066 139.001 374.847 146.193 374.847C154.237 374.847 161.459 376.218 167.858 378.961C174.257 381.703 179.529 385.451 183.673 390.205C187.878 394.958 191.047 400.321 193.18 406.294C195.313 412.205 196.379 418.452 196.379 425.034ZM163.379 420.92C163.379 415.923 161.855 411.748 158.808 408.396C155.761 404.983 151.86 403.277 147.107 403.277C143.206 403.277 139.976 404.252 137.417 406.202C134.918 408.092 133.09 410.407 131.932 413.15C130.835 415.831 130.286 418.421 130.286 420.92C130.286 426.71 131.901 431.006 135.131 433.81C138.422 436.552 142.231 437.923 146.558 437.923C150.641 437.923 153.932 436.979 156.431 435.09C158.93 433.2 160.697 430.976 161.733 428.416C162.83 425.857 163.379 423.358 163.379 420.92ZM306.626 503.285L210.366 503.285V500.817C214.084 497.221 218.167 492.925 222.616 487.927C227.064 482.93 232.793 476.318 239.802 468.09C243.032 464.373 246.048 460.716 248.852 457.121C251.716 453.525 254.154 450.051 256.165 446.699C258.176 443.286 259.882 439.538 261.284 435.455C262.686 431.372 263.387 427.197 263.387 422.931C263.387 417.081 261.68 412.358 258.267 408.762C254.916 405.105 250.619 403.277 245.378 403.277C235.018 403.277 224.718 408.64 214.48 419.366L214.48 389.473C218.075 387.158 221.031 385.299 223.347 383.897C225.663 382.495 228.314 381.124 231.3 379.783C234.347 378.443 237.943 377.285 242.087 376.31C246.231 375.335 250.71 374.847 255.525 374.847C263.265 374.847 270.304 376.432 276.642 379.601C282.98 382.709 287.947 387.249 291.543 393.221C295.199 399.133 297.027 406.05 297.027 413.973C297.027 419.579 296.205 424.821 294.559 429.696C292.914 434.571 291.207 438.502 289.44 441.489C287.673 444.475 285.326 448.162 282.401 452.55C277.16 460.351 271.553 467.786 265.581 474.855L306.626 474.855L306.626 503.285ZM419.067 469.187C419.067 472.174 418.427 475.586 417.147 479.426C415.928 483.265 413.582 487.166 410.108 491.127C406.634 495.027 401.576 498.318 394.933 501C388.29 503.62 379.849 504.931 369.611 504.931C359.19 504.931 350.688 503.62 344.106 501C337.524 498.379 332.436 495.088 328.84 491.127C325.305 487.105 322.989 483.265 321.892 479.609C320.795 475.891 320.247 472.417 320.247 469.187C320.247 462.788 322.075 456.755 325.732 451.087C329.388 445.419 334.355 441.031 340.632 437.923C335.513 434.693 331.552 431.006 328.748 426.862C325.945 422.657 324.543 417.294 324.543 410.773C324.543 407.117 325.305 403.247 326.829 399.163C328.413 395.08 330.942 391.149 334.416 387.371C337.951 383.592 342.613 380.576 348.403 378.321C354.253 376.005 361.323 374.847 369.611 374.847C378.265 374.847 385.487 376.005 391.276 378.321C397.066 380.576 401.728 383.592 405.263 387.371C408.798 391.088 411.266 394.958 412.668 398.981C414.069 403.003 414.77 406.934 414.77 410.773C414.77 417.477 413.399 422.84 410.656 426.862C407.975 430.823 403.983 434.511 398.681 437.923C402.886 440.117 406.451 442.799 409.377 445.968C412.363 449.076 414.709 452.672 416.416 456.755C418.183 460.838 419.067 464.982 419.067 469.187ZM382.775 413.241C382.775 409.219 381.769 405.38 379.758 401.723C377.808 398.066 374.547 396.238 369.977 396.238C365.284 396.238 361.871 398.005 359.738 401.54C357.605 405.014 356.539 408.914 356.539 413.241C356.539 418.178 357.849 422.23 360.469 425.4C363.151 428.508 366.198 430.062 369.611 430.062C373.085 430.062 376.132 428.508 378.753 425.4C381.434 422.23 382.775 418.178 382.775 413.241ZM386.523 465.805C386.523 461.905 385.67 458.553 383.963 455.749C382.257 452.885 380.093 450.752 377.473 449.35C374.852 447.888 372.232 447.156 369.611 447.156C365.345 447.156 361.475 448.832 358.001 452.184C354.528 455.536 352.791 460.076 352.791 465.805C352.791 471.96 354.528 476.653 358.001 479.883C361.475 483.113 365.406 484.728 369.794 484.728C374.304 484.728 378.204 482.991 381.495 479.517C384.847 476.043 386.523 471.473 386.523 465.805Z" fill="#0D3D35"/>
<path d="M52.8578 399L18.2115 399L18.2115 272.299L52.8578 272.299L52.8578 399ZM196.379 320.749C196.379 330.317 194.307 339.885 190.163 349.453C186.019 359.021 180.108 368.193 172.429 376.969C164.811 385.745 155.944 393.698 145.827 400.828L114.563 390.59C129.068 378.218 139.794 366.791 146.741 356.309C144.486 356.919 141.683 357.223 138.331 357.223C130.896 357.223 124.07 355.517 117.854 352.104C111.638 348.691 106.671 343.846 102.953 337.569C99.2357 331.231 97.3769 324.07 97.3769 316.087C97.3769 310.236 98.5044 304.599 100.759 299.175C103.014 293.751 106.336 288.845 110.724 284.457C115.111 280.069 120.322 276.656 126.356 274.218C132.389 271.781 139.001 270.562 146.193 270.562C154.237 270.562 161.459 271.933 167.858 274.676C174.257 277.418 179.529 281.166 183.673 285.92C187.878 290.673 191.047 296.036 193.18 302.009C195.313 307.92 196.379 314.167 196.379 320.749ZM163.379 316.635C163.379 311.638 161.855 307.463 158.808 304.111C155.761 300.698 151.86 298.992 147.107 298.992C143.206 298.992 139.976 299.967 137.417 301.917C134.918 303.806 133.09 306.122 131.932 308.865C130.835 311.546 130.286 314.136 130.286 316.635C130.286 322.425 131.901 326.721 135.131 329.525C138.422 332.267 142.231 333.638 146.558 333.638C150.641 333.638 153.932 332.694 156.431 330.804C158.93 328.915 160.697 326.691 161.733 324.131C162.83 321.571 163.379 319.073 163.379 316.635ZM306.626 399L210.366 399V396.532C214.084 392.936 218.167 388.64 222.616 383.642C227.064 378.645 232.793 372.033 239.802 363.805C243.032 360.088 246.048 356.431 248.852 352.835C251.716 349.24 254.154 345.766 256.165 342.414C258.176 339.001 259.882 335.253 261.284 331.17C262.686 327.087 263.387 322.912 263.387 318.646C263.387 312.796 261.68 308.072 258.267 304.477C254.916 300.82 250.619 298.992 245.378 298.992C235.018 298.992 224.718 304.355 214.48 315.081L214.48 285.188C218.075 282.872 221.031 281.014 223.347 279.612C225.663 278.21 228.314 276.839 231.3 275.498C234.347 274.157 237.943 273 242.087 272.024C246.231 271.049 250.71 270.562 255.525 270.562C263.265 270.562 270.304 272.146 276.642 275.315C282.98 278.424 287.947 282.964 291.543 288.936C295.199 294.848 297.027 301.765 297.027 309.687C297.027 315.294 296.205 320.535 294.559 325.411C292.914 330.286 291.207 334.217 289.44 337.203C287.673 340.19 285.326 343.877 282.401 348.265C277.16 356.065 271.553 363.5 265.581 370.57L306.626 370.57L306.626 399ZM419.067 364.902C419.067 367.888 418.427 371.301 417.147 375.141C415.928 378.98 413.582 382.88 410.108 386.842C406.634 390.742 401.576 394.033 394.933 396.715C388.29 399.335 379.849 400.645 369.611 400.645C359.19 400.645 350.688 399.335 344.106 396.715C337.524 394.094 332.436 390.803 328.84 386.842C325.305 382.82 322.989 378.98 321.892 375.323C320.795 371.606 320.247 368.132 320.247 364.902C320.247 358.503 322.075 352.47 325.732 346.802C329.388 341.134 334.355 336.746 340.632 333.638C335.513 330.408 331.552 326.721 328.748 322.577C325.945 318.372 324.543 313.009 324.543 306.488C324.543 302.831 325.305 298.961 326.829 294.878C328.413 290.795 330.942 286.864 334.416 283.086C337.951 279.307 342.613 276.291 348.403 274.036C354.253 271.72 361.323 270.562 369.611 270.562C378.265 270.562 385.487 271.72 391.276 274.036C397.066 276.291 401.728 279.307 405.263 283.086C408.798 286.803 411.266 290.673 412.668 294.695C414.069 298.718 414.77 302.649 414.77 306.488C414.77 313.192 413.399 318.555 410.656 322.577C407.975 326.538 403.983 330.225 398.681 333.638C402.886 335.832 406.451 338.514 409.377 341.683C412.363 344.791 414.709 348.387 416.416 352.47C418.183 356.553 419.067 360.697 419.067 364.902ZM382.775 308.956C382.775 304.934 381.769 301.094 379.758 297.438C377.808 293.781 374.547 291.953 369.977 291.953C365.284 291.953 361.871 293.72 359.738 297.255C357.605 300.729 356.539 304.629 356.539 308.956C356.539 313.893 357.849 317.945 360.469 321.114C363.151 324.222 366.198 325.777 369.611 325.777C373.085 325.777 376.132 324.222 378.753 321.114C381.434 317.945 382.775 313.893 382.775 308.956ZM386.523 361.52C386.523 357.619 385.67 354.268 383.963 351.464C382.257 348.6 380.093 346.467 377.473 345.065C374.852 343.602 372.232 342.871 369.611 342.871C365.345 342.871 361.475 344.547 358.001 347.899C354.528 351.251 352.791 355.791 352.791 361.52C352.791 367.675 354.528 372.368 358.001 375.598C361.475 378.828 365.406 380.443 369.794 380.443C374.304 380.443 378.204 378.706 381.495 375.232C384.847 371.758 386.523 367.188 386.523 361.52Z" fill="#0D3D35"/>
</g>
<defs>
<clipPath id="clip0_191_359">
<rect width="426" height="832" fill="white"/>
</clipPath>
</defs>
</svg>
