<svg width="1404" height="214" viewBox="0 0 1404 214" fill="none" xmlns="http://www.w3.org/2000/svg">
<path d="M66.867 57.4315H32.4824V87H9.63405V11.1748H32.4824V39.0632H66.867V11.1748H89.7154V87H66.867V57.4315ZM135.05 30.3271C156.33 30.3271 166.97 42.8713 166.97 59.1115C166.97 75.3518 156.33 88.008 135.05 88.008C113.77 88.008 103.129 75.3518 103.129 59.1115C103.129 42.8713 113.77 30.3271 135.05 30.3271ZM135.05 44.9993C127.658 44.9993 123.85 50.5994 123.85 59.1115C123.85 67.6237 127.658 73.3358 135.05 73.3358C142.442 73.3358 146.25 67.6237 146.25 59.1115C146.25 50.5994 142.442 44.9993 135.05 44.9993ZM234.244 60.0076V63.9276H195.043C196.499 70.8717 203.332 75.4638 210.836 75.4638C218.34 75.4638 225.844 73.1118 232.788 69.8637V82.0719C229.876 83.6399 221.476 88.008 206.692 88.008C185.411 88.008 174.771 75.0158 174.771 58.8875C174.771 42.7593 185.411 30.3271 206.692 30.3271C219.124 30.3271 234.244 37.6072 234.244 60.0076ZM194.483 54.1835H215.764C215.764 47.1273 212.068 42.4233 205.46 42.4233C199.076 42.4233 194.483 47.1273 194.483 54.1835ZM277.094 11.1748H296.806V39.2872C303.75 31.8951 310.246 30.3271 316.518 30.3271C328.614 30.3271 336.567 36.7112 336.567 52.8394V87H316.854V58.1035C316.854 57.6555 318.31 45.5593 308.79 45.5593C302.966 45.5593 299.046 50.9354 296.806 54.2955V87H277.094V11.1748ZM405.419 60.0076V63.9276H366.218C367.674 70.8717 374.506 75.4638 382.01 75.4638C389.515 75.4638 397.019 73.1118 403.963 69.8637V82.0719C401.051 83.6399 392.651 88.008 377.866 88.008C356.586 88.008 345.946 75.0158 345.946 58.8875C345.946 42.7593 356.586 30.3271 377.866 30.3271C390.299 30.3271 405.419 37.6072 405.419 60.0076ZM365.658 54.1835H386.938C386.938 47.1273 383.242 42.4233 376.634 42.4233C370.25 42.4233 365.658 47.1273 365.658 54.1835ZM457.466 31.3351V44.9993H438.65V62.8076C438.65 67.5117 438.65 72.3278 446.602 72.3278C450.858 72.3278 454.554 70.6477 458.922 68.4077V83.7519C455.338 85.544 447.386 88.008 440.218 88.008C425.546 88.008 418.938 80.5039 418.938 67.1757V44.9993H409.978V41.5273L436.41 14.6468H438.65V31.3351H457.466ZM556.77 31.3351V43.2073H547.026C549.154 44.9993 552.178 48.4714 552.178 54.1835C552.178 63.3676 544.45 71.5437 530.114 72.3278C527.538 72.4398 523.281 72.9998 523.281 76.0238C523.281 78.7119 525.746 78.8239 533.25 79.4959C538.85 79.9439 554.642 81.1759 554.642 95.6241C554.642 105.704 547.362 113.32 526.082 113.32C505.137 113.32 497.297 106.936 497.297 98.6482C497.297 96.4082 498.305 88.568 510.513 87C507.825 85.992 505.697 82.9679 505.697 79.9439C505.697 77.0318 507.489 71.7677 514.209 70.5357C507.041 68.7437 498.865 63.0316 498.865 52.6154C498.865 37.6072 511.073 31.3351 526.194 31.3351H556.77ZM516.001 52.8394C516.001 57.5435 519.473 61.6876 525.186 61.6876C530.898 61.6876 535.042 57.5435 535.042 52.6154C535.042 46.7913 530.114 43.3193 525.746 43.3193C519.137 43.3193 516.001 48.8074 516.001 52.8394ZM526.978 91.5921C517.905 91.5921 514.097 93.3841 514.097 97.6402C514.097 103.912 524.289 103.912 526.642 103.912C533.698 103.912 538.962 101.896 538.962 97.4162C538.962 91.8161 529.666 91.5921 526.978 91.5921ZM621 60.0076V63.9276H581.8C583.256 70.8717 590.088 75.4638 597.592 75.4638C605.096 75.4638 612.6 73.1118 619.544 69.8637V82.0719C616.632 83.6399 608.232 88.008 593.448 88.008C572.168 88.008 561.527 75.0158 561.527 58.8875C561.527 42.7593 572.168 30.3271 593.448 30.3271C605.88 30.3271 621 37.6072 621 60.0076ZM581.24 54.1835H602.52C602.52 47.1273 598.824 42.4233 592.216 42.4233C585.832 42.4233 581.24 47.1273 581.24 54.1835ZM632.019 87V11.1748H651.731V34.5831C654.083 32.7911 659.347 30.3271 666.627 30.3271C685.331 30.3271 693.284 45.1113 693.284 59.5595C693.284 80.0559 679.171 88.008 667.971 88.008C658.451 88.008 653.971 83.8639 651.731 81.9599V87H632.019ZM651.731 48.0234V69.3037C653.635 71.0957 656.771 73.2238 661.699 73.2238C664.499 73.2238 672.563 71.7677 672.563 59.1115C672.563 48.9194 666.963 44.4393 661.699 44.4393C657.331 44.4393 653.411 46.9033 651.731 48.0234ZM703.332 31.3351H723.045V44.7753C724.837 39.8472 731.109 30.3271 740.629 30.3271C745.781 30.3271 748.917 32.2311 752.389 34.3591L745.109 54.0715C742.085 51.1594 739.509 49.8154 736.037 49.8154C730.997 49.8154 726.965 52.2794 723.045 63.0316V87H703.332V31.3351ZM815.837 87H796.125V79.0479C790.973 84.648 785.261 88.008 776.413 88.008C755.692 88.008 756.364 69.0797 756.364 64.0396V31.3351H776.077V60.2316C776.077 63.8156 775.629 72.7758 784.141 72.7758C790.861 72.7758 794.669 66.1677 796.125 64.0396V31.3351H815.837V87ZM829.361 31.3351H849.073V87H829.361V31.3351ZM839.217 10.1667C843.809 10.1667 847.505 13.8628 847.505 18.4549C847.505 23.0469 843.809 26.743 839.217 26.743C834.625 26.743 830.929 23.0469 830.929 18.4549C830.929 13.8628 834.625 10.1667 839.217 10.1667ZM862.476 11.1748H882.412V55.6395L901.9 31.3351H925.533L903.804 57.3195L928.781 87H903.804L882.412 60.5676V87H862.476V11.1748ZM975.912 31.3351V44.9993H957.096V62.8076C957.096 67.5117 957.096 72.3278 965.048 72.3278C969.304 72.3278 973 70.6477 977.368 68.4077V83.7519C973.784 85.544 965.832 88.008 958.664 88.008C943.992 88.008 937.384 80.5039 937.384 67.1757V44.9993H928.424V41.5273L954.856 14.6468H957.096V31.3351H975.912ZM1013.73 31.3351H1033.66L1043.86 59.4475L1054.72 31.3351H1067.26L1078.24 59.4475L1088.1 31.3351H1107.81L1085.86 87H1073.42L1060.99 56.6475L1048.67 87H1036.24L1013.73 31.3351ZM1142.85 30.3271C1164.13 30.3271 1174.77 42.8713 1174.77 59.1115C1174.77 75.3518 1164.13 88.008 1142.85 88.008C1121.57 88.008 1110.93 75.3518 1110.93 59.1115C1110.93 42.8713 1121.57 30.3271 1142.85 30.3271ZM1142.85 44.9993C1135.46 44.9993 1131.65 50.5994 1131.65 59.1115C1131.65 67.6237 1135.46 73.3358 1142.85 73.3358C1150.24 73.3358 1154.05 67.6237 1154.05 59.1115C1154.05 50.5994 1150.24 44.9993 1142.85 44.9993ZM1184.81 31.3351H1204.52V44.7753C1206.31 39.8472 1212.59 30.3271 1222.11 30.3271C1227.26 30.3271 1230.39 32.2311 1233.87 34.3591L1226.59 54.0715C1223.56 51.1594 1220.99 49.8154 1217.51 49.8154C1212.47 49.8154 1208.44 52.2794 1204.52 63.0316V87H1184.81V31.3351ZM1294.26 87H1274.54V81.9599C1272.3 83.8639 1267.82 88.008 1258.3 88.008C1247.1 88.008 1232.99 80.0559 1232.99 59.5595C1232.99 45.1113 1240.94 30.3271 1259.65 30.3271C1268.16 30.3271 1271.97 32.9031 1274.54 34.5831V11.1748H1294.26V87ZM1274.54 48.0234C1271.52 46.3433 1268.72 44.4393 1264.58 44.4393C1258.53 44.4393 1253.71 49.8154 1253.71 59.1115C1253.71 69.8637 1259.65 73.2238 1264.58 73.2238C1270.18 73.2238 1273.2 70.4237 1274.54 69.3037V48.0234ZM1349.11 31.3351V44.9993H1330.29V62.8076C1330.29 67.5117 1330.29 72.3278 1338.24 72.3278C1342.5 72.3278 1346.19 70.6477 1350.56 68.4077V83.7519C1346.98 85.544 1339.03 88.008 1331.86 88.008C1317.19 88.008 1310.58 80.5039 1310.58 67.1757V44.9993H1301.62V41.5273L1328.05 14.6468H1330.29V31.3351H1349.11Z" fill="#F4EDD2" fill-opacity="0.2"/>
<path d="M89.867 95.4315H55.4824V125H32.634V49.1748H55.4824V77.0632H89.867V49.1748H112.715V125H89.867V95.4315ZM158.05 68.3271C179.33 68.3271 189.97 80.8713 189.97 97.1115C189.97 113.352 179.33 126.008 158.05 126.008C136.77 126.008 126.129 113.352 126.129 97.1115C126.129 80.8713 136.77 68.3271 158.05 68.3271ZM158.05 82.9993C150.658 82.9993 146.85 88.5994 146.85 97.1115C146.85 105.624 150.658 111.336 158.05 111.336C165.442 111.336 169.25 105.624 169.25 97.1115C169.25 88.5994 165.442 82.9993 158.05 82.9993ZM257.244 98.0076V101.928H218.043C219.499 108.872 226.332 113.464 233.836 113.464C241.34 113.464 248.844 111.112 255.788 107.864V120.072C252.876 121.64 244.476 126.008 229.692 126.008C208.411 126.008 197.771 113.016 197.771 96.8875C197.771 80.7593 208.411 68.3271 229.692 68.3271C242.124 68.3271 257.244 75.6072 257.244 98.0076ZM217.483 92.1835H238.764C238.764 85.1273 235.068 80.4233 228.46 80.4233C222.076 80.4233 217.483 85.1273 217.483 92.1835ZM300.094 49.1748H319.806V77.2872C326.75 69.8951 333.246 68.3271 339.518 68.3271C351.614 68.3271 359.567 74.7112 359.567 90.8394V125H339.854V96.1035C339.854 95.6555 341.31 83.5593 331.79 83.5593C325.966 83.5593 322.046 88.9354 319.806 92.2955V125H300.094V49.1748ZM428.419 98.0076V101.928H389.218C390.674 108.872 397.506 113.464 405.01 113.464C412.515 113.464 420.019 111.112 426.963 107.864V120.072C424.051 121.64 415.651 126.008 400.866 126.008C379.586 126.008 368.946 113.016 368.946 96.8875C368.946 80.7593 379.586 68.3271 400.866 68.3271C413.299 68.3271 428.419 75.6072 428.419 98.0076ZM388.658 92.1835H409.938C409.938 85.1273 406.242 80.4233 399.634 80.4233C393.25 80.4233 388.658 85.1273 388.658 92.1835ZM480.466 69.3351V82.9993H461.65V100.808C461.65 105.512 461.65 110.328 469.602 110.328C473.858 110.328 477.554 108.648 481.922 106.408V121.752C478.338 123.544 470.386 126.008 463.218 126.008C448.546 126.008 441.938 118.504 441.938 105.176V82.9993H432.978V79.5273L459.41 52.6468H461.65V69.3351H480.466ZM579.77 69.3351V81.2073H570.026C572.154 82.9993 575.178 86.4714 575.178 92.1835C575.178 101.368 567.45 109.544 553.114 110.328C550.538 110.44 546.281 111 546.281 114.024C546.281 116.712 548.746 116.824 556.25 117.496C561.85 117.944 577.642 119.176 577.642 133.624C577.642 143.704 570.362 151.32 549.082 151.32C528.137 151.32 520.297 144.936 520.297 136.648C520.297 134.408 521.305 126.568 533.513 125C530.825 123.992 528.697 120.968 528.697 117.944C528.697 115.032 530.489 109.768 537.209 108.536C530.041 106.744 521.865 101.032 521.865 90.6154C521.865 75.6072 534.073 69.3351 549.194 69.3351H579.77ZM539.001 90.8394C539.001 95.5435 542.473 99.6876 548.186 99.6876C553.898 99.6876 558.042 95.5435 558.042 90.6154C558.042 84.7913 553.114 81.3193 548.746 81.3193C542.137 81.3193 539.001 86.8074 539.001 90.8394ZM549.978 129.592C540.905 129.592 537.097 131.384 537.097 135.64C537.097 141.912 547.289 141.912 549.642 141.912C556.698 141.912 561.962 139.896 561.962 135.416C561.962 129.816 552.666 129.592 549.978 129.592ZM644 98.0076V101.928H604.8C606.256 108.872 613.088 113.464 620.592 113.464C628.096 113.464 635.6 111.112 642.544 107.864V120.072C639.632 121.64 631.232 126.008 616.448 126.008C595.168 126.008 584.527 113.016 584.527 96.8875C584.527 80.7593 595.168 68.3271 616.448 68.3271C628.88 68.3271 644 75.6072 644 98.0076ZM604.24 92.1835H625.52C625.52 85.1273 621.824 80.4233 615.216 80.4233C608.832 80.4233 604.24 85.1273 604.24 92.1835ZM655.019 125V49.1748H674.731V72.5831C677.083 70.7911 682.347 68.3271 689.627 68.3271C708.331 68.3271 716.284 83.1113 716.284 97.5595C716.284 118.056 702.171 126.008 690.971 126.008C681.451 126.008 676.971 121.864 674.731 119.96V125H655.019ZM674.731 86.0234V107.304C676.635 109.096 679.771 111.224 684.699 111.224C687.499 111.224 695.563 109.768 695.563 97.1115C695.563 86.9194 689.963 82.4393 684.699 82.4393C680.331 82.4393 676.411 84.9033 674.731 86.0234ZM726.332 69.3351H746.045V82.7753C747.837 77.8472 754.109 68.3271 763.629 68.3271C768.781 68.3271 771.917 70.2311 775.389 72.3591L768.109 92.0715C765.085 89.1594 762.509 87.8154 759.037 87.8154C753.997 87.8154 749.965 90.2794 746.045 101.032V125H726.332V69.3351ZM838.837 125H819.125V117.048C813.973 122.648 808.261 126.008 799.413 126.008C778.692 126.008 779.364 107.08 779.364 102.04V69.3351H799.077V98.2316C799.077 101.816 798.629 110.776 807.141 110.776C813.861 110.776 817.669 104.168 819.125 102.04V69.3351H838.837V125ZM852.361 69.3351H872.073V125H852.361V69.3351ZM862.217 48.1667C866.809 48.1667 870.505 51.8628 870.505 56.4549C870.505 61.0469 866.809 64.743 862.217 64.743C857.625 64.743 853.929 61.0469 853.929 56.4549C853.929 51.8628 857.625 48.1667 862.217 48.1667ZM885.476 49.1748H905.412V93.6395L924.9 69.3351H948.533L926.804 95.3195L951.781 125H926.804L905.412 98.5676V125H885.476V49.1748ZM998.912 69.3351V82.9993H980.096V100.808C980.096 105.512 980.096 110.328 988.048 110.328C992.304 110.328 996 108.648 1000.37 106.408V121.752C996.784 123.544 988.832 126.008 981.664 126.008C966.992 126.008 960.384 118.504 960.384 105.176V82.9993H951.424V79.5273L977.856 52.6468H980.096V69.3351H998.912ZM1036.73 69.3351H1056.66L1066.86 97.4475L1077.72 69.3351H1090.26L1101.24 97.4475L1111.1 69.3351H1130.81L1108.86 125H1096.42L1083.99 94.6475L1071.67 125H1059.24L1036.73 69.3351ZM1165.85 68.3271C1187.13 68.3271 1197.77 80.8713 1197.77 97.1115C1197.77 113.352 1187.13 126.008 1165.85 126.008C1144.57 126.008 1133.93 113.352 1133.93 97.1115C1133.93 80.8713 1144.57 68.3271 1165.85 68.3271ZM1165.85 82.9993C1158.46 82.9993 1154.65 88.5994 1154.65 97.1115C1154.65 105.624 1158.46 111.336 1165.85 111.336C1173.24 111.336 1177.05 105.624 1177.05 97.1115C1177.05 88.5994 1173.24 82.9993 1165.85 82.9993ZM1207.81 69.3351H1227.52V82.7753C1229.31 77.8472 1235.59 68.3271 1245.11 68.3271C1250.26 68.3271 1253.39 70.2311 1256.87 72.3591L1249.59 92.0715C1246.56 89.1594 1243.99 87.8154 1240.51 87.8154C1235.47 87.8154 1231.44 90.2794 1227.52 101.032V125H1207.81V69.3351ZM1317.26 125H1297.54V119.96C1295.3 121.864 1290.82 126.008 1281.3 126.008C1270.1 126.008 1255.99 118.056 1255.99 97.5595C1255.99 83.1113 1263.94 68.3271 1282.65 68.3271C1291.16 68.3271 1294.97 70.9031 1297.54 72.5831V49.1748H1317.26V125ZM1297.54 86.0234C1294.52 84.3433 1291.72 82.4393 1287.58 82.4393C1281.53 82.4393 1276.71 87.8154 1276.71 97.1115C1276.71 107.864 1282.65 111.224 1287.58 111.224C1293.18 111.224 1296.2 108.424 1297.54 107.304V86.0234ZM1372.11 69.3351V82.9993H1353.29V100.808C1353.29 105.512 1353.29 110.328 1361.24 110.328C1365.5 110.328 1369.19 108.648 1373.56 106.408V121.752C1369.98 123.544 1362.03 126.008 1354.86 126.008C1340.19 126.008 1333.58 118.504 1333.58 105.176V82.9993H1324.62V79.5273L1351.05 52.6468H1353.29V69.3351H1372.11Z" fill="#F4EDD2" fill-opacity="0.5"/>
<path d="M117.867 137.432H83.4824V167H60.634V91.1748H83.4824V119.063H117.867V91.1748H140.715V167H117.867V137.432ZM186.05 110.327C207.33 110.327 217.97 122.871 217.97 139.112C217.97 155.352 207.33 168.008 186.05 168.008C164.77 168.008 154.129 155.352 154.129 139.112C154.129 122.871 164.77 110.327 186.05 110.327ZM186.05 124.999C178.658 124.999 174.85 130.599 174.85 139.112C174.85 147.624 178.658 153.336 186.05 153.336C193.442 153.336 197.25 147.624 197.25 139.112C197.25 130.599 193.442 124.999 186.05 124.999ZM285.244 140.008V143.928H246.043C247.499 150.872 254.332 155.464 261.836 155.464C269.34 155.464 276.844 153.112 283.788 149.864V162.072C280.876 163.64 272.476 168.008 257.692 168.008C236.411 168.008 225.771 155.016 225.771 138.888C225.771 122.759 236.411 110.327 257.692 110.327C270.124 110.327 285.244 117.607 285.244 140.008ZM245.483 134.183H266.764C266.764 127.127 263.068 122.423 256.46 122.423C250.076 122.423 245.483 127.127 245.483 134.183ZM328.094 91.1748H347.806V119.287C354.75 111.895 361.246 110.327 367.518 110.327C379.614 110.327 387.567 116.711 387.567 132.839V167H367.854V138.104C367.854 137.656 369.31 125.559 359.79 125.559C353.966 125.559 350.046 130.935 347.806 134.295V167H328.094V91.1748ZM456.419 140.008V143.928H417.218C418.674 150.872 425.506 155.464 433.01 155.464C440.515 155.464 448.019 153.112 454.963 149.864V162.072C452.051 163.64 443.651 168.008 428.866 168.008C407.586 168.008 396.946 155.016 396.946 138.888C396.946 122.759 407.586 110.327 428.866 110.327C441.299 110.327 456.419 117.607 456.419 140.008ZM416.658 134.183H437.938C437.938 127.127 434.242 122.423 427.634 122.423C421.25 122.423 416.658 127.127 416.658 134.183ZM508.466 111.335V124.999H489.65V142.808C489.65 147.512 489.65 152.328 497.602 152.328C501.858 152.328 505.554 150.648 509.922 148.408V163.752C506.338 165.544 498.386 168.008 491.218 168.008C476.546 168.008 469.938 160.504 469.938 147.176V124.999H460.978V121.527L487.41 94.6468H489.65V111.335H508.466ZM607.77 111.335V123.207H598.026C600.154 124.999 603.178 128.471 603.178 134.183C603.178 143.368 595.45 151.544 581.114 152.328C578.538 152.44 574.281 153 574.281 156.024C574.281 158.712 576.746 158.824 584.25 159.496C589.85 159.944 605.642 161.176 605.642 175.624C605.642 185.704 598.362 193.32 577.082 193.32C556.137 193.32 548.297 186.936 548.297 178.648C548.297 176.408 549.305 168.568 561.513 167C558.825 165.992 556.697 162.968 556.697 159.944C556.697 157.032 558.489 151.768 565.209 150.536C558.041 148.744 549.865 143.032 549.865 132.615C549.865 117.607 562.073 111.335 577.194 111.335H607.77ZM567.001 132.839C567.001 137.544 570.473 141.688 576.186 141.688C581.898 141.688 586.042 137.544 586.042 132.615C586.042 126.791 581.114 123.319 576.746 123.319C570.137 123.319 567.001 128.807 567.001 132.839ZM577.978 171.592C568.905 171.592 565.097 173.384 565.097 177.64C565.097 183.912 575.289 183.912 577.642 183.912C584.698 183.912 589.962 181.896 589.962 177.416C589.962 171.816 580.666 171.592 577.978 171.592ZM672 140.008V143.928H632.8C634.256 150.872 641.088 155.464 648.592 155.464C656.096 155.464 663.6 153.112 670.544 149.864V162.072C667.632 163.64 659.232 168.008 644.448 168.008C623.168 168.008 612.527 155.016 612.527 138.888C612.527 122.759 623.168 110.327 644.448 110.327C656.88 110.327 672 117.607 672 140.008ZM632.24 134.183H653.52C653.52 127.127 649.824 122.423 643.216 122.423C636.832 122.423 632.24 127.127 632.24 134.183ZM683.019 167V91.1748H702.731V114.583C705.083 112.791 710.347 110.327 717.627 110.327C736.331 110.327 744.284 125.111 744.284 139.56C744.284 160.056 730.171 168.008 718.971 168.008C709.451 168.008 704.971 163.864 702.731 161.96V167H683.019ZM702.731 128.023V149.304C704.635 151.096 707.771 153.224 712.699 153.224C715.499 153.224 723.563 151.768 723.563 139.112C723.563 128.919 717.963 124.439 712.699 124.439C708.331 124.439 704.411 126.903 702.731 128.023ZM754.332 111.335H774.045V124.775C775.837 119.847 782.109 110.327 791.629 110.327C796.781 110.327 799.917 112.231 803.389 114.359L796.109 134.071C793.085 131.159 790.509 129.815 787.037 129.815C781.997 129.815 777.965 132.279 774.045 143.032V167H754.332V111.335ZM866.837 167H847.125V159.048C841.973 164.648 836.261 168.008 827.413 168.008C806.692 168.008 807.364 149.08 807.364 144.04V111.335H827.077V140.232C827.077 143.816 826.629 152.776 835.141 152.776C841.861 152.776 845.669 146.168 847.125 144.04V111.335H866.837V167ZM880.361 111.335H900.073V167H880.361V111.335ZM890.217 90.1667C894.809 90.1667 898.505 93.8628 898.505 98.4549C898.505 103.047 894.809 106.743 890.217 106.743C885.625 106.743 881.929 103.047 881.929 98.4549C881.929 93.8628 885.625 90.1667 890.217 90.1667ZM913.476 91.1748H933.412V135.639L952.9 111.335H976.533L954.804 137.32L979.781 167H954.804L933.412 140.568V167H913.476V91.1748ZM1026.91 111.335V124.999H1008.1V142.808C1008.1 147.512 1008.1 152.328 1016.05 152.328C1020.3 152.328 1024 150.648 1028.37 148.408V163.752C1024.78 165.544 1016.83 168.008 1009.66 168.008C994.992 168.008 988.384 160.504 988.384 147.176V124.999H979.424V121.527L1005.86 94.6468H1008.1V111.335H1026.91ZM1064.73 111.335H1084.66L1094.86 139.448L1105.72 111.335H1118.26L1129.24 139.448L1139.1 111.335H1158.81L1136.86 167H1124.42L1111.99 136.647L1099.67 167H1087.24L1064.73 111.335ZM1193.85 110.327C1215.13 110.327 1225.77 122.871 1225.77 139.112C1225.77 155.352 1215.13 168.008 1193.85 168.008C1172.57 168.008 1161.93 155.352 1161.93 139.112C1161.93 122.871 1172.57 110.327 1193.85 110.327ZM1193.85 124.999C1186.46 124.999 1182.65 130.599 1182.65 139.112C1182.65 147.624 1186.46 153.336 1193.85 153.336C1201.24 153.336 1205.05 147.624 1205.05 139.112C1205.05 130.599 1201.24 124.999 1193.85 124.999ZM1235.81 111.335H1255.52V124.775C1257.31 119.847 1263.59 110.327 1273.11 110.327C1278.26 110.327 1281.39 112.231 1284.87 114.359L1277.59 134.071C1274.56 131.159 1271.99 129.815 1268.51 129.815C1263.47 129.815 1259.44 132.279 1255.52 143.032V167H1235.81V111.335ZM1345.26 167H1325.54V161.96C1323.3 163.864 1318.82 168.008 1309.3 168.008C1298.1 168.008 1283.99 160.056 1283.99 139.56C1283.99 125.111 1291.94 110.327 1310.65 110.327C1319.16 110.327 1322.97 112.903 1325.54 114.583V91.1748H1345.26V167ZM1325.54 128.023C1322.52 126.343 1319.72 124.439 1315.58 124.439C1309.53 124.439 1304.71 129.815 1304.71 139.112C1304.71 149.864 1310.65 153.224 1315.58 153.224C1321.18 153.224 1324.2 150.424 1325.54 149.304V128.023ZM1400.11 111.335V124.999H1381.29V142.808C1381.29 147.512 1381.29 152.328 1389.24 152.328C1393.5 152.328 1397.19 150.648 1401.56 148.408V163.752C1397.98 165.544 1390.03 168.008 1382.86 168.008C1368.19 168.008 1361.58 160.504 1361.58 147.176V124.999H1352.62V121.527L1379.05 94.6468H1381.29V111.335H1400.11Z" fill="#F4EDD2"/>
</svg>
