<svg width="699" height="731" viewBox="0 0 699 731" fill="none" xmlns="http://www.w3.org/2000/svg">
<mask id="mask0_255_822" style="mask-type:alpha" maskUnits="userSpaceOnUse" x="0" y="0" width="699" height="731">
<rect width="699" height="731" fill="#D9D9D9"/>
</mask>
<g mask="url(#mask0_255_822)">
<path d="M400.249 49.1225V87.4597H300.093C340.667 124.519 360.954 163.495 360.954 204.388C360.954 241.128 352.967 270.2 336.993 291.605C321.339 313.01 302.49 328.664 280.446 338.568C258.721 348.152 229.649 357.737 193.229 367.321C156.808 376.586 133.966 385.371 124.701 393.678C115.436 401.984 110.804 411.569 110.804 422.431C110.804 435.21 116.714 445.433 128.535 453.1C140.675 460.768 177.894 466.359 240.192 469.873C302.809 473.387 344.98 485.368 366.704 505.814C388.429 526.261 399.291 553.416 399.291 587.281C399.291 627.215 381.879 658.524 347.056 681.207C312.234 704.209 263.833 715.71 201.854 715.71C140.196 715.71 92.5935 704.848 59.0485 683.124C25.5035 661.719 8.73094 633.285 8.73094 597.823C8.73094 540.318 51.5408 504.696 137.16 490.958V489.042C89.5585 477.86 65.7575 456.934 65.7575 426.264C65.7575 395.275 95.1493 371.315 153.933 354.382V352.465C115.276 340.964 85.8845 321.955 65.7575 295.439C45.9499 268.603 36.0462 238.892 36.0462 206.305C36.0462 159.981 52.1797 122.283 84.4469 93.2103C116.714 63.8184 163.038 49.1225 223.419 49.1225H400.249ZM198.021 323.233C230.288 323.233 257.923 311.732 280.925 288.73C304.247 265.408 315.908 237.614 315.908 205.346C315.908 173.079 304.247 145.604 280.925 122.922C257.923 99.9193 229.968 88.4181 197.062 88.4181C164.476 88.4181 137.001 99.5998 114.637 121.963C92.274 144.326 81.0924 171.482 81.0924 203.43C81.0924 236.655 92.4338 264.929 115.117 288.251C137.799 311.572 165.434 323.233 198.021 323.233ZM204.73 676.415C250.415 676.415 286.675 668.587 313.511 652.933C340.667 637.279 354.245 616.672 354.245 591.114C354.245 539.359 307.441 513.482 213.835 513.482C107.13 513.482 53.7771 540.637 53.7771 594.948C53.7771 649.259 104.095 676.415 204.73 676.415Z" fill="#F4EDD2"/>
<path d="M589.989 502.684L552.297 479.87C528.656 465.488 511.793 451.353 501.709 437.466C491.79 423.414 486.83 407.295 486.83 389.11C486.83 361.833 496.253 339.68 515.1 322.652C534.111 305.624 558.744 297.11 588.997 297.11C617.928 297.11 644.462 305.211 668.599 321.412V377.703C643.635 353.732 616.771 341.746 588.006 341.746C571.804 341.746 558.496 345.549 548.081 353.153C537.666 360.593 532.458 370.181 532.458 381.919C532.458 392.334 536.261 402.088 543.865 411.18C551.47 420.273 563.786 429.779 580.814 439.698L618.755 462.016C661.077 487.144 682.237 519.216 682.237 558.232C682.237 586.005 672.897 608.571 654.216 625.93C635.7 643.288 611.564 651.968 581.806 651.968C547.585 651.968 516.422 641.47 488.318 620.474V557.488C515.1 591.378 546.097 608.323 581.31 608.323C596.85 608.323 609.745 604.025 619.995 595.429C630.41 586.667 635.617 575.756 635.617 562.695C635.617 541.534 620.408 521.531 589.989 502.684Z" fill="#F4EDD2" fill-opacity="0.6"/>
<path d="M428.436 105.033H478.356V246H428.436V105.033ZM453.396 51.4254C465.025 51.4254 474.385 60.7854 474.385 72.4145C474.385 84.0436 465.025 93.4036 453.396 93.4036C441.767 93.4036 432.407 84.0436 432.407 72.4145C432.407 60.7854 441.767 51.4254 453.396 51.4254ZM523.643 53.9782H573.563V246H523.643V53.9782ZM618.849 53.9782H668.769V246H618.849V53.9782Z" fill="#F4EDD2"/>
<path d="M118.634 638.859V611.714C125.743 616.7 132.991 620.763 140.377 623.902C147.856 626.949 154.134 628.472 159.212 628.472C164.475 628.472 168.999 627.18 172.785 624.594C176.57 622.009 178.463 618.916 178.463 615.315C178.463 611.622 177.217 608.575 174.724 606.175C172.323 603.682 167.06 600.127 158.935 595.511C142.685 586.462 132.021 578.753 126.943 572.382C121.957 565.919 119.464 558.902 119.464 551.331C119.464 541.544 123.25 533.558 130.821 527.371C138.484 521.185 148.317 518.092 160.32 518.092C172.785 518.092 185.572 521.601 198.683 528.618V553.547C183.726 544.499 171.492 539.974 161.982 539.974C157.089 539.974 153.119 541.036 150.072 543.16C147.117 545.191 145.64 547.915 145.64 551.331C145.64 554.286 146.979 557.102 149.656 559.779C152.426 562.457 157.227 565.688 164.06 569.474L173.062 574.598C194.298 586.601 204.915 599.896 204.915 614.484C204.915 624.918 200.807 633.504 192.589 640.244C184.464 646.892 173.985 650.216 161.151 650.216C153.58 650.216 146.84 649.431 140.931 647.862C135.022 646.2 127.589 643.199 118.634 638.859ZM314.049 571.413V625.564C314.049 629.903 315.526 632.073 318.481 632.073C321.528 632.073 326.283 629.811 332.746 625.287V640.66C327.021 644.353 322.405 646.846 318.896 648.138C315.48 649.523 311.879 650.216 308.094 650.216C297.291 650.216 290.92 645.969 288.982 637.474C278.271 645.784 266.869 649.939 254.773 649.939C245.91 649.939 238.523 647.031 232.614 641.214C226.705 635.305 223.751 627.918 223.751 619.055C223.751 611.022 226.613 603.866 232.337 597.588C238.154 591.217 246.371 586.185 256.989 582.492L289.259 571.413V564.626C289.259 549.3 281.595 541.636 266.268 541.636C252.511 541.636 239.124 548.746 226.105 562.964V535.404C235.892 523.863 249.972 518.092 268.346 518.092C282.103 518.092 293.136 521.693 301.446 528.895C304.216 531.203 306.709 534.296 308.925 538.174C311.141 541.96 312.526 545.791 313.08 549.669C313.726 553.455 314.049 560.702 314.049 571.413ZM289.259 622.794V584.985L272.362 591.494C263.776 594.911 257.682 598.373 254.081 601.881C250.572 605.298 248.818 609.591 248.818 614.761C248.818 620.024 250.48 624.317 253.804 627.641C257.22 630.965 261.606 632.627 266.961 632.627C274.994 632.627 282.426 629.349 289.259 622.794ZM380.249 520.585V536.789C391.513 524.325 404.301 518.092 418.612 518.092C426.553 518.092 433.939 520.17 440.771 524.325C447.604 528.387 452.774 534.019 456.283 541.221C459.884 548.33 461.684 559.641 461.684 575.152V648H436.478V575.429C436.478 562.411 434.493 553.131 430.523 547.592C426.553 541.96 419.905 539.143 410.58 539.143C398.669 539.143 388.559 545.099 380.249 557.009V648H354.489V520.585H380.249Z" fill="#F4EDD2" fill-opacity="0.6"/>
</g>
</svg>
