<svg width="867" height="771" viewBox="0 0 867 771" fill="none" xmlns="http://www.w3.org/2000/svg">
<path d="M373.336 121.511V138.408C350.438 125.389 327.587 118.88 304.781 118.88C280.314 118.88 259.955 127.005 243.705 143.255C227.455 159.505 219.33 179.864 219.33 204.331C219.33 228.798 227.363 249.157 243.428 265.407C259.494 281.565 281.33 289.643 308.936 289.643C328.879 289.643 346.56 285.673 361.979 277.733V225.521H321.124V213.056H377.075V287.151C354.27 298.045 331.372 303.493 308.382 303.493C278.375 303.493 253.308 293.983 233.18 274.963C213.144 255.943 203.126 232.214 203.126 203.777C203.126 175.524 212.96 152.026 232.626 133.283C252.384 114.448 277.175 105.031 306.997 105.031C327.31 105.031 349.423 110.524 373.336 121.511ZM426.656 107.523V130.79H412.945V107.523H426.656ZM426.656 173.585V301H412.945V173.585H426.656Z" fill="#F4EDD2"/>
<rect x="411" y="291" width="18" height="12" fill="#003E35"/>
<path d="M436.189 381.842L415.138 369.101C401.935 361.068 392.517 353.174 386.885 345.418C381.345 337.57 378.575 328.568 378.575 318.412C378.575 303.178 383.838 290.805 394.364 281.295C404.982 271.786 418.739 267.031 435.635 267.031C451.793 267.031 466.611 271.555 480.092 280.603V312.041C466.15 298.653 451.146 291.96 435.081 291.96C426.033 291.96 418.6 294.083 412.783 298.33C406.967 302.485 404.058 307.84 404.058 314.396C404.058 320.212 406.182 325.66 410.429 330.738C414.676 335.816 421.555 341.125 431.065 346.665L452.254 359.129C475.891 373.163 487.709 391.075 487.709 412.865C487.709 428.376 482.492 440.979 472.059 450.674C461.718 460.369 448.238 465.216 431.619 465.216C412.506 465.216 395.102 459.353 379.406 447.627V412.45C394.364 431.377 411.675 440.841 431.342 440.841C440.021 440.841 447.222 438.44 452.947 433.639C458.763 428.746 461.672 422.652 461.672 415.358C461.672 403.54 453.178 392.368 436.189 381.842Z" fill="#F4EDD2"/>
<path d="M592.915 365.413V419.564C592.915 423.903 594.393 426.073 597.347 426.073C600.394 426.073 605.149 423.811 611.612 419.287V434.66C605.888 438.353 601.271 440.846 597.763 442.138C594.347 443.523 590.746 444.216 586.96 444.216C576.158 444.216 569.787 439.969 567.848 431.474C557.138 439.784 545.735 443.939 533.64 443.939C524.776 443.939 517.39 441.031 511.481 435.214C505.572 429.305 502.617 421.918 502.617 413.055C502.617 405.022 505.479 397.866 511.204 391.588C517.021 385.217 525.238 380.185 535.856 376.492L568.125 365.413V358.626C568.125 343.3 560.462 335.636 545.135 335.636C531.378 335.636 517.99 342.746 504.972 356.964V329.404C514.759 317.863 528.839 312.092 547.212 312.092C560.969 312.092 572.003 315.693 580.312 322.895C583.082 325.203 585.575 328.296 587.791 332.174C590.007 335.96 591.392 339.791 591.946 343.669C592.592 347.455 592.915 354.702 592.915 365.413ZM568.125 416.794V378.985L551.229 385.494C542.642 388.911 536.548 392.373 532.947 395.881C529.439 399.298 527.685 403.591 527.685 408.761C527.685 414.024 529.347 418.317 532.67 421.641C536.087 424.965 540.472 426.627 545.827 426.627C553.86 426.627 561.293 423.349 568.125 416.794ZM659.116 314.585V330.789C670.38 318.325 683.168 312.092 697.479 312.092C705.419 312.092 712.805 314.17 719.638 318.325C726.47 322.387 731.641 328.019 735.149 335.221C738.75 342.33 740.55 353.641 740.55 369.152V442H715.344V369.429C715.344 356.411 713.359 347.131 709.389 341.592C705.419 335.96 698.771 333.143 689.446 333.143C677.536 333.143 667.425 339.099 659.116 351.009V442H633.356V314.585H659.116ZM769.496 432.859V405.714C776.605 410.7 783.853 414.763 791.239 417.902C798.718 420.949 804.996 422.472 810.075 422.472C815.337 422.472 819.862 421.18 823.647 418.594C827.433 416.009 829.325 412.916 829.325 409.315C829.325 405.622 828.079 402.575 825.586 400.175C823.185 397.682 817.923 394.127 809.798 389.511C793.548 380.462 782.884 372.753 777.805 366.382C772.82 359.919 770.327 352.902 770.327 345.331C770.327 335.544 774.112 327.558 781.683 321.371C789.347 315.185 799.18 312.092 811.183 312.092C823.647 312.092 836.435 315.601 849.545 322.618V347.547C834.588 338.499 822.354 333.974 812.844 333.974C807.951 333.974 803.981 335.036 800.934 337.16C797.979 339.191 796.502 341.915 796.502 345.331C796.502 348.286 797.841 351.102 800.518 353.779C803.288 356.457 808.089 359.688 814.922 363.474L823.924 368.598C845.16 380.601 855.778 393.896 855.778 408.484C855.778 418.918 851.669 427.504 843.452 434.244C835.327 440.892 824.847 444.216 812.013 444.216C804.442 444.216 797.702 443.431 791.793 441.862C785.884 440.2 778.452 437.199 769.496 432.859Z" fill="#F4EDD2"/>
<line x1="368" y1="219.5" x2="-4" y2="219.5" stroke="#F4EDD2" stroke-width="13"/>
<line x1="646.499" y1="440.114" x2="643.5" y2="770.114" stroke="#F4EDD2" stroke-width="25"/>
<line x1="728.499" y1="440.114" x2="725.5" y2="770.114" stroke="#F4EDD2" stroke-width="25"/>
<line x1="473.5" y1="298" x2="473.5" stroke="#F4EDD2" stroke-width="13"/>
<line x1="525.5" y1="298" x2="525.5" stroke="#F4EDD2" stroke-width="13"/>
</svg>
