<svg width="400" height="452" viewBox="0 0 400 452" fill="none" xmlns="http://www.w3.org/2000/svg">
<mask id="mask0_255_856" style="mask-type:alpha" maskUnits="userSpaceOnUse" x="0" y="0" width="400" height="452">
<rect width="400" height="452" fill="#D9D9D9"/>
</mask>
<g mask="url(#mask0_255_856)">
<path d="M324.509 206.44L339.112 206.308C333.905 212.813 332.052 216.605 332.089 220.678C332.122 224.353 334.53 226.915 337.808 226.885C347.742 226.795 355.001 205.568 371.491 205.419C381.227 205.331 388.853 213.707 388.952 224.733C388.996 229.601 387.747 234.282 384.914 239.573L372.199 239.688C375.912 232.899 376.978 229.908 376.948 226.531C376.914 222.855 375.004 220.29 372.222 220.315C364.176 220.388 354.54 242.43 338.447 242.576C327.619 242.674 319.396 234.304 319.295 223.078C319.247 217.813 320.792 212.832 324.509 206.44ZM320.407 247.234L388.814 264.398L388.959 280.392L320.874 298.791L320.739 283.89L334.816 280.584L334.678 265.285L320.542 262.135L320.407 247.234ZM345.724 267.371L345.822 278.199L370.411 272.711L370.409 272.513L345.724 267.371ZM320.941 306.266L388.79 305.653L388.92 319.958L350.741 338.682L350.743 338.881L389.088 338.534L389.219 353.038L321.37 353.651L321.249 340.24L361.108 320.606L361.106 320.408L321.073 320.77L320.941 306.266ZM325.942 364.859L340.545 364.727C335.338 371.232 333.485 375.024 333.522 379.097C333.555 382.772 335.963 385.334 339.241 385.304C349.175 385.214 356.434 363.988 372.924 363.838C382.659 363.75 390.286 372.126 390.385 383.153C390.429 388.02 389.18 392.701 386.347 397.992L373.631 398.107C377.345 391.318 378.411 388.328 378.38 384.95C378.347 381.275 376.436 378.709 373.655 378.734C365.608 378.807 355.972 400.85 339.879 400.995C329.051 401.093 320.829 392.723 320.728 381.498C320.68 376.233 322.225 371.251 325.942 364.859Z" fill="#F4EDD2"/>
<path d="M299.599 222.857V388.421C264.48 415.179 222.671 433.017 175.845 433.017C82.1925 433.017 14.1832 353.301 14.1832 243.483C14.1832 126.418 86.0946 42.2426 185.321 42.2426C219.326 42.2426 252.216 51.7193 286.22 72.3451V151.503C252.773 124.188 231.032 114.154 197.028 114.154C136.823 114.154 102.261 159.865 102.261 242.368C102.261 313.722 127.346 361.106 176.402 361.106C188.109 361.106 201.487 357.761 213.194 351.072V286.964H170.27V222.857H299.599Z" fill="#F4EDD2"/>
<path d="M329.599 236.857V402.421C294.48 429.179 252.671 447.017 205.845 447.017C112.192 447.017 44.1832 367.301 44.1832 257.483C44.1832 140.418 116.095 56.2426 215.321 56.2426C249.326 56.2426 282.216 65.7193 316.22 86.3451V165.503C282.773 138.188 261.032 128.154 227.028 128.154C166.823 128.154 132.261 173.865 132.261 256.368C132.261 327.722 157.346 375.106 206.402 375.106C218.109 375.106 231.487 371.761 243.194 365.072V300.964H200.27V236.857H329.599Z" fill="#F4EDD2" fill-opacity="0.4"/>
<path d="M324.579 166V107.71H334.842V166H324.579ZM323.789 82.8419C323.789 79.5524 326.421 76.9208 329.711 76.9208C333 76.9208 335.632 79.5524 335.632 82.8419C335.632 86.1314 333 88.763 329.711 88.763C326.421 88.763 323.789 86.1314 323.789 82.8419ZM347.047 166V78.105H357.31V166H347.047ZM369.02 166V78.105H379.283V166H369.02Z" fill="#F4EDD2"/>
</g>
</svg>
