<svg width="86" height="132" viewBox="0 0 86 132" fill="none" xmlns="http://www.w3.org/2000/svg">
<path d="M43.8404 -0.000383735C56.3396 -0.000383735 68.3794 3.12443 79.9595 9.37405V31.4315C66.6638 23.4051 54.8691 19.3918 44.5757 19.3918C38.326 19.3918 33.4244 20.6172 29.8707 23.0681C26.3782 25.4576 24.632 28.6743 24.632 32.7182C24.632 37.5586 27.91 42.0314 34.466 46.1365C36.3041 47.3619 43.3809 50.7931 55.6963 56.43C66.2349 61.393 73.8325 66.9073 78.489 72.9731C83.1456 79.0389 85.4739 86.3302 85.4739 94.8468C85.4739 105.876 81.4913 114.79 73.5261 121.592C65.6222 128.331 55.3593 131.701 42.7375 131.701C34.5272 131.701 27.4505 130.813 21.5072 129.036C15.6252 127.198 9.00796 124.073 1.65546 119.661V95.2144C15.3801 106.611 28.3083 112.309 40.4399 112.309C46.5057 112.309 51.4073 110.992 55.1449 108.357C58.8824 105.722 60.7511 102.23 60.7511 97.8797C60.7511 91.9364 57.5038 87.096 51.0091 83.3585C45.6173 80.4175 38.663 76.8945 30.1464 72.7893C20.0367 68.194 12.4698 62.8328 7.44555 56.7057C2.48262 50.5787 0.00115132 43.4712 0.00115132 35.3835C0.00115132 24.5998 4.01439 16.0219 12.0409 9.64977C20.0673 3.21633 30.6672 -0.000383735 43.8404 -0.000383735Z" fill="#D02B21"/>
</svg>
