<svg width="78" height="97" viewBox="0 0 78 97" fill="none" xmlns="http://www.w3.org/2000/svg">
<path d="M18.1406 1.5625L17.4375 5.85938C17.2396 5.70312 16.8802 5.48958 16.3594 5.21875C15.8385 4.9375 15.2448 4.69271 14.5781 4.48438C13.9219 4.26562 13.2552 4.15625 12.5781 4.15625C11.8698 4.15625 11.3229 4.34896 10.9375 4.73438C10.5521 5.11979 10.3594 5.56771 10.3594 6.07812C10.3594 6.52604 10.4896 6.93229 10.75 7.29688C11.0104 7.65104 11.6823 8.27083 12.7656 9.15625C14.3698 10.4375 15.474 11.5573 16.0781 12.5156C16.6823 13.4635 16.9844 14.5417 16.9844 15.75C16.9844 16.7396 16.7552 17.7292 16.2969 18.7188C15.8385 19.7083 15.0521 20.5417 13.9375 21.2188C12.8333 21.8958 11.3646 22.2344 9.53125 22.2344C8.16667 22.2344 6.86979 22.0469 5.64062 21.6719C4.41146 21.2865 3.40625 20.849 2.625 20.3594L3.29688 15.9688C5.53646 17.375 7.35938 18.0781 8.76562 18.0781C9.65104 18.0781 10.276 17.8333 10.6406 17.3438C11.0156 16.8542 11.2031 16.3229 11.2031 15.75C11.2031 15.1146 11 14.5625 10.5938 14.0938C10.1979 13.6146 9.25 12.6927 7.75 11.3281C6.85417 10.5156 6.16667 9.79688 5.6875 9.17188C5.20833 8.53646 4.90104 7.98438 4.76562 7.51562C4.64062 7.03646 4.57812 6.49479 4.57812 5.89062C4.57812 5.19271 4.71354 4.5 4.98438 3.8125C5.25521 3.11458 5.67708 2.47917 6.25 1.90625C6.83333 1.32292 7.57292 0.859375 8.46875 0.515625C9.375 0.171875 10.4323 0 11.6406 0C13.8385 0 16.0052 0.520833 18.1406 1.5625ZM34.9375 13.0312C34.9375 13.7812 34.8646 14.5573 34.7188 15.3594H24.6562C24.6562 17.5573 25.7344 18.6562 27.8906 18.6562C28.9635 18.6562 29.9219 18.5312 30.7656 18.2812C31.6198 18.0312 32.6354 17.6667 33.8125 17.1875L33.0156 21.0938C31.901 21.5417 31.0052 21.8438 30.3281 22C29.6615 22.1562 28.8177 22.2344 27.7969 22.2344C25.6302 22.2344 23.9271 21.8333 22.6875 21.0312C21.4479 20.2292 20.6042 19.2708 20.1562 18.1562C19.7083 17.0417 19.4844 15.9375 19.4844 14.8438C19.4844 13.2083 19.8542 11.6979 20.5938 10.3125C21.3438 8.91667 22.375 7.8125 23.6875 7C25.0104 6.17708 26.5 5.76562 28.1562 5.76562C29.3958 5.76562 30.526 6.03125 31.5469 6.5625C32.5781 7.09375 33.401 7.90625 34.0156 9C34.6302 10.0938 34.9375 11.4375 34.9375 13.0312ZM29.9062 12.5469C29.9062 12.474 29.9062 12.4062 29.9062 12.3438C29.9167 12.2708 29.9219 12.1667 29.9219 12.0312C29.9219 10.2396 29.3021 9.34375 28.0625 9.34375C27.3125 9.34375 26.7188 9.64062 26.2812 10.2344C25.8542 10.8177 25.4531 11.5885 25.0781 12.5469H29.9062ZM62.6406 10.5C62.6406 10.9062 62.5677 11.6302 62.4219 12.6719L61.0781 21.9531H55.8594L57.2344 12.5781C57.2969 12.1198 57.3281 11.75 57.3281 11.4688C57.3281 10.375 56.9427 9.82812 56.1719 9.82812C55.401 9.82812 54.3802 10.3906 53.1094 11.5156L51.625 21.9531H46.4219L47.7344 13.0312C47.8698 12.0625 47.9375 11.4479 47.9375 11.1875C47.9375 10.7396 47.8542 10.401 47.6875 10.1719C47.5312 9.94271 47.2448 9.82812 46.8281 9.82812C46.3802 9.82812 45.9115 9.99479 45.4219 10.3281C44.9427 10.6615 44.3438 11.1771 43.625 11.875L42.1875 21.9531H36.9688L39.3125 6.04688H44.5L44.2031 7.90625C44.7344 7.375 45.4219 6.88542 46.2656 6.4375C47.1094 5.98958 48 5.76562 48.9375 5.76562C50.7396 5.76562 52.0208 6.54167 52.7812 8.09375C53.1562 7.71875 53.5833 7.35938 54.0625 7.01562C54.5417 6.67188 55.099 6.38021 55.7344 6.14062C56.3698 5.89062 57.0625 5.76562 57.8125 5.76562C59.6458 5.76562 60.9062 6.27083 61.5938 7.28125C62.2917 8.28125 62.6406 9.35417 62.6406 10.5ZM73.1719 2.40625C73.1719 3.0625 72.9375 3.625 72.4688 4.09375C72 4.5625 71.4323 4.79688 70.7656 4.79688C70.1094 4.79688 69.5417 4.5625 69.0625 4.09375C68.5938 3.61458 68.3594 3.05208 68.3594 2.40625C68.3594 1.75 68.5938 1.1875 69.0625 0.71875C69.5417 0.239583 70.1094 0 70.7656 0C71.1823 0 71.5781 0.109375 71.9531 0.328125C72.3281 0.546875 72.625 0.84375 72.8438 1.21875C73.0625 1.59375 73.1719 1.98958 73.1719 2.40625ZM72.875 6.04688L70.6094 21.9531H65.3281L67.5938 6.04688H72.875ZM23.7812 52.5781C23.7812 54.599 22.9896 56.2552 21.4062 57.5469C20.9375 57.9219 20.4115 58.2135 19.8281 58.4219C19.2448 58.6198 18.5729 58.7604 17.8125 58.8438C17.0521 58.9167 16.1406 58.9531 15.0781 58.9531H4.25L7.45312 37.2969H15.2344C16.4844 37.2969 17.6823 37.4167 18.8281 37.6562C19.974 37.8958 20.9531 38.401 21.7656 39.1719C22.5781 39.9323 22.9844 41.0208 22.9844 42.4375C22.9844 43.6354 22.7083 44.625 22.1562 45.4062C21.6042 46.1771 20.8646 46.8438 19.9375 47.4062C22.5 48.4479 23.7812 50.1719 23.7812 52.5781ZM17.5938 43.0781C17.5938 42.151 17.3073 41.4583 16.7344 41C16.1719 40.5312 15.2552 40.2969 13.9844 40.2969H12.5469L11.6875 46.1562H13.7969C16.3281 46.1562 17.5938 45.1302 17.5938 43.0781ZM17.9844 52.3594C17.9844 51.5365 17.8229 50.8958 17.5 50.4375C17.1875 49.9688 16.6927 49.6406 16.0156 49.4531C15.3385 49.2552 14.4167 49.1562 13.25 49.1562H11.2344L10.2344 55.75H13.8594C16.6094 55.75 17.9844 54.6198 17.9844 52.3594ZM43.1094 50.4062C43.1094 51.6667 42.8802 52.849 42.4219 53.9531C41.9635 55.0469 41.3333 55.9844 40.5312 56.7656C39.7292 57.5469 38.7812 58.1562 37.6875 58.5938C36.5938 59.0208 35.4375 59.2344 34.2188 59.2344C32.7812 59.2344 31.4427 58.9219 30.2031 58.2969C28.9635 57.6615 27.9792 56.7552 27.25 55.5781C26.5208 54.401 26.1562 53.0521 26.1562 51.5312C26.1562 50.375 26.3906 49.2656 26.8594 48.2031C27.3281 47.1302 27.9792 46.1875 28.8125 45.375C29.6562 44.5521 30.6406 43.9115 31.7656 43.4531C32.8906 42.9948 34.0938 42.7656 35.375 42.7656C36.7188 42.7656 37.9792 43.0521 39.1562 43.625C40.3333 44.1875 41.2865 45.0417 42.0156 46.1875C42.7448 47.3333 43.1094 48.7396 43.1094 50.4062ZM37.7969 50.3125C37.7969 49.3438 37.5365 48.5885 37.0156 48.0469C36.5052 47.5052 35.849 47.2344 35.0469 47.2344C34.2135 47.2344 33.5312 47.4792 33 47.9688C32.4688 48.4583 32.0781 49.0521 31.8281 49.75C31.5885 50.4375 31.4688 51.0833 31.4688 51.6875C31.4688 52.5521 31.724 53.2812 32.2344 53.875C32.7448 54.4688 33.4271 54.7656 34.2812 54.7656C34.9583 54.7656 35.5677 54.5469 36.1094 54.1094C36.651 53.6719 37.0677 53.1094 37.3594 52.4219C37.651 51.724 37.7969 51.0208 37.7969 50.3125ZM54.0469 37.2969L50.8438 58.9531H45.5625L48.7656 37.2969H54.0469ZM73.4844 37.2969L70.4375 58.7344C68.3333 59.0677 66.4375 59.2344 64.75 59.2344C61.8229 59.2344 59.5417 58.5365 57.9062 57.1406C56.2812 55.7448 55.4688 53.8646 55.4688 51.5C55.4688 50.5833 55.6458 49.6198 56 48.6094C56.3646 47.599 56.9375 46.651 57.7188 45.7656C58.5104 44.8698 59.5365 44.1458 60.7969 43.5938C62.0677 43.0417 63.5885 42.7656 65.3594 42.7656C66.0156 42.7656 66.7292 42.8073 67.5 42.8906L68.3281 37.2969H73.4844ZM66.8906 47.1094C66.776 47.099 66.6094 47.0938 66.3906 47.0938C64.9635 47.0938 63.8385 47.3646 63.0156 47.9062C62.2031 48.4479 61.6458 49.0677 61.3438 49.7656C61.0521 50.4531 60.9062 51.0625 60.9062 51.5938C60.9062 52.1042 61.0312 52.6146 61.2812 53.125C61.5417 53.6354 61.9583 54.0573 62.5312 54.3906C63.1146 54.724 63.8542 54.8906 64.75 54.8906C65.1562 54.8906 65.4948 54.8594 65.7656 54.7969L66.8906 47.1094ZM8.78125 74.2969L5.54688 95.9531H0L3.20312 74.2969H8.78125ZM22.2969 80.0469L21.4688 83.9531H18.3906L17.3438 89.1406C17.2604 89.5781 17.2188 89.9219 17.2188 90.1719C17.2188 91.0573 17.6094 91.5 18.3906 91.5C19.2344 91.5 20.2604 91.0521 21.4688 90.1562L21.1719 94.9688C19.7448 95.8125 18.2448 96.2344 16.6719 96.2344C15.9844 96.2344 15.3125 96.1146 14.6562 95.875C14 95.625 13.401 95.1719 12.8594 94.5156C12.2135 93.7552 11.8906 92.7552 11.8906 91.5156C11.8906 90.9635 11.9479 90.3854 12.0625 89.7812L13.1406 83.9531H10.2031L10.9062 80.0469H13.875L14.4844 76.875H19.7344L19.125 80.0469H22.2969ZM40.6406 80.2656L38.2344 95.9531H33.0625L33.3125 94.5156C32.7083 95.0469 32.1198 95.4688 31.5469 95.7812C30.9844 96.0833 30.2604 96.2344 29.375 96.2344C28.25 96.2344 27.2552 95.9219 26.3906 95.2969C25.526 94.6615 24.8594 93.8177 24.3906 92.7656C23.9219 91.7135 23.6875 90.5677 23.6875 89.3281C23.6875 88.2969 23.8542 87.2448 24.1875 86.1719C24.5312 85.0885 25.1354 84.0573 26 83.0781C26.875 82.0885 28.1042 81.2917 29.6875 80.6875C31.2708 80.0729 33.224 79.7656 35.5469 79.7656C36.526 79.7656 37.3281 79.8021 37.9531 79.875C38.5781 79.9479 39.474 80.0781 40.6406 80.2656ZM35.0156 83.5938H34.0469C33.1094 83.5938 32.25 83.8594 31.4688 84.3906C30.6979 84.9219 30.0938 85.6406 29.6562 86.5469C29.2188 87.4531 29 88.4323 29 89.4844C29 90.2031 29.1823 90.8177 29.5469 91.3281C29.9115 91.8281 30.4323 92.0781 31.1094 92.0781C31.4427 92.0781 31.8177 91.9948 32.2344 91.8281C32.6615 91.651 33.2031 91.349 33.8594 90.9219L35.0156 83.5938ZM51.3281 74.2969L48.125 95.9531H42.8438L46.0469 74.2969H51.3281ZM60.6562 76.4062C60.6562 77.0625 60.4219 77.625 59.9531 78.0938C59.4844 78.5625 58.9167 78.7969 58.25 78.7969C57.5938 78.7969 57.026 78.5625 56.5469 78.0938C56.0781 77.6146 55.8438 77.0521 55.8438 76.4062C55.8438 75.75 56.0781 75.1875 56.5469 74.7188C57.026 74.2396 57.5938 74 58.25 74C58.6667 74 59.0625 74.1094 59.4375 74.3281C59.8125 74.5469 60.1094 74.8438 60.3281 75.2188C60.5469 75.5938 60.6562 75.9896 60.6562 76.4062ZM60.3594 80.0469L58.0938 95.9531H52.8125L55.0781 80.0469H60.3594ZM77.625 80.3438L76.9219 85.2656C75.901 84.9323 75.2604 84.7396 75 84.6875C74.4062 84.5417 73.7865 84.4688 73.1406 84.4688C71.9427 84.4688 70.9635 84.6979 70.2031 85.1562C69.4427 85.6146 68.8906 86.1771 68.5469 86.8438C68.2031 87.5 68.0312 88.0938 68.0312 88.625C68.0312 89.3229 68.2708 90 68.75 90.6562C69.2292 91.3125 70.1927 91.6406 71.6406 91.6406C72.3802 91.6406 73.1146 91.5365 73.8438 91.3281C74.5729 91.1198 75.5469 90.7292 76.7656 90.1562L75.9375 95.5C75.2812 95.7083 74.75 95.8594 74.3438 95.9531C73.9479 96.0469 73.5104 96.1146 73.0312 96.1562C72.5625 96.2083 72.0781 96.2344 71.5781 96.2344C68.1615 96.2344 65.8281 95.4167 64.5781 93.7812C63.3385 92.1354 62.7188 90.3958 62.7188 88.5625C62.7188 87.3958 63.0208 86.1406 63.625 84.7969C64.2292 83.4427 65.2865 82.2656 66.7969 81.2656C68.3177 80.2656 70.3594 79.7656 72.9219 79.7656C74.3906 79.7656 75.9583 79.9583 77.625 80.3438Z" fill="#003E35"/>
</svg>
