<svg width="66" height="61" viewBox="0 0 66 61" fill="none" xmlns="http://www.w3.org/2000/svg">
<path d="M7.45312 0C9.57812 0 11.625 0.53125 13.5938 1.59375V5.34375C11.3333 3.97917 9.32812 3.29688 7.57812 3.29688C6.51562 3.29688 5.68229 3.50521 5.07812 3.92188C4.48438 4.32812 4.1875 4.875 4.1875 5.5625C4.1875 6.38542 4.74479 7.14583 5.85938 7.84375C6.17188 8.05208 7.375 8.63542 9.46875 9.59375C11.2604 10.4375 12.5521 11.375 13.3438 12.4062C14.1354 13.4375 14.5312 14.6771 14.5312 16.125C14.5312 18 13.8542 19.5156 12.5 20.6719C11.1562 21.8177 9.41146 22.3906 7.26562 22.3906C5.86979 22.3906 4.66667 22.2396 3.65625 21.9375C2.65625 21.625 1.53125 21.0938 0.28125 20.3438V16.1875C2.61458 18.125 4.8125 19.0938 6.875 19.0938C7.90625 19.0938 8.73958 18.8698 9.375 18.4219C10.0104 17.974 10.3281 17.3802 10.3281 16.6406C10.3281 15.6302 9.77604 14.8073 8.67188 14.1719C7.75521 13.6719 6.57292 13.0729 5.125 12.375C3.40625 11.5938 2.11979 10.6823 1.26562 9.64062C0.421875 8.59896 0 7.39062 0 6.01562C0 4.18229 0.682292 2.72396 2.04688 1.64062C3.41146 0.546875 5.21354 0 7.45312 0ZM24.2656 7.23438C26.4115 7.23438 28.1094 7.92188 29.3594 9.29688C30.6094 10.6719 31.2344 12.5729 31.2344 15V15.5781H20.9062C21.0625 16.8802 21.5469 17.8854 22.3594 18.5938C23.1823 19.2917 24.3073 19.6406 25.7344 19.6406C26.651 19.6406 27.5312 19.4844 28.375 19.1719C29.2292 18.849 30.1094 18.3646 31.0156 17.7188V20.5781C29.3073 21.7865 27.2344 22.3906 24.7969 22.3906C22.4948 22.3906 20.6146 21.6979 19.1562 20.3125C17.6979 18.9271 16.9688 17.0833 16.9688 14.7812C16.9688 12.5625 17.6406 10.75 18.9844 9.34375C20.3385 7.9375 22.099 7.23438 24.2656 7.23438ZM27.625 13.25C27.5208 12.1875 27.1979 11.3594 26.6562 10.7656C26.1146 10.1615 25.3698 9.85938 24.4219 9.85938C23.4531 9.85938 22.6719 10.1458 22.0781 10.7188C21.4948 11.2917 21.125 12.1354 20.9688 13.25H27.625ZM42.7188 7.23438C43.8438 7.23438 44.7917 7.5 45.5625 8.03125C46.3438 8.55208 46.9271 9.25521 47.3125 10.1406C48.1354 9.13021 48.9531 8.39583 49.7656 7.9375C50.5885 7.46875 51.4896 7.23438 52.4688 7.23438C54.0104 7.23438 55.2552 7.73958 56.2031 8.75C57.151 9.75 57.625 11.0885 57.625 12.7656V22.1094H53.7812V13.4062C53.7812 12.3958 53.5625 11.599 53.125 11.0156C52.6979 10.4323 52.0729 10.1406 51.25 10.1406C50.0729 10.1406 48.9427 10.8958 47.8594 12.4062V22.1094H44.0312V13.3438C44.0312 12.3438 43.8021 11.5625 43.3438 11C42.8854 10.4271 42.2708 10.1406 41.5 10.1406C40.875 10.1406 40.3021 10.3229 39.7812 10.6875C39.2604 11.0417 38.7031 11.6146 38.1094 12.4062V22.1094H34.2656V7.51562H38.1094V9.5625C38.8073 8.77083 39.5156 8.1875 40.2344 7.8125C40.9531 7.42708 41.7812 7.23438 42.7188 7.23438ZM63.4062 0.765625C64 0.765625 64.5104 0.979167 64.9375 1.40625C65.3646 1.83333 65.5781 2.34375 65.5781 2.9375C65.5781 3.51042 65.3646 4.02083 64.9375 4.46875C64.5208 4.90625 64.0104 5.125 63.4062 5.125C62.8229 5.125 62.3125 4.90625 61.875 4.46875C61.4479 4.02083 61.2344 3.51042 61.2344 2.9375C61.2344 2.33333 61.4531 1.82292 61.8906 1.40625C62.3281 0.979167 62.8333 0.765625 63.4062 0.765625ZM65.3281 7.51562V22.1094H61.4844V7.51562H65.3281ZM11.5 38.2812C13.5 38.2812 15.1302 38.8021 16.3906 39.8438C17.651 40.8854 18.2812 42.1875 18.2812 43.75C18.2812 44.75 18.0156 45.6302 17.4844 46.3906C16.9635 47.151 16.2031 47.7552 15.2031 48.2031V48.3906C16.724 48.7344 17.9062 49.4167 18.75 50.4375C19.6042 51.4479 20.0312 52.6354 20.0312 54C20.0312 55.2083 19.7188 56.2917 19.0938 57.25C18.4792 58.1979 17.6198 58.9115 16.5156 59.3906C15.4219 59.8698 14.1302 60.1094 12.6406 60.1094H3.5V38.2812H11.5ZM10.375 47.3438C11.4896 47.3438 12.3698 47.0781 13.0156 46.5469C13.6615 46.0156 13.9844 45.276 13.9844 44.3281C13.9844 43.4844 13.6875 42.8177 13.0938 42.3281C12.5 41.8281 11.7188 41.5781 10.75 41.5781H7.71875V47.3438H10.375ZM11.3594 56.8125C12.7865 56.8125 13.8646 56.5469 14.5938 56.0156C15.3229 55.474 15.6875 54.6823 15.6875 53.6406C15.6875 52.7135 15.3229 51.9844 14.5938 51.4531C13.875 50.9115 12.9062 50.6406 11.6875 50.6406H7.71875V56.8125H11.3594ZM30.3438 45.2344C31.8646 45.2344 33.2448 45.5521 34.4844 46.1875C35.724 46.8229 36.6823 47.7135 37.3594 48.8594C38.0365 50.0052 38.375 51.3021 38.375 52.75C38.375 54.2604 38.0469 55.5833 37.3906 56.7188C36.7448 57.8542 35.7865 58.75 34.5156 59.4062C33.2552 60.0625 31.8646 60.3906 30.3438 60.3906C28.8125 60.3906 27.4219 60.0625 26.1719 59.4062C24.9219 58.75 23.9688 57.8542 23.3125 56.7188C22.6667 55.5833 22.3438 54.2604 22.3438 52.75C22.3438 51.2812 22.6875 49.9792 23.375 48.8438C24.0625 47.6979 25.0208 46.8125 26.25 46.1875C27.4792 45.5521 28.8438 45.2344 30.3438 45.2344ZM26.375 52.75C26.375 54.2083 26.7292 55.375 27.4375 56.25C28.1562 57.1146 29.1146 57.5469 30.3125 57.5469C31.5625 57.5469 32.5469 57.1302 33.2656 56.2969C33.9844 55.4635 34.3438 54.2708 34.3438 52.7188C34.3438 51.2396 33.9792 50.099 33.25 49.2969C32.5312 48.4844 31.5521 48.0781 30.3125 48.0781C29.1458 48.0781 28.1979 48.5052 27.4688 49.3594C26.7396 50.2135 26.375 51.3438 26.375 52.75ZM45.4219 38.2812V60.1094H41.5781V38.2812H45.4219ZM59.25 45.8438V38.2812H63.0781V60.1094H56.3281C53.9948 60.1094 52.125 59.4375 50.7188 58.0938C49.3229 56.75 48.625 54.9167 48.625 52.5938C48.625 51.2188 48.9479 49.9688 49.5938 48.8438C50.25 47.7188 51.1458 46.8385 52.2812 46.2031C53.4271 45.5573 54.6615 45.2344 55.9844 45.2344C57.0052 45.2344 58.0938 45.4375 59.25 45.8438ZM57.2344 57.1719H59.25V48.7188C58.4583 48.3125 57.6354 48.1094 56.7812 48.1094C55.5 48.1094 54.474 48.5104 53.7031 49.3125C52.9427 50.1146 52.5625 51.1667 52.5625 52.4688C52.5625 55.6042 54.1198 57.1719 57.2344 57.1719Z" fill="#003E35"/>
</svg>
