<svg width="426" height="832" viewBox="0 0 426 832" fill="none" xmlns="http://www.w3.org/2000/svg">
<g clip-path="url(#clip0_191_353)">
<rect width="426" height="832" fill="#F4EDD2"/>
<rect width="426" height="832" fill="#F4EDD2"/>
<path d="M184.101 365.538C212.669 365.538 233.764 372.964 247.385 387.815C261.102 402.667 267.96 425.795 267.96 457.201C267.96 477.161 265.832 495.749 261.575 512.965C257.413 530.087 251.311 545.175 243.271 558.23L165.655 558.23C185.993 537.229 196.162 513.959 196.162 488.418C196.162 476.972 194.317 468.222 190.628 462.168C186.844 456.019 181.547 452.944 174.736 452.944C173.033 452.944 171.378 453.086 169.77 453.37C172.418 457.438 174.641 462.688 176.439 469.12C178.141 475.458 178.993 482.222 178.993 489.411C178.993 510.79 173.175 527.722 161.54 540.209C149.715 552.601 133.965 558.797 114.289 558.797C102.181 558.797 91.2078 556.196 81.3699 550.993C71.3427 545.79 63.9169 538.648 59.0925 529.567C54.2682 520.486 51.4303 510.459 50.5789 499.486C50.1059 493.904 49.7749 487.756 49.5857 481.039C49.3965 474.228 49.2546 466.803 49.16 458.762L49.16 365.538L184.101 365.538ZM137.985 465.573C137.985 460.465 136.756 456.397 134.296 453.37L97.4038 453.37L97.4038 455.782C97.4038 465.242 99.0593 472.431 102.37 477.35C105.681 482.269 111.168 484.729 118.83 484.729C124.789 484.729 129.472 482.979 132.877 479.479C136.283 475.979 137.985 471.343 137.985 465.573ZM24.7543 246.205C31.5652 246.205 37.4301 248.665 42.3491 253.584C47.2681 258.408 49.7275 264.179 49.7275 270.895C49.7275 277.706 47.2681 283.571 42.3491 288.49C37.4301 293.409 31.5652 295.868 24.7543 295.868C18.038 295.868 12.2676 293.409 7.44323 288.49C2.52424 283.571 0.0647525 277.706 0.0647522 270.895C0.064752 264.179 2.47694 258.408 7.30133 253.584C11.9365 248.665 17.7542 246.205 24.7543 246.205ZM49.16 333.328C52.2816 327.936 54.6938 321.314 56.3966 313.463C58.0993 305.611 58.9506 297.24 58.9506 288.348C58.9506 280.023 58.1466 272.172 56.5384 264.793C54.8357 257.415 52.3762 251.03 49.16 245.638L220 245.638L220 333.328L49.16 333.328ZM3.47019 124.744L220 124.744L220 212.435L3.4702 212.435L3.47019 124.744ZM3.47019 3.56708L220 3.56707L220 91.2574L3.47019 91.2574L3.47019 3.56708Z" fill="#D02B21"/>
<path d="M338.101 432.538C366.669 432.538 387.764 439.964 401.385 454.815C415.102 469.667 421.96 492.795 421.96 524.201C421.96 544.161 419.832 562.749 415.575 579.965C411.413 597.087 405.311 612.175 397.271 625.23L319.655 625.23C339.993 604.229 350.162 580.959 350.162 555.418C350.162 543.972 348.317 535.222 344.628 529.168C340.844 523.019 335.547 519.944 328.736 519.944C327.033 519.944 325.378 520.086 323.77 520.37C326.418 524.438 328.641 529.688 330.439 536.12C332.141 542.458 332.993 549.222 332.993 556.411C332.993 577.79 327.175 594.722 315.54 607.209C303.715 619.601 287.965 625.797 268.289 625.797C256.181 625.797 245.208 623.196 235.37 617.993C225.343 612.79 217.917 605.648 213.093 596.567C208.268 587.486 205.43 577.459 204.579 566.486C204.106 560.904 203.775 554.756 203.586 548.039C203.396 541.228 203.255 533.803 203.16 525.762L203.16 432.538L338.101 432.538ZM291.985 532.573C291.985 527.465 290.756 523.397 288.296 520.37L251.404 520.37L251.404 522.782C251.404 532.242 253.059 539.431 256.37 544.35C259.681 549.269 265.168 551.729 272.83 551.729C278.789 551.729 283.472 549.979 286.877 546.479C290.283 542.979 291.985 538.343 291.985 532.573ZM178.754 313.205C185.565 313.205 191.43 315.665 196.349 320.584C201.268 325.408 203.728 331.179 203.728 337.895C203.728 344.706 201.268 350.571 196.349 355.49C191.43 360.409 185.565 362.868 178.754 362.868C172.038 362.868 166.268 360.409 161.443 355.49C156.524 350.571 154.065 344.706 154.065 337.895C154.065 331.179 156.477 325.408 161.301 320.584C165.937 315.665 171.754 313.205 178.754 313.205ZM203.16 400.328C206.282 394.936 208.694 388.314 210.397 380.463C212.099 372.611 212.951 364.24 212.951 355.348C212.951 347.023 212.147 339.172 210.538 331.793C208.836 324.415 206.376 318.03 203.16 312.638L374 312.638L374 400.328L203.16 400.328ZM157.47 191.744L374 191.744L374 279.435L157.47 279.435L157.47 191.744ZM157.47 70.5671L374 70.5671L374 158.257L157.47 158.257L157.47 70.5671Z" fill="#0D3D35"/>
<path d="M56.6261 692.05C50.0013 686.001 43.1364 681.344 36.0316 678.08C29.0227 674.816 22.3499 673.183 16.0131 673.183C11.6926 673.183 8.18818 674.143 5.49985 676.064C2.81152 677.888 1.46736 680.336 1.46736 683.409C1.46736 688.017 3.4356 691.57 7.37208 694.066C9.38832 695.314 12.2687 696.562 16.0131 697.81C19.8536 699.059 24.6062 700.307 30.2709 701.555C48.4171 705.779 61.7147 712.356 70.1637 721.285C78.6127 730.118 82.8372 741.304 82.8372 754.841C82.8372 772.891 75.5884 787.005 61.0906 797.182C46.5928 807.456 27.8706 812.592 4.92378 812.592C-1.98906 812.592 -9.28595 812.16 -16.9669 811.296C-24.6478 810.432 -32.8568 809.184 -41.5939 807.552C-50.3309 805.92 -58.732 803.903 -66.7969 801.503C-74.8619 799.007 -82.6869 796.222 -90.2718 793.15L-70.3974 744.472C-64.8287 752.345 -57.6278 758.73 -48.7947 763.626C-39.9617 768.427 -31.2726 770.827 -22.7276 770.827C-17.543 770.827 -13.4144 769.675 -10.3421 767.371C-7.17369 765.067 -5.5895 762.09 -5.5895 758.442C-5.5895 753.929 -7.50973 750.377 -11.3502 747.784C-15.0947 745.192 -20.9034 742.84 -28.7763 740.728C-49.8029 735.255 -64.2526 727.862 -72.1256 718.549C-80.0946 709.14 -84.079 698.818 -84.079 687.585C-84.079 670.495 -76.7341 657.101 -62.0444 647.404C-47.2586 637.803 -26.376 633.002 0.603254 633.002C15.3891 633.002 29.2627 634.251 42.2243 636.747C55.2819 639.243 67.1873 642.94 77.9407 647.836L56.6261 692.05ZM282.013 810H193.011V797.038C186.674 801.743 179.617 805.295 171.84 807.696C163.775 810.192 156.382 811.44 149.661 811.44C136.604 811.44 125.562 807.168 116.537 798.623C107.704 789.982 103.288 779.132 103.288 766.075C103.288 751.385 108.76 739.335 119.706 729.926C130.651 720.421 144.957 715.669 162.623 715.669C167.808 715.669 172.944 716.005 178.033 716.677C183.121 717.349 188.114 718.357 193.011 719.701C193.011 715.573 192.147 711.924 190.418 708.756C188.786 705.491 186.434 702.803 183.361 700.691C180.289 698.482 176.593 696.85 172.272 695.794C167.952 694.642 163.103 694.066 157.726 694.066C149.181 694.066 140.924 695.17 132.955 697.378C129.115 698.434 125.082 699.875 120.858 701.699C116.729 703.427 112.361 705.491 107.752 707.892V655.757C109.384 654.797 111.641 653.645 114.521 652.301C117.401 650.861 121.002 649.228 125.322 647.404C129.643 645.58 134.203 643.948 139.004 642.508C143.901 640.971 149.133 639.675 154.702 638.619C165.743 636.315 178.561 635.163 193.155 635.163C224.262 635.163 246.825 641.836 260.843 655.181C274.957 668.431 282.013 687.585 282.013 712.644V810ZM179.185 776.444C184.562 776.444 189.17 774.86 193.011 771.691V747.496C189.938 746.536 187.346 745.864 185.234 745.48C183.217 745 180.913 744.76 178.321 744.76C173.04 744.76 168.768 746.152 165.503 748.937C162.239 751.625 160.607 755.273 160.607 759.882C160.607 764.586 162.383 768.523 165.935 771.691C169.488 774.86 173.904 776.444 179.185 776.444ZM520.074 810H435.968V708.036C435.968 701.699 434.672 696.658 432.08 692.914C429.487 689.169 425.311 687.297 419.55 687.297C417.15 687.297 414.462 687.825 411.485 688.881C408.509 689.937 405.868 691.282 403.564 692.914V810H314.561V636.603H403.564V658.35C411.821 649.997 420.174 644.044 428.623 640.491C437.168 636.939 446.721 635.163 457.283 635.163C478.117 635.163 493.767 640.971 504.232 652.589C514.794 664.206 520.074 680.288 520.074 700.835V810ZM683.39 692.05C676.765 686.001 669.901 681.344 662.796 678.08C655.787 674.816 649.114 673.183 642.777 673.183C638.457 673.183 634.952 674.143 632.264 676.064C629.576 677.888 628.232 680.336 628.232 683.409C628.232 688.017 630.2 691.57 634.136 694.066C636.152 695.314 639.033 696.562 642.777 697.81C646.618 699.059 651.37 700.307 657.035 701.555C675.181 705.779 688.479 712.356 696.928 721.285C705.377 730.118 709.601 741.304 709.601 754.841C709.601 772.891 702.353 787.005 687.855 797.182C673.357 807.456 654.635 812.592 631.688 812.592C624.775 812.592 617.478 812.16 609.797 811.296C602.116 810.432 593.907 809.184 585.17 807.552C576.433 805.92 568.032 803.903 559.967 801.503C551.902 799.007 544.077 796.222 536.492 793.15L556.367 744.472C561.935 752.345 569.136 758.73 577.969 763.626C586.802 768.427 595.492 770.827 604.037 770.827C609.221 770.827 613.35 769.675 616.422 767.371C619.59 765.067 621.175 762.09 621.175 758.442C621.175 753.929 619.254 750.377 615.414 747.784C611.67 745.192 605.861 742.84 597.988 740.728C576.961 735.255 562.512 727.862 554.639 718.549C546.67 709.14 542.685 698.818 542.685 687.585C542.685 670.495 550.03 657.101 564.72 647.404C579.506 637.803 600.388 633.002 627.367 633.002C642.153 633.002 656.027 634.251 668.988 636.747C682.046 639.243 693.952 642.94 704.705 647.836L683.39 692.05Z" fill="#D4CEB6"/>
<path d="M280.81 9.36428V61H276.965V9.36428H280.81ZM308.753 61.6653L306.646 58.8932C318.03 50.6876 324.486 42.1741 326.014 33.3525C321.997 35.9399 318.215 37.2335 314.667 37.2335C310.601 37.2335 307.188 35.8783 304.428 33.1677C301.668 30.4325 300.288 27.069 300.288 23.0771C300.288 18.8881 301.644 15.4507 304.354 12.7648C307.089 10.0542 310.576 8.69896 314.814 8.69896C319.718 8.69896 323.587 10.313 326.42 13.541C329.279 16.769 330.708 21.1798 330.708 26.7733C330.708 39.6114 323.39 51.2421 308.753 61.6653ZM326.679 28.7693C326.753 27.9807 326.79 27.2169 326.79 26.4776C326.79 22.0422 325.755 18.5801 323.685 16.0913C321.64 13.5779 318.757 12.3212 315.036 12.3212C311.981 12.3212 309.393 13.3315 307.274 15.3521C305.18 17.348 304.132 19.8491 304.132 22.8554C304.132 25.9109 305.143 28.4736 307.163 30.5434C309.209 32.5886 311.759 33.6113 314.814 33.6113C319.151 33.6113 323.106 31.9973 326.679 28.7693ZM339.098 17.9394V13.3931C342.918 10.2637 346.934 8.69896 351.148 8.69896C355.362 8.69896 358.935 10.1405 361.867 13.0235C364.799 15.8819 366.265 19.3809 366.265 23.5207C366.265 31.7262 359.933 43.0365 347.267 57.4517H371.292V61H338.507C354.45 45.6485 362.421 33.18 362.421 23.5946C362.421 20.4159 361.312 17.7423 359.095 15.5739C356.877 13.4054 354.13 12.3212 350.852 12.3212C348.684 12.3212 346.737 12.7648 345.012 13.6519C343.287 14.5389 341.316 15.9681 339.098 17.9394ZM385.522 34.1287C381.013 31.0732 378.758 27.1922 378.758 22.4857C378.758 18.7649 380.114 15.5369 382.824 12.8017C385.535 10.0666 388.726 8.69896 392.397 8.69896C396.168 8.69896 399.408 10.0542 402.118 12.7648C404.829 15.4507 406.184 18.6663 406.184 22.4118C406.184 27.2661 403.991 31.1718 399.605 34.1287C404.681 37.1842 407.219 41.4472 407.219 46.9175C407.219 51.0573 405.802 54.5563 402.968 57.4147C400.159 60.2484 396.71 61.6653 392.619 61.6653C388.479 61.6653 384.968 60.2608 382.085 57.4517C379.227 54.6426 377.797 51.2297 377.797 47.2132C377.797 41.595 380.372 37.2335 385.522 34.1287ZM382.639 22.4118C382.639 25.2209 383.588 27.5988 385.486 29.5455C387.408 31.4921 389.761 32.4654 392.545 32.4654C395.354 32.4654 397.683 31.4921 399.531 29.5455C401.379 27.5988 402.303 25.1593 402.303 22.227C402.303 19.4918 401.342 17.1632 399.42 15.2412C397.498 13.2946 395.157 12.3212 392.397 12.3212C389.687 12.3212 387.383 13.3069 385.486 15.2782C383.588 17.2248 382.639 19.6027 382.639 22.4118ZM403.375 46.6958C403.375 43.7635 402.303 41.2624 400.159 39.1925C398.04 37.1226 395.453 36.0877 392.397 36.0877C389.416 36.0877 386.878 37.1719 384.783 39.3403C382.689 41.4841 381.641 44.0591 381.641 47.0654C381.641 50.0962 382.701 52.6836 384.82 54.8274C386.939 56.9712 389.539 58.0431 392.619 58.0431C395.749 58.0431 398.324 56.9712 400.344 54.8274C402.365 52.6836 403.375 49.973 403.375 46.6958Z" fill="#D4CEB6"/>
</g>
<defs>
<clipPath id="clip0_191_353">
<rect width="426" height="832" fill="white"/>
</clipPath>
</defs>
</svg>
