<svg width="100" height="65" viewBox="0 0 100 65" fill="none" xmlns="http://www.w3.org/2000/svg">
<path d="M23.7188 0.34375V11.375C23.7188 12.7812 23.6042 14.0677 23.375 15.2344C23.1458 16.401 22.7969 17.4583 22.3281 18.4062C21.8698 19.3438 21.2865 20.1875 20.5781 20.9375C19.8802 21.6771 19.0521 22.3281 18.0938 22.8906C16.1875 24.0156 14.1042 24.5781 11.8438 24.5781C9.72917 24.5781 7.71354 24.0573 5.79688 23.0156C3.89062 21.974 2.44271 20.5365 1.45312 18.7031C0.484375 16.8802 0 14.2917 0 10.9375V0.34375H10.5625V11.5781C10.5625 12.5365 10.651 13.2031 10.8281 13.5781C11.0156 13.9323 11.3438 14.1094 11.8125 14.1094C12.0938 14.1094 12.3177 14.0469 12.4844 13.9219C12.6615 13.7969 12.7969 13.599 12.8906 13.3281C12.9948 13.0573 13.0625 12.7083 13.0938 12.2812C13.1354 11.8542 13.1562 11.3385 13.1562 10.7344V0.34375H23.7188ZM37.1875 0.34375V24.1875H27.5312V0.34375H37.1875ZM55.9688 5.375V10.6562H51.9375V14.7344C51.9375 15.3698 52.0885 15.8646 52.3906 16.2188C52.7031 16.5625 53.1615 16.7344 53.7656 16.7344C54.6719 16.7344 55.4427 16.2865 56.0781 15.3906V22.8438C55.7448 23.0729 55.3646 23.2812 54.9375 23.4688C54.5208 23.6458 54.0625 23.8021 53.5625 23.9375C52.5417 24.2083 51.5312 24.3438 50.5312 24.3438C49.0625 24.3438 47.6979 24.0469 46.4375 23.4531C45.1875 22.8698 44.1771 21.9844 43.4062 20.7969C42.6562 19.6302 42.2812 18.2604 42.2812 16.6875V10.6562H38.3438L51.9375 0V5.375H55.9688ZM76.625 9.75C76.625 11.1354 76.2031 12.25 75.3594 13.0938C74.526 13.9375 73.4531 14.3594 72.1406 14.3594C70.651 14.3594 69.349 13.7865 68.2344 12.6406C67.7344 13.0781 67.3698 13.6667 67.1406 14.4062C66.9115 15.1354 66.7969 16.0052 66.7969 17.0156V24.1875H57.1406V5.375H66.7969V9.375H66.8594C67.4531 8.01042 68.1979 6.97917 69.0938 6.28125C69.9896 5.57292 71.0052 5.21875 72.1406 5.21875C73.4219 5.21875 74.4896 5.64583 75.3438 6.5C76.1979 7.34375 76.625 8.42708 76.625 9.75ZM99.3125 24.1875H89.6562V22.7812C88.9688 23.2917 88.2031 23.6771 87.3594 23.9375C86.4844 24.2083 85.6823 24.3438 84.9531 24.3438C83.5365 24.3438 82.3385 23.8802 81.3594 22.9531C80.401 22.0156 79.9219 20.8385 79.9219 19.4219C79.9219 17.8281 80.5156 16.5208 81.7031 15.5C82.8906 14.4688 84.4427 13.9531 86.3594 13.9531C86.9219 13.9531 87.4792 13.9896 88.0312 14.0625C88.5833 14.1354 89.125 14.2448 89.6562 14.3906C89.6562 13.9427 89.5625 13.5469 89.375 13.2031C89.1979 12.849 88.9427 12.5573 88.6094 12.3281C88.276 12.0885 87.875 11.9115 87.4062 11.7969C86.9375 11.6719 86.4115 11.6094 85.8281 11.6094C84.901 11.6094 84.0052 11.7292 83.1406 11.9688C82.724 12.0833 82.2865 12.2396 81.8281 12.4375C81.3802 12.625 80.9062 12.849 80.4062 13.1094V7.45312C80.5833 7.34896 80.8281 7.22396 81.1406 7.07812C81.4531 6.92188 81.8438 6.74479 82.3125 6.54688C82.7812 6.34896 83.276 6.17188 83.7969 6.01562C84.3281 5.84896 84.8958 5.70833 85.5 5.59375C86.6979 5.34375 88.0885 5.21875 89.6719 5.21875C93.0469 5.21875 95.4948 5.94271 97.0156 7.39062C98.5469 8.82812 99.3125 10.9062 99.3125 13.625V24.1875ZM88.1562 20.5469C88.7396 20.5469 89.2396 20.375 89.6562 20.0312V17.4062C89.3229 17.3021 89.0417 17.2292 88.8125 17.1875C88.5938 17.1354 88.3438 17.1094 88.0625 17.1094C87.4896 17.1094 87.026 17.2604 86.6719 17.5625C86.3177 17.8542 86.1406 18.25 86.1406 18.75C86.1406 19.2604 86.3333 19.6875 86.7188 20.0312C87.1042 20.375 87.5833 20.5469 88.1562 20.5469ZM21.8906 40.3438C24.776 40.3438 27.0104 40.9271 28.5938 42.0938C30.1979 43.2604 31 44.8958 31 47C31 48.1979 30.7292 49.2135 30.1875 50.0469C29.6562 50.8698 28.8906 51.5625 27.8906 52.125C29.1198 52.7708 30.0521 53.526 30.6875 54.3906C31.3229 55.2448 31.6406 56.3125 31.6406 57.5938C31.6406 59.6458 30.9167 61.2552 29.4688 62.4219C28.0104 63.599 26.0677 64.1875 23.6406 64.1875H6.82812V40.3438H21.8906ZM17.3906 49.7812H17.6875C18.2604 49.7812 18.7448 49.7396 19.1406 49.6562C19.5365 49.5729 19.8594 49.4375 20.1094 49.25C20.3594 49.0625 20.5365 48.8229 20.6406 48.5312C20.7552 48.2292 20.8125 47.8698 20.8125 47.4531C20.8125 46.6406 20.5729 46.0521 20.0938 45.6875C19.625 45.3229 18.9531 45.1406 18.0781 45.1406H17.3906V49.7812ZM17.3906 58.9375H17.8281C18.974 58.9375 19.8021 58.75 20.3125 58.375C20.8229 58 21.0781 57.3646 21.0781 56.4688C21.0781 54.6771 20.0938 53.7812 18.125 53.7812H17.3906V58.9375ZM44.0156 56.7031C44.6719 56.7031 45.1927 56.5104 45.5781 56.125C45.9635 55.7396 46.1562 55.2188 46.1562 54.5625C46.1562 53.9062 45.9583 53.3854 45.5625 53C45.1771 52.6042 44.6562 52.4062 44 52.4062C43.6875 52.4062 43.401 52.4583 43.1406 52.5625C42.8906 52.6667 42.6719 52.8177 42.4844 53.0156C42.3073 53.2031 42.1667 53.4323 42.0625 53.7031C41.9583 53.9635 41.9062 54.25 41.9062 54.5625C41.9062 55.1979 42.099 55.7135 42.4844 56.1094C42.8802 56.5052 43.3906 56.7031 44.0156 56.7031ZM44.0156 44.9844C45.5156 44.9844 46.8958 45.2292 48.1562 45.7188C49.4271 46.1979 50.5156 46.8698 51.4219 47.7344C52.3385 48.599 53.0521 49.6302 53.5625 50.8281C54.0729 52.026 54.3281 53.3333 54.3281 54.75C54.3281 56.1562 54.0729 57.4531 53.5625 58.6406C53.0625 59.8281 52.3594 60.8542 51.4531 61.7188C50.5469 62.5833 49.4583 63.2604 48.1875 63.75C46.9271 64.2292 45.5365 64.4688 44.0156 64.4688C42.099 64.4688 40.349 64.0677 38.7656 63.2656C37.2031 62.4635 35.974 61.3281 35.0781 59.8594C34.1927 58.3802 33.75 56.6771 33.75 54.75C33.75 52.8542 34.1823 51.1615 35.0469 49.6719C35.9219 48.1823 37.1354 47.0312 38.6875 46.2188C40.2396 45.3958 42.0156 44.9844 44.0156 44.9844ZM67.0469 40.3438V64.1875H57.3906V40.3438H67.0469ZM79.4688 55.0312C79.4688 55.8542 79.6979 56.4479 80.1562 56.8125C80.6146 57.1667 81.349 57.3438 82.3594 57.3438H83.0781V53.1094C82.8698 52.9635 82.6198 52.849 82.3281 52.7656C82.0365 52.6823 81.75 52.6406 81.4688 52.6406C80.8854 52.6406 80.4062 52.8698 80.0312 53.3281C79.6562 53.7865 79.4688 54.3542 79.4688 55.0312ZM70.1875 54.625C70.1875 52.8854 70.5885 51.2917 71.3906 49.8438C72.2031 48.3958 73.3125 47.2656 74.7188 46.4531C76.1354 45.6302 77.7083 45.2188 79.4375 45.2188C80.1771 45.2188 80.901 45.2917 81.6094 45.4375C82.2865 45.5729 82.776 45.724 83.0781 45.8906V40.3438H92.75V64.1875H81.0938C78.9375 64.1875 77.0312 63.7917 75.375 63C73.7188 62.2083 72.4375 61.0677 71.5312 59.5781C70.6354 58.0885 70.1875 56.4375 70.1875 54.625Z" fill="#003E35"/>
</svg>
