<svg width="550" height="214" viewBox="0 0 550 214" fill="none" xmlns="http://www.w3.org/2000/svg">
<path d="M1.23568 11.1748H24.9801L42.3404 54.9675L60.1486 11.1748H84.005L49.8445 88.008H34.7242L1.23568 11.1748ZM87.4307 53.0634V37.9432C94.8228 32.6791 104.119 30.3271 113.639 30.3271C130.215 30.3271 137.944 37.2712 137.944 47.9114V69.4157C137.944 73.3358 138.504 75.4638 140.632 75.4638C142.536 75.4638 144.664 74.3438 145.672 73.8958V84.2C141.752 85.768 136.6 88.008 128.871 88.008C121.367 88.008 120.023 84.088 119.351 82.0719C116.327 84.536 111.735 88.008 102.103 88.008C88.9987 88.008 85.5267 80.0559 85.5267 74.0078C85.5267 63.1436 94.5988 59.3355 106.695 55.5275C115.207 52.8394 116.103 52.6154 118.231 51.4954C118.231 47.3513 117.559 42.8713 109.495 42.8713C99.9749 42.8713 92.3588 48.1354 87.4307 53.0634ZM118.231 73.5598V60.3436C110.503 63.5916 104.791 65.9437 104.791 71.6557C104.791 75.6878 107.591 77.3678 110.167 77.3678C113.303 77.3678 116.775 74.6798 118.231 73.5598ZM153.395 31.3351H173.108V39.2872C179.38 32.5671 185.54 30.3271 192.82 30.3271C213.54 30.3271 212.868 49.2554 212.868 54.2955V87H193.156V58.1035C193.156 54.5195 193.604 45.5593 185.092 45.5593C178.484 45.5593 174.9 51.9434 173.108 54.2955V87H153.395V31.3351ZM220.643 31.3351H240.579L250.771 59.4475L261.636 31.3351H274.18L285.156 59.4475L295.012 31.3351H314.724L292.772 87H280.34L267.908 56.6475L255.587 87H243.155L220.643 31.3351ZM319.747 53.0634V37.9432C327.139 32.6791 336.435 30.3271 345.955 30.3271C362.532 30.3271 370.26 37.2712 370.26 47.9114V69.4157C370.26 73.3358 370.82 75.4638 372.948 75.4638C374.852 75.4638 376.98 74.3438 377.988 73.8958V84.2C374.068 85.768 368.916 88.008 361.188 88.008C353.684 88.008 352.34 84.088 351.668 82.0719C348.644 84.536 344.051 88.008 334.419 88.008C321.315 88.008 317.843 80.0559 317.843 74.0078C317.843 63.1436 326.915 59.3355 339.011 55.5275C347.523 52.8394 348.42 52.6154 350.548 51.4954C350.548 47.3513 349.876 42.8713 341.811 42.8713C332.291 42.8713 324.675 48.1354 319.747 53.0634ZM350.548 73.5598V60.3436C342.819 63.5916 337.107 65.9437 337.107 71.6557C337.107 75.6878 339.907 77.3678 342.483 77.3678C345.619 77.3678 349.092 74.6798 350.548 73.5598ZM383.732 53.0634V37.9432C391.125 32.6791 400.421 30.3271 409.941 30.3271C426.517 30.3271 434.245 37.2712 434.245 47.9114V69.4157C434.245 73.3358 434.805 75.4638 436.933 75.4638C438.837 75.4638 440.965 74.3438 441.973 73.8958V84.2C438.053 85.768 432.901 88.008 425.173 88.008C417.669 88.008 416.325 84.088 415.653 82.0719C412.629 84.536 408.037 88.008 398.405 88.008C385.3 88.008 381.828 80.0559 381.828 74.0078C381.828 63.1436 390.901 59.3355 402.997 55.5275C411.509 52.8394 412.405 52.6154 414.533 51.4954C414.533 47.3513 413.861 42.8713 405.797 42.8713C396.277 42.8713 388.661 48.1354 383.732 53.0634ZM414.533 73.5598V60.3436C406.805 63.5916 401.093 65.9437 401.093 71.6557C401.093 75.6878 403.893 77.3678 406.469 77.3678C409.605 77.3678 413.077 74.6798 414.533 73.5598ZM449.585 31.3351H469.297V44.7753C471.09 39.8472 477.362 30.3271 486.882 30.3271C492.034 30.3271 495.17 32.2311 498.642 34.3591L491.362 54.0715C488.338 51.1594 485.762 49.8154 482.29 49.8154C477.25 49.8154 473.218 52.2794 469.297 63.0316V87H449.585V31.3351Z" fill="#F4EDD2" fill-opacity="0.2"/>
<path d="M24.2357 49.1748H47.9801L65.3404 92.9675L83.1486 49.1748H107.005L72.8445 126.008H57.7242L24.2357 49.1748ZM110.431 91.0634V75.9432C117.823 70.6791 127.119 68.3271 136.639 68.3271C153.215 68.3271 160.944 75.2712 160.944 85.9114V107.416C160.944 111.336 161.504 113.464 163.632 113.464C165.536 113.464 167.664 112.344 168.672 111.896V122.2C164.752 123.768 159.6 126.008 151.871 126.008C144.367 126.008 143.023 122.088 142.351 120.072C139.327 122.536 134.735 126.008 125.103 126.008C111.999 126.008 108.527 118.056 108.527 112.008C108.527 101.144 117.599 97.3355 129.695 93.5275C138.207 90.8394 139.103 90.6154 141.231 89.4954C141.231 85.3513 140.559 80.8713 132.495 80.8713C122.975 80.8713 115.359 86.1354 110.431 91.0634ZM141.231 111.56V98.3436C133.503 101.592 127.791 103.944 127.791 109.656C127.791 113.688 130.591 115.368 133.167 115.368C136.303 115.368 139.775 112.68 141.231 111.56ZM176.395 69.3351H196.108V77.2872C202.38 70.5671 208.54 68.3271 215.82 68.3271C236.54 68.3271 235.868 87.2554 235.868 92.2955V125H216.156V96.1035C216.156 92.5195 216.604 83.5593 208.092 83.5593C201.484 83.5593 197.9 89.9434 196.108 92.2955V125H176.395V69.3351ZM243.643 69.3351H263.579L273.771 97.4475L284.636 69.3351H297.18L308.156 97.4475L318.012 69.3351H337.724L315.772 125H303.34L290.908 94.6475L278.587 125H266.155L243.643 69.3351ZM342.747 91.0634V75.9432C350.139 70.6791 359.435 68.3271 368.955 68.3271C385.532 68.3271 393.26 75.2712 393.26 85.9114V107.416C393.26 111.336 393.82 113.464 395.948 113.464C397.852 113.464 399.98 112.344 400.988 111.896V122.2C397.068 123.768 391.916 126.008 384.188 126.008C376.684 126.008 375.34 122.088 374.668 120.072C371.644 122.536 367.051 126.008 357.419 126.008C344.315 126.008 340.843 118.056 340.843 112.008C340.843 101.144 349.915 97.3355 362.011 93.5275C370.523 90.8394 371.42 90.6154 373.548 89.4954C373.548 85.3513 372.876 80.8713 364.811 80.8713C355.291 80.8713 347.675 86.1354 342.747 91.0634ZM373.548 111.56V98.3436C365.819 101.592 360.107 103.944 360.107 109.656C360.107 113.688 362.907 115.368 365.483 115.368C368.619 115.368 372.092 112.68 373.548 111.56ZM406.732 91.0634V75.9432C414.125 70.6791 423.421 68.3271 432.941 68.3271C449.517 68.3271 457.245 75.2712 457.245 85.9114V107.416C457.245 111.336 457.805 113.464 459.933 113.464C461.837 113.464 463.965 112.344 464.973 111.896V122.2C461.053 123.768 455.901 126.008 448.173 126.008C440.669 126.008 439.325 122.088 438.653 120.072C435.629 122.536 431.037 126.008 421.405 126.008C408.3 126.008 404.828 118.056 404.828 112.008C404.828 101.144 413.901 97.3355 425.997 93.5275C434.509 90.8394 435.405 90.6154 437.533 89.4954C437.533 85.3513 436.861 80.8713 428.797 80.8713C419.277 80.8713 411.661 86.1354 406.732 91.0634ZM437.533 111.56V98.3436C429.805 101.592 424.093 103.944 424.093 109.656C424.093 113.688 426.893 115.368 429.469 115.368C432.605 115.368 436.077 112.68 437.533 111.56ZM472.585 69.3351H492.297V82.7753C494.09 77.8472 500.362 68.3271 509.882 68.3271C515.034 68.3271 518.17 70.2311 521.642 72.3591L514.362 92.0715C511.338 89.1594 508.762 87.8154 505.29 87.8154C500.25 87.8154 496.218 90.2794 492.297 101.032V125H472.585V69.3351Z" fill="#F4EDD2" fill-opacity="0.5"/>
<path d="M52.2357 91.1748H75.9801L93.3404 134.967L111.149 91.1748H135.005L100.844 168.008H85.7242L52.2357 91.1748ZM138.431 133.063V117.943C145.823 112.679 155.119 110.327 164.639 110.327C181.215 110.327 188.944 117.271 188.944 127.911V149.416C188.944 153.336 189.504 155.464 191.632 155.464C193.536 155.464 195.664 154.344 196.672 153.896V164.2C192.752 165.768 187.6 168.008 179.871 168.008C172.367 168.008 171.023 164.088 170.351 162.072C167.327 164.536 162.735 168.008 153.103 168.008C139.999 168.008 136.527 160.056 136.527 154.008C136.527 143.144 145.599 139.336 157.695 135.527C166.207 132.839 167.103 132.615 169.231 131.495C169.231 127.351 168.559 122.871 160.495 122.871C150.975 122.871 143.359 128.135 138.431 133.063ZM169.231 153.56V140.344C161.503 143.592 155.791 145.944 155.791 151.656C155.791 155.688 158.591 157.368 161.167 157.368C164.303 157.368 167.775 154.68 169.231 153.56ZM204.395 111.335H224.108V119.287C230.38 112.567 236.54 110.327 243.82 110.327C264.54 110.327 263.868 129.255 263.868 134.295V167H244.156V138.104C244.156 134.519 244.604 125.559 236.092 125.559C229.484 125.559 225.9 131.943 224.108 134.295V167H204.395V111.335ZM271.643 111.335H291.579L301.771 139.448L312.636 111.335H325.18L336.156 139.448L346.012 111.335H365.724L343.772 167H331.34L318.908 136.647L306.587 167H294.155L271.643 111.335ZM370.747 133.063V117.943C378.139 112.679 387.435 110.327 396.955 110.327C413.532 110.327 421.26 117.271 421.26 127.911V149.416C421.26 153.336 421.82 155.464 423.948 155.464C425.852 155.464 427.98 154.344 428.988 153.896V164.2C425.068 165.768 419.916 168.008 412.188 168.008C404.684 168.008 403.34 164.088 402.668 162.072C399.644 164.536 395.051 168.008 385.419 168.008C372.315 168.008 368.843 160.056 368.843 154.008C368.843 143.144 377.915 139.336 390.011 135.527C398.523 132.839 399.42 132.615 401.548 131.495C401.548 127.351 400.876 122.871 392.811 122.871C383.291 122.871 375.675 128.135 370.747 133.063ZM401.548 153.56V140.344C393.819 143.592 388.107 145.944 388.107 151.656C388.107 155.688 390.907 157.368 393.483 157.368C396.619 157.368 400.092 154.68 401.548 153.56ZM434.732 133.063V117.943C442.125 112.679 451.421 110.327 460.941 110.327C477.517 110.327 485.245 117.271 485.245 127.911V149.416C485.245 153.336 485.805 155.464 487.933 155.464C489.837 155.464 491.965 154.344 492.973 153.896V164.2C489.053 165.768 483.901 168.008 476.173 168.008C468.669 168.008 467.325 164.088 466.653 162.072C463.629 164.536 459.037 168.008 449.405 168.008C436.3 168.008 432.828 160.056 432.828 154.008C432.828 143.144 441.901 139.336 453.997 135.527C462.509 132.839 463.405 132.615 465.533 131.495C465.533 127.351 464.861 122.871 456.797 122.871C447.277 122.871 439.661 128.135 434.732 133.063ZM465.533 153.56V140.344C457.805 143.592 452.093 145.944 452.093 151.656C452.093 155.688 454.893 157.368 457.469 157.368C460.605 157.368 464.077 154.68 465.533 153.56ZM500.585 111.335H520.297V124.775C522.09 119.847 528.362 110.327 537.882 110.327C543.034 110.327 546.17 112.231 549.642 114.359L542.362 134.071C539.338 131.159 536.762 129.815 533.29 129.815C528.25 129.815 524.218 132.279 520.297 143.032V167H500.585V111.335Z" fill="#F4EDD2"/>
</svg>
