<svg width="426" height="832" viewBox="0 0 426 832" fill="none" xmlns="http://www.w3.org/2000/svg">
<g clip-path="url(#clip0_191_346)">
<rect width="426" height="832" fill="white"/>
<rect width="426" height="832" fill="#0D3D35"/>
<path d="M172.414 173.335L142.758 370H92.8114L122.467 173.335H172.414ZM370.072 236.62C370.072 245.89 368.511 255.113 365.389 264.289C362.362 273.465 357.727 283.161 351.484 293.377C345.335 303.499 337.294 315.087 327.362 328.141L295.436 370H243.928L289.334 299.337C283.185 301.513 277.652 302.6 272.733 302.6C263.935 302.6 255.658 300.141 247.901 295.222C240.144 290.208 233.948 283.303 229.313 274.506C224.678 265.708 222.36 255.681 222.36 244.424C222.36 233.073 225.34 221.674 231.3 210.228C237.354 198.782 246.293 189.322 258.118 181.849C269.942 174.376 284.273 170.639 301.111 170.639C311.801 170.639 321.449 172.295 330.058 175.606C338.666 178.916 345.902 183.552 351.767 189.511C357.727 195.376 362.268 202.329 365.389 210.37C368.511 218.316 370.072 227.066 370.072 236.62ZM321.828 233.073C321.828 226.262 319.889 220.87 316.01 216.897C312.226 212.829 307.402 210.795 301.537 210.795C297.659 210.795 293.496 212.025 289.05 214.485C284.699 216.944 281.01 220.822 277.983 226.12C275.05 231.417 273.584 238.039 273.584 245.985C273.584 251.661 275.476 256.485 279.26 260.458C283.138 264.336 287.726 266.276 293.023 266.276C298.037 266.276 302.767 264.668 307.213 261.451C311.753 258.235 315.301 254.12 317.855 249.107C320.504 243.998 321.828 238.654 321.828 233.073Z" fill="#F4EDD2"/>
<path d="M190.718 516.417C190.718 528.809 187.029 541.721 179.65 555.154C172.272 568.587 159.028 588.877 139.92 616.026H189.867L182.914 662H51.5204V657.885C72.899 633.196 90.0682 612.195 103.028 594.884C116.65 576.438 126.298 561.208 131.974 549.195C137.65 537.086 140.488 528.1 140.488 522.235C140.488 517.221 138.596 512.728 134.812 508.755C131.123 504.782 125.447 502.795 117.785 502.795C111.068 502.795 104.92 504.214 99.3385 507.052C93.852 509.89 86.1424 514.667 76.2099 521.383L82.5951 477.822C98.8656 467.7 115.846 462.639 133.535 462.639C144.413 462.639 154.251 465.052 163.049 469.876C171.846 474.606 178.657 481.133 183.482 489.457C188.306 497.687 190.718 506.674 190.718 516.417ZM372.91 511.735C372.91 519.586 371.207 526.681 367.801 533.019C364.396 539.262 359.903 544.512 354.322 548.769C348.74 553.026 342.355 556.384 335.166 558.843C347.274 563.951 355.646 570.668 360.281 578.992C365.011 587.317 367.376 595.594 367.376 603.824C367.376 614.135 364.869 623.216 359.855 631.067C354.842 638.824 348.362 645.162 340.416 650.081C332.47 655 324.098 658.642 315.301 661.007C306.503 663.372 298.51 664.554 291.321 664.554C278.077 664.554 266.016 662.095 255.138 657.176C244.354 652.257 235.935 645.493 229.881 636.885C223.921 628.277 220.941 618.533 220.941 607.655C220.941 600.182 222.36 593.134 225.198 586.513C228.131 579.796 232.671 573.742 238.82 568.35C244.969 562.864 252.868 558.323 262.516 554.728C258.922 551.985 255.753 549.1 253.009 546.073C250.266 542.951 247.901 539.073 245.915 534.438C244.023 529.708 243.077 524.079 243.077 517.552C243.077 509.039 245.678 500.525 250.881 492.011C256.084 483.498 263.888 476.498 274.293 471.011C284.794 465.43 297.517 462.639 312.463 462.639C328.45 462.639 340.984 465.477 350.065 471.153C359.146 476.829 365.2 483.403 368.227 490.876C371.349 498.349 372.91 505.302 372.91 511.735ZM325.233 513.154C325.233 508.708 323.956 504.734 321.402 501.234C318.943 497.64 315.395 495.842 310.76 495.842C305.179 495.842 300.449 498.302 296.571 503.221C292.692 508.045 290.753 514.478 290.753 522.518C290.753 526.964 292.03 531.079 294.584 534.863C297.138 538.647 300.969 540.539 306.078 540.539C312.132 540.539 316.814 537.843 320.125 532.451C323.531 526.964 325.233 520.532 325.233 513.154ZM316.294 597.722C316.294 583.817 310.098 576.864 297.706 576.864C289.949 576.864 283.753 579.796 279.118 585.661C274.483 591.432 272.165 598.479 272.165 606.803C272.165 612.668 273.82 617.729 277.131 621.986C280.442 626.148 285.55 628.229 292.456 628.229C295.956 628.229 299.551 627.141 303.24 624.966C307.024 622.695 310.145 619.29 312.605 614.749C315.064 610.114 316.294 604.438 316.294 597.722Z" fill="#F4EDD2"/>
<path d="M207.177 170.458V181.809H177.521C189.535 192.782 195.542 204.323 195.542 216.431C195.542 227.31 193.177 235.918 188.447 242.256C183.812 248.594 178.231 253.229 171.704 256.162C165.271 258.999 156.663 261.837 145.879 264.675C135.095 267.418 128.332 270.02 125.588 272.479C122.845 274.939 121.473 277.777 121.473 280.993C121.473 284.777 123.223 287.804 126.723 290.074C130.318 292.344 141.339 294 159.785 295.04C178.326 296.081 190.812 299.628 197.245 305.682C203.677 311.737 206.893 319.777 206.893 329.804C206.893 341.629 201.738 350.899 191.427 357.616C181.116 364.426 166.785 367.832 148.433 367.832C130.176 367.832 116.081 364.616 106.149 358.183C96.2163 351.845 91.2501 343.426 91.2501 332.926C91.2501 315.899 103.926 305.351 129.278 301.284V300.716C115.183 297.405 108.135 291.209 108.135 282.128C108.135 272.952 116.838 265.858 134.244 260.844V260.277C122.798 256.871 114.095 251.243 108.135 243.391C102.27 235.445 99.338 226.648 99.338 216.999C99.338 203.283 104.115 192.12 113.669 183.512C123.223 174.809 136.94 170.458 154.818 170.458H207.177ZM147.298 251.621C156.852 251.621 165.035 248.216 171.846 241.405C178.751 234.499 182.204 226.269 182.204 216.715C182.204 207.161 178.751 199.026 171.846 192.309C165.035 185.499 156.758 182.093 147.014 182.093C137.366 182.093 129.23 185.404 122.609 192.026C115.987 198.647 112.676 206.688 112.676 216.148C112.676 225.986 116.034 234.357 122.75 241.263C129.467 248.168 137.649 251.621 147.298 251.621ZM149.285 356.197C162.812 356.197 173.548 353.879 181.494 349.244C189.535 344.609 193.555 338.507 193.555 330.94C193.555 315.615 179.697 307.953 151.981 307.953C120.386 307.953 104.588 315.993 104.588 332.075C104.588 348.156 119.487 356.197 149.285 356.197ZM244.353 102.775V126.613H230.306V102.775H244.353ZM244.353 170.458V301H230.306V170.458H244.353ZM299.124 102.775V301H285.077V102.775H299.124ZM353.895 102.775V301H339.848V102.775H353.895Z" fill="#D02B21"/>
<path d="M65.8187 539.971V555.012C52.5753 546.12 40.6562 541.674 30.0615 541.674C22.21 541.674 15.5883 543.803 10.1964 548.059C4.80442 552.316 2.10844 557.566 2.10844 563.81C2.10844 568.256 3.71657 572.37 6.93283 576.154C10.2437 579.844 19.2776 584.526 34.0345 590.202C48.8861 595.878 58.5821 601.79 63.1227 607.939C67.6633 614.087 69.9336 620.945 69.9336 628.513C69.9336 638.635 65.8187 647.196 57.5889 654.196C49.359 661.101 39.19 664.554 27.0817 664.554C13.9329 664.554 0.878695 660.581 -12.0809 652.635V639.013C3.33819 646.959 17.0073 650.932 28.9264 650.932C36.967 650.932 43.5414 648.804 48.6496 644.547C53.8523 640.29 56.4537 634.851 56.4537 628.229C56.4537 623.689 54.751 619.526 51.3456 615.743C48.0347 611.864 38.9535 606.993 24.102 601.128C9.34502 595.263 -0.256454 589.492 -4.70246 583.817C-9.05386 578.046 -11.2296 571.661 -11.2296 564.661C-11.2296 554.728 -7.16195 546.309 0.973291 539.404C9.20313 532.404 19.183 528.904 30.9129 528.904C41.6022 528.904 53.2375 532.593 65.8187 539.971ZM201.327 639.297V650.932C189.314 660.013 180.516 664.554 174.935 664.554C171.719 664.554 169.496 663.514 168.266 661.432C167.036 659.257 166.138 654.905 165.57 648.378C151.854 659.162 138.232 664.554 124.705 664.554C114.867 664.554 106.542 661.338 99.7313 654.905C92.9204 648.473 89.515 640.669 89.515 631.493C89.515 617.303 96.0894 606.141 109.238 598.006C122.387 589.776 141.164 585.046 165.57 583.817V567.215C165.57 549.431 155.921 540.539 136.624 540.539C124.326 540.539 111.036 546.073 96.7515 557.141V542.809C111.508 533.539 125.556 528.904 138.894 528.904C150.718 528.904 160.462 531.836 168.124 537.701C175.786 543.471 179.617 551.89 179.617 562.958V644.263C179.617 648.709 180.658 650.932 182.739 650.932C185.388 650.932 191.584 647.054 201.327 639.297ZM165.57 636.175V595.452C147.691 594.79 132.84 597.959 121.015 604.959C109.285 611.864 103.421 620.709 103.421 631.493C103.421 637.547 105.88 642.655 110.799 646.817C115.718 650.98 121.867 653.061 129.245 653.061C141.164 653.061 153.273 647.432 165.57 636.175ZM234.956 531.458V554.161H235.524C246.402 537.323 260.733 528.904 278.517 528.904C293.274 528.904 305.051 533.633 313.849 543.093C322.646 552.553 327.045 565.654 327.045 582.398V662H313.139V587.648C313.139 557.566 301.315 542.526 277.666 542.526C260.355 542.526 246.118 551.843 234.956 570.479V662H221.05V531.458H234.956ZM435.31 539.971V555.012C422.066 546.12 410.147 541.674 399.553 541.674C391.701 541.674 385.08 543.803 379.688 548.059C374.296 552.316 371.6 557.566 371.6 563.81C371.6 568.256 373.208 572.37 376.424 576.154C379.735 579.844 388.769 584.526 403.526 590.202C418.377 595.878 428.073 601.79 432.614 607.939C437.155 614.087 439.425 620.945 439.425 628.513C439.425 638.635 435.31 647.196 427.08 654.196C418.85 661.101 408.681 664.554 396.573 664.554C383.424 664.554 370.37 660.581 357.41 652.635V639.013C372.829 646.959 386.498 650.932 398.418 650.932C406.458 650.932 413.033 648.804 418.141 644.547C423.344 640.29 425.945 634.851 425.945 628.229C425.945 623.689 424.242 619.526 420.837 615.743C417.526 611.864 408.445 606.993 393.593 601.128C378.836 595.263 369.235 589.492 364.789 583.817C360.437 578.046 358.262 571.661 358.262 564.661C358.262 554.728 362.329 546.309 370.464 539.404C378.694 532.404 388.674 528.904 400.404 528.904C411.093 528.904 422.729 532.593 435.31 539.971Z" fill="#D02B21"/>
</g>
<defs>
<clipPath id="clip0_191_346">
<rect width="426" height="832" fill="white"/>
</clipPath>
</defs>
</svg>
