<svg width="1488" height="214" viewBox="0 0 1488 214" fill="none"
    xmlns="http://www.w3.org/2000/svg">
    <path d="M1.06392 11.1748H24.6963L40.4886 53.1754L58.5209 11.1748H74.8731L92.5694 53.1754L109.034 11.1748H132.442L99.6255 88.008H86.4093L66.697 43.3193L46.5367 88.008H33.2085L1.06392 11.1748ZM136.041 53.0634V37.9432C143.433 32.6791 152.729 30.3271 162.249 30.3271C178.826 30.3271 186.554 37.2712 186.554 47.9114V69.4157C186.554 73.3358 187.114 75.4638 189.242 75.4638C191.146 75.4638 193.274 74.3438 194.282 73.8958V84.2C190.362 85.768 185.21 88.008 177.482 88.008C169.978 88.008 168.634 84.088 167.962 82.0719C164.937 84.536 160.345 88.008 150.713 88.008C137.609 88.008 134.137 80.0559 134.137 74.0078C134.137 63.1436 143.209 59.3355 155.305 55.5275C163.817 52.8394 164.713 52.6154 166.842 51.4954C166.842 47.3513 166.17 42.8713 158.105 42.8713C148.585 42.8713 140.969 48.1354 136.041 53.0634ZM166.842 73.5598V60.3436C159.113 63.5916 153.401 65.9437 153.401 71.6557C153.401 75.6878 156.201 77.3678 158.777 77.3678C161.913 77.3678 165.385 74.6798 166.842 73.5598ZM242.923 31.3351V44.9993H224.107V62.8076C224.107 67.5117 224.107 72.3278 232.059 72.3278C236.315 72.3278 240.011 70.6477 244.379 68.4077V83.7519C240.795 85.544 232.843 88.008 225.675 88.008C211.003 88.008 204.395 80.5039 204.395 67.1757V44.9993H195.434V41.5273L221.867 14.6468H224.107V31.3351H242.923ZM286.226 11.1748H305.938V39.2872C312.882 31.8951 319.378 30.3271 325.65 30.3271C337.747 30.3271 345.699 36.7112 345.699 52.8394V87H325.986V58.1035C325.986 57.6555 327.443 45.5593 317.922 45.5593C312.098 45.5593 308.178 50.9354 305.938 54.2955V87H286.226V11.1748ZM414.551 60.0076V63.9276H375.35C376.806 70.8717 383.639 75.4638 391.143 75.4638C398.647 75.4638 406.151 73.1118 413.095 69.8637V82.0719C410.183 83.6399 401.783 88.008 386.999 88.008C365.718 88.008 355.078 75.0158 355.078 58.8875C355.078 42.7593 365.718 30.3271 386.999 30.3271C399.431 30.3271 414.551 37.6072 414.551 60.0076ZM374.79 54.1835H396.071C396.071 47.1273 392.375 42.4233 385.767 42.4233C379.383 42.4233 374.79 47.1273 374.79 54.1835ZM466.599 31.3351V44.9993H447.782V62.8076C447.782 67.5117 447.782 72.3278 455.735 72.3278C459.991 72.3278 463.687 70.6477 468.055 68.4077V83.7519C464.471 85.544 456.519 88.008 449.35 88.008C434.678 88.008 428.07 80.5039 428.07 67.1757V44.9993H419.11V41.5273L445.542 14.6468H447.782V31.3351H466.599ZM509.789 87V11.1748H529.502V34.5831C531.854 32.7911 537.118 30.3271 544.398 30.3271C563.102 30.3271 571.054 45.1113 571.054 59.5595C571.054 80.0559 556.942 88.008 545.742 88.008C536.222 88.008 531.742 83.8639 529.502 81.9599V87H509.789ZM529.502 48.0234V69.3037C531.406 71.0957 534.542 73.2238 539.47 73.2238C542.27 73.2238 550.334 71.7677 550.334 59.1115C550.334 48.9194 544.734 44.4393 539.47 44.4393C535.102 44.4393 531.182 46.9033 529.502 48.0234ZM582.223 31.3351H601.935V87H582.223V31.3351ZM592.079 10.1667C596.671 10.1667 600.367 13.8628 600.367 18.4549C600.367 23.0469 596.671 26.743 592.079 26.743C587.487 26.743 583.791 23.0469 583.791 18.4549C583.791 13.8628 587.487 10.1667 592.079 10.1667ZM616.458 31.3351H636.17V90.2481C636.17 107.832 622.618 113.32 614.778 113.32L608.17 98.3122C615.562 95.9601 616.458 92.1521 616.458 81.0639V31.3351ZM626.314 10.1667C630.906 10.1667 634.602 13.8628 634.602 18.4549C634.602 23.0469 630.906 26.743 626.314 26.743C621.722 26.743 618.026 23.0469 618.026 18.4549C618.026 13.8628 621.722 10.1667 626.314 10.1667ZM647.221 45.8953V31.3351H702.662V33.1271L676.005 72.4398H702.102V87H644.981V85.208L671.637 45.8953H647.221ZM739.52 30.3271C760.8 30.3271 771.441 42.8713 771.441 59.1115C771.441 75.3518 760.8 88.008 739.52 88.008C718.24 88.008 707.6 75.3518 707.6 59.1115C707.6 42.8713 718.24 30.3271 739.52 30.3271ZM739.52 44.9993C732.128 44.9993 728.32 50.5994 728.32 59.1115C728.32 67.6237 732.128 73.3358 739.52 73.3358C746.912 73.3358 750.72 67.6237 750.72 59.1115C750.72 50.5994 746.912 44.9993 739.52 44.9993ZM781.593 31.3351H801.306V39.2872C807.578 32.5671 813.738 30.3271 821.018 30.3271C841.738 30.3271 841.066 49.2554 841.066 54.2955V87H821.354V58.1035C821.354 54.5195 821.802 45.5593 813.29 45.5593C806.682 45.5593 803.098 51.9434 801.306 54.2955V87H781.593V31.3351ZM911.711 87H891.998V81.9599C889.758 83.8639 885.278 88.008 875.758 88.008C864.558 88.008 850.446 80.0559 850.446 59.5595C850.446 45.1113 858.398 30.3271 877.102 30.3271C885.614 30.3271 889.422 32.9031 891.998 34.5831V11.1748H911.711V87ZM891.998 48.0234C888.974 46.3433 886.174 44.4393 882.03 44.4393C875.982 44.4393 871.166 49.8154 871.166 59.1115C871.166 69.8637 877.102 73.2238 882.03 73.2238C887.63 73.2238 890.654 70.4237 891.998 69.3037V48.0234ZM981.232 60.0076V63.9276H942.032C943.488 70.8717 950.32 75.4638 957.824 75.4638C965.328 75.4638 972.832 73.1118 979.776 69.8637V82.0719C976.864 83.6399 968.464 88.008 953.68 88.008C932.399 88.008 921.759 75.0158 921.759 58.8875C921.759 42.7593 932.399 30.3271 953.68 30.3271C966.112 30.3271 981.232 37.6072 981.232 60.0076ZM941.472 54.1835H962.752C962.752 47.1273 959.056 42.4233 952.448 42.4233C946.064 42.4233 941.472 47.1273 941.472 54.1835ZM990.719 31.3351H1010.43V44.7753C1012.22 39.8472 1018.5 30.3271 1028.02 30.3271C1033.17 30.3271 1036.3 32.2311 1039.78 34.3591L1032.5 54.0715C1029.47 51.1594 1026.9 49.8154 1023.42 49.8154C1018.38 49.8154 1014.35 52.2794 1010.43 63.0316V87H990.719V31.3351ZM1178.55 53.0634V87H1158.84V57.3195C1158.84 49.3674 1156.26 45.5593 1150.77 45.5593C1144.28 45.5593 1140.25 52.1674 1138.79 54.2955V87H1119.08V57.3195C1119.08 50.3754 1117.4 45.5593 1110.9 45.5593C1104.63 45.5593 1101.38 51.2714 1099.03 54.2955V87H1079.32V31.3351H1099.03V39.2872C1104.74 33.2391 1110.45 30.3271 1118.63 30.3271C1125.8 30.3271 1133.3 32.9031 1136.89 41.1912C1142.82 34.4711 1149.09 30.3271 1158.5 30.3271C1172.17 30.3271 1178.55 38.7272 1178.55 53.0634ZM1189.78 53.0634V37.9432C1197.17 32.6791 1206.47 30.3271 1215.99 30.3271C1232.56 30.3271 1240.29 37.2712 1240.29 47.9114V69.4157C1240.29 73.3358 1240.85 75.4638 1242.98 75.4638C1244.88 75.4638 1247.01 74.3438 1248.02 73.8958V84.2C1244.1 85.768 1238.95 88.008 1231.22 88.008C1223.71 88.008 1222.37 84.088 1221.7 82.0719C1218.67 84.536 1214.08 88.008 1204.45 88.008C1191.35 88.008 1187.87 80.0559 1187.87 74.0078C1187.87 63.1436 1196.95 59.3355 1209.04 55.5275C1217.55 52.8394 1218.45 52.6154 1220.58 51.4954C1220.58 47.3513 1219.91 42.8713 1211.84 42.8713C1202.32 42.8713 1194.71 48.1354 1189.78 53.0634ZM1220.58 73.5598V60.3436C1212.85 63.5916 1207.14 65.9437 1207.14 71.6557C1207.14 75.6878 1209.94 77.3678 1212.51 77.3678C1215.65 77.3678 1219.12 74.6798 1220.58 73.5598ZM1253.76 53.0634V37.9432C1261.15 32.6791 1270.45 30.3271 1279.97 30.3271C1296.55 30.3271 1304.28 37.2712 1304.28 47.9114V69.4157C1304.28 73.3358 1304.84 75.4638 1306.96 75.4638C1308.87 75.4638 1311 74.3438 1312 73.8958V84.2C1308.08 85.768 1302.93 88.008 1295.2 88.008C1287.7 88.008 1286.36 84.088 1285.68 82.0719C1282.66 84.536 1278.07 88.008 1268.43 88.008C1255.33 88.008 1251.86 80.0559 1251.86 74.0078C1251.86 63.1436 1260.93 59.3355 1273.03 55.5275C1281.54 52.8394 1282.44 52.6154 1284.56 51.4954C1284.56 47.3513 1283.89 42.8713 1275.83 42.8713C1266.31 42.8713 1258.69 48.1354 1253.76 53.0634ZM1284.56 73.5598V60.3436C1276.83 63.5916 1271.12 65.9437 1271.12 71.6557C1271.12 75.6878 1273.92 77.3678 1276.5 77.3678C1279.63 77.3678 1283.11 74.6798 1284.56 73.5598ZM1319.62 11.1748H1339.55V55.6395L1359.04 31.3351H1382.67L1360.94 57.3195L1385.92 87H1360.94L1339.55 60.5676V87H1319.62V11.1748ZM1433.05 31.3351V44.9993H1414.24V62.8076C1414.24 67.5117 1414.24 72.3278 1422.19 72.3278C1426.44 72.3278 1430.14 70.6477 1434.51 68.4077V83.7519C1430.92 85.544 1422.97 88.008 1415.8 88.008C1401.13 88.008 1394.52 80.5039 1394.52 67.1757V44.9993H1385.56V41.5273L1412 14.6468H1414.24V31.3351H1433.05Z" fill="#F4EDD2" fill-opacity="0.2"/>
    <path d="M24.0639 49.1748H47.6963L63.4886 91.1754L81.5209 49.1748H97.8731L115.569 91.1754L132.034 49.1748H155.442L122.626 126.008H109.409L89.697 81.3193L69.5367 126.008H56.2085L24.0639 49.1748ZM159.041 91.0634V75.9432C166.433 70.6791 175.729 68.3271 185.249 68.3271C201.826 68.3271 209.554 75.2712 209.554 85.9114V107.416C209.554 111.336 210.114 113.464 212.242 113.464C214.146 113.464 216.274 112.344 217.282 111.896V122.2C213.362 123.768 208.21 126.008 200.482 126.008C192.978 126.008 191.634 122.088 190.962 120.072C187.937 122.536 183.345 126.008 173.713 126.008C160.609 126.008 157.137 118.056 157.137 112.008C157.137 101.144 166.209 97.3355 178.305 93.5275C186.817 90.8394 187.713 90.6154 189.842 89.4954C189.842 85.3513 189.17 80.8713 181.105 80.8713C171.585 80.8713 163.969 86.1354 159.041 91.0634ZM189.842 111.56V98.3436C182.113 101.592 176.401 103.944 176.401 109.656C176.401 113.688 179.201 115.368 181.777 115.368C184.913 115.368 188.385 112.68 189.842 111.56ZM265.923 69.3351V82.9993H247.107V100.808C247.107 105.512 247.107 110.328 255.059 110.328C259.315 110.328 263.011 108.648 267.379 106.408V121.752C263.795 123.544 255.843 126.008 248.675 126.008C234.003 126.008 227.395 118.504 227.395 105.176V82.9993H218.434V79.5273L244.867 52.6468H247.107V69.3351H265.923ZM309.226 49.1748H328.938V77.2872C335.882 69.8951 342.378 68.3271 348.65 68.3271C360.747 68.3271 368.699 74.7112 368.699 90.8394V125H348.986V96.1035C348.986 95.6555 350.443 83.5593 340.922 83.5593C335.098 83.5593 331.178 88.9354 328.938 92.2955V125H309.226V49.1748ZM437.551 98.0076V101.928H398.35C399.806 108.872 406.639 113.464 414.143 113.464C421.647 113.464 429.151 111.112 436.095 107.864V120.072C433.183 121.64 424.783 126.008 409.999 126.008C388.718 126.008 378.078 113.016 378.078 96.8875C378.078 80.7593 388.718 68.3271 409.999 68.3271C422.431 68.3271 437.551 75.6072 437.551 98.0076ZM397.79 92.1835H419.071C419.071 85.1273 415.375 80.4233 408.767 80.4233C402.383 80.4233 397.79 85.1273 397.79 92.1835ZM489.599 69.3351V82.9993H470.782V100.808C470.782 105.512 470.782 110.328 478.735 110.328C482.991 110.328 486.687 108.648 491.055 106.408V121.752C487.471 123.544 479.519 126.008 472.35 126.008C457.678 126.008 451.07 118.504 451.07 105.176V82.9993H442.11V79.5273L468.542 52.6468H470.782V69.3351H489.599ZM532.789 125V49.1748H552.502V72.5831C554.854 70.7911 560.118 68.3271 567.398 68.3271C586.102 68.3271 594.054 83.1113 594.054 97.5595C594.054 118.056 579.942 126.008 568.742 126.008C559.222 126.008 554.742 121.864 552.502 119.96V125H532.789ZM552.502 86.0234V107.304C554.406 109.096 557.542 111.224 562.47 111.224C565.27 111.224 573.334 109.768 573.334 97.1115C573.334 86.9194 567.734 82.4393 562.47 82.4393C558.102 82.4393 554.182 84.9033 552.502 86.0234ZM605.223 69.3351H624.935V125H605.223V69.3351ZM615.079 48.1667C619.671 48.1667 623.367 51.8628 623.367 56.4549C623.367 61.0469 619.671 64.743 615.079 64.743C610.487 64.743 606.791 61.0469 606.791 56.4549C606.791 51.8628 610.487 48.1667 615.079 48.1667ZM639.458 69.3351H659.17V128.248C659.17 145.832 645.618 151.32 637.778 151.32L631.17 136.312C638.562 133.96 639.458 130.152 639.458 119.064V69.3351ZM649.314 48.1667C653.906 48.1667 657.602 51.8628 657.602 56.4549C657.602 61.0469 653.906 64.743 649.314 64.743C644.722 64.743 641.026 61.0469 641.026 56.4549C641.026 51.8628 644.722 48.1667 649.314 48.1667ZM670.221 83.8953V69.3351H725.662V71.1271L699.005 110.44H725.102V125H667.981V123.208L694.637 83.8953H670.221ZM762.52 68.3271C783.8 68.3271 794.441 80.8713 794.441 97.1115C794.441 113.352 783.8 126.008 762.52 126.008C741.24 126.008 730.6 113.352 730.6 97.1115C730.6 80.8713 741.24 68.3271 762.52 68.3271ZM762.52 82.9993C755.128 82.9993 751.32 88.5994 751.32 97.1115C751.32 105.624 755.128 111.336 762.52 111.336C769.912 111.336 773.72 105.624 773.72 97.1115C773.72 88.5994 769.912 82.9993 762.52 82.9993ZM804.593 69.3351H824.306V77.2872C830.578 70.5671 836.738 68.3271 844.018 68.3271C864.738 68.3271 864.066 87.2554 864.066 92.2955V125H844.354V96.1035C844.354 92.5195 844.802 83.5593 836.29 83.5593C829.682 83.5593 826.098 89.9434 824.306 92.2955V125H804.593V69.3351ZM934.711 125H914.998V119.96C912.758 121.864 908.278 126.008 898.758 126.008C887.558 126.008 873.446 118.056 873.446 97.5595C873.446 83.1113 881.398 68.3271 900.102 68.3271C908.614 68.3271 912.422 70.9031 914.998 72.5831V49.1748H934.711V125ZM914.998 86.0234C911.974 84.3433 909.174 82.4393 905.03 82.4393C898.982 82.4393 894.166 87.8154 894.166 97.1115C894.166 107.864 900.102 111.224 905.03 111.224C910.63 111.224 913.654 108.424 914.998 107.304V86.0234ZM1004.23 98.0076V101.928H965.032C966.488 108.872 973.32 113.464 980.824 113.464C988.328 113.464 995.832 111.112 1002.78 107.864V120.072C999.864 121.64 991.464 126.008 976.68 126.008C955.399 126.008 944.759 113.016 944.759 96.8875C944.759 80.7593 955.399 68.3271 976.68 68.3271C989.112 68.3271 1004.23 75.6072 1004.23 98.0076ZM964.472 92.1835H985.752C985.752 85.1273 982.056 80.4233 975.448 80.4233C969.064 80.4233 964.472 85.1273 964.472 92.1835ZM1013.72 69.3351H1033.43V82.7753C1035.22 77.8472 1041.5 68.3271 1051.02 68.3271C1056.17 68.3271 1059.3 70.2311 1062.78 72.3591L1055.5 92.0715C1052.47 89.1594 1049.9 87.8154 1046.42 87.8154C1041.38 87.8154 1037.35 90.2794 1033.43 101.032V125H1013.72V69.3351ZM1201.55 91.0634V125H1181.84V95.3195C1181.84 87.3674 1179.26 83.5593 1173.77 83.5593C1167.28 83.5593 1163.25 90.1674 1161.79 92.2955V125H1142.08V95.3195C1142.08 88.3754 1140.4 83.5593 1133.9 83.5593C1127.63 83.5593 1124.38 89.2714 1122.03 92.2955V125H1102.32V69.3351H1122.03V77.2872C1127.74 71.2391 1133.45 68.3271 1141.63 68.3271C1148.8 68.3271 1156.3 70.9031 1159.89 79.1912C1165.82 72.4711 1172.09 68.3271 1181.5 68.3271C1195.17 68.3271 1201.55 76.7272 1201.55 91.0634ZM1212.78 91.0634V75.9432C1220.17 70.6791 1229.47 68.3271 1238.99 68.3271C1255.56 68.3271 1263.29 75.2712 1263.29 85.9114V107.416C1263.29 111.336 1263.85 113.464 1265.98 113.464C1267.88 113.464 1270.01 112.344 1271.02 111.896V122.2C1267.1 123.768 1261.95 126.008 1254.22 126.008C1246.71 126.008 1245.37 122.088 1244.7 120.072C1241.67 122.536 1237.08 126.008 1227.45 126.008C1214.35 126.008 1210.87 118.056 1210.87 112.008C1210.87 101.144 1219.95 97.3355 1232.04 93.5275C1240.55 90.8394 1241.45 90.6154 1243.58 89.4954C1243.58 85.3513 1242.91 80.8713 1234.84 80.8713C1225.32 80.8713 1217.71 86.1354 1212.78 91.0634ZM1243.58 111.56V98.3436C1235.85 101.592 1230.14 103.944 1230.14 109.656C1230.14 113.688 1232.94 115.368 1235.51 115.368C1238.65 115.368 1242.12 112.68 1243.58 111.56ZM1276.76 91.0634V75.9432C1284.15 70.6791 1293.45 68.3271 1302.97 68.3271C1319.55 68.3271 1327.28 75.2712 1327.28 85.9114V107.416C1327.28 111.336 1327.84 113.464 1329.96 113.464C1331.87 113.464 1334 112.344 1335 111.896V122.2C1331.08 123.768 1325.93 126.008 1318.2 126.008C1310.7 126.008 1309.36 122.088 1308.68 120.072C1305.66 122.536 1301.07 126.008 1291.43 126.008C1278.33 126.008 1274.86 118.056 1274.86 112.008C1274.86 101.144 1283.93 97.3355 1296.03 93.5275C1304.54 90.8394 1305.44 90.6154 1307.56 89.4954C1307.56 85.3513 1306.89 80.8713 1298.83 80.8713C1289.31 80.8713 1281.69 86.1354 1276.76 91.0634ZM1307.56 111.56V98.3436C1299.83 101.592 1294.12 103.944 1294.12 109.656C1294.12 113.688 1296.92 115.368 1299.5 115.368C1302.63 115.368 1306.11 112.68 1307.56 111.56ZM1342.62 49.1748H1362.55V93.6395L1382.04 69.3351H1405.67L1383.94 95.3195L1408.92 125H1383.94L1362.55 98.5676V125H1342.62V49.1748ZM1456.05 69.3351V82.9993H1437.24V100.808C1437.24 105.512 1437.24 110.328 1445.19 110.328C1449.44 110.328 1453.14 108.648 1457.51 106.408V121.752C1453.92 123.544 1445.97 126.008 1438.8 126.008C1424.13 126.008 1417.52 118.504 1417.52 105.176V82.9993H1408.56V79.5273L1435 52.6468H1437.24V69.3351H1456.05Z" fill="#F4EDD2" fill-opacity="0.5"/>
    <path d="M52.0639 91.1748H75.6963L91.4886 133.175L109.521 91.1748H125.873L143.569 133.175L160.034 91.1748H183.442L150.626 168.008H137.409L117.697 123.319L97.5367 168.008H84.2085L52.0639 91.1748ZM187.041 133.063V117.943C194.433 112.679 203.729 110.327 213.249 110.327C229.826 110.327 237.554 117.271 237.554 127.911V149.416C237.554 153.336 238.114 155.464 240.242 155.464C242.146 155.464 244.274 154.344 245.282 153.896V164.2C241.362 165.768 236.21 168.008 228.482 168.008C220.978 168.008 219.634 164.088 218.962 162.072C215.937 164.536 211.345 168.008 201.713 168.008C188.609 168.008 185.137 160.056 185.137 154.008C185.137 143.144 194.209 139.336 206.305 135.527C214.817 132.839 215.713 132.615 217.842 131.495C217.842 127.351 217.17 122.871 209.105 122.871C199.585 122.871 191.969 128.135 187.041 133.063ZM217.842 153.56V140.344C210.113 143.592 204.401 145.944 204.401 151.656C204.401 155.688 207.201 157.368 209.777 157.368C212.913 157.368 216.385 154.68 217.842 153.56ZM293.923 111.335V124.999H275.107V142.808C275.107 147.512 275.107 152.328 283.059 152.328C287.315 152.328 291.011 150.648 295.379 148.408V163.752C291.795 165.544 283.843 168.008 276.675 168.008C262.003 168.008 255.395 160.504 255.395 147.176V124.999H246.434V121.527L272.867 94.6468H275.107V111.335H293.923ZM337.226 91.1748H356.938V119.287C363.882 111.895 370.378 110.327 376.65 110.327C388.747 110.327 396.699 116.711 396.699 132.839V167H376.986V138.104C376.986 137.656 378.443 125.559 368.922 125.559C363.098 125.559 359.178 130.935 356.938 134.295V167H337.226V91.1748ZM465.551 140.008V143.928H426.35C427.806 150.872 434.639 155.464 442.143 155.464C449.647 155.464 457.151 153.112 464.095 149.864V162.072C461.183 163.64 452.783 168.008 437.999 168.008C416.718 168.008 406.078 155.016 406.078 138.888C406.078 122.759 416.718 110.327 437.999 110.327C450.431 110.327 465.551 117.607 465.551 140.008ZM425.79 134.183H447.071C447.071 127.127 443.375 122.423 436.767 122.423C430.383 122.423 425.79 127.127 425.79 134.183ZM517.599 111.335V124.999H498.782V142.808C498.782 147.512 498.782 152.328 506.735 152.328C510.991 152.328 514.687 150.648 519.055 148.408V163.752C515.471 165.544 507.519 168.008 500.35 168.008C485.678 168.008 479.07 160.504 479.07 147.176V124.999H470.11V121.527L496.542 94.6468H498.782V111.335H517.599ZM560.789 167V91.1748H580.502V114.583C582.854 112.791 588.118 110.327 595.398 110.327C614.102 110.327 622.054 125.111 622.054 139.56C622.054 160.056 607.942 168.008 596.742 168.008C587.222 168.008 582.742 163.864 580.502 161.96V167H560.789ZM580.502 128.023V149.304C582.406 151.096 585.542 153.224 590.47 153.224C593.27 153.224 601.334 151.768 601.334 139.112C601.334 128.919 595.734 124.439 590.47 124.439C586.102 124.439 582.182 126.903 580.502 128.023ZM633.223 111.335H652.935V167H633.223V111.335ZM643.079 90.1667C647.671 90.1667 651.367 93.8628 651.367 98.4549C651.367 103.047 647.671 106.743 643.079 106.743C638.487 106.743 634.791 103.047 634.791 98.4549C634.791 93.8628 638.487 90.1667 643.079 90.1667ZM667.458 111.335H687.17V170.248C687.17 187.832 673.618 193.32 665.778 193.32L659.17 178.312C666.562 175.96 667.458 172.152 667.458 161.064V111.335ZM677.314 90.1667C681.906 90.1667 685.602 93.8628 685.602 98.4549C685.602 103.047 681.906 106.743 677.314 106.743C672.722 106.743 669.026 103.047 669.026 98.4549C669.026 93.8628 672.722 90.1667 677.314 90.1667ZM698.221 125.895V111.335H753.662V113.127L727.005 152.44H753.102V167H695.981V165.208L722.637 125.895H698.221ZM790.52 110.327C811.8 110.327 822.441 122.871 822.441 139.112C822.441 155.352 811.8 168.008 790.52 168.008C769.24 168.008 758.6 155.352 758.6 139.112C758.6 122.871 769.24 110.327 790.52 110.327ZM790.52 124.999C783.128 124.999 779.32 130.599 779.32 139.112C779.32 147.624 783.128 153.336 790.52 153.336C797.912 153.336 801.72 147.624 801.72 139.112C801.72 130.599 797.912 124.999 790.52 124.999ZM832.593 111.335H852.306V119.287C858.578 112.567 864.738 110.327 872.018 110.327C892.738 110.327 892.066 129.255 892.066 134.295V167H872.354V138.104C872.354 134.519 872.802 125.559 864.29 125.559C857.682 125.559 854.098 131.943 852.306 134.295V167H832.593V111.335ZM962.711 167H942.998V161.96C940.758 163.864 936.278 168.008 926.758 168.008C915.558 168.008 901.446 160.056 901.446 139.56C901.446 125.111 909.398 110.327 928.102 110.327C936.614 110.327 940.422 112.903 942.998 114.583V91.1748H962.711V167ZM942.998 128.023C939.974 126.343 937.174 124.439 933.03 124.439C926.982 124.439 922.166 129.815 922.166 139.112C922.166 149.864 928.102 153.224 933.03 153.224C938.63 153.224 941.654 150.424 942.998 149.304V128.023ZM1032.23 140.008V143.928H993.032C994.488 150.872 1001.32 155.464 1008.82 155.464C1016.33 155.464 1023.83 153.112 1030.78 149.864V162.072C1027.86 163.64 1019.46 168.008 1004.68 168.008C983.399 168.008 972.759 155.016 972.759 138.888C972.759 122.759 983.399 110.327 1004.68 110.327C1017.11 110.327 1032.23 117.607 1032.23 140.008ZM992.472 134.183H1013.75C1013.75 127.127 1010.06 122.423 1003.45 122.423C997.064 122.423 992.472 127.127 992.472 134.183ZM1041.72 111.335H1061.43V124.775C1063.22 119.847 1069.5 110.327 1079.02 110.327C1084.17 110.327 1087.3 112.231 1090.78 114.359L1083.5 134.071C1080.47 131.159 1077.9 129.815 1074.42 129.815C1069.38 129.815 1065.35 132.279 1061.43 143.032V167H1041.72V111.335ZM1229.55 133.063V167H1209.84V137.32C1209.84 129.367 1207.26 125.559 1201.77 125.559C1195.28 125.559 1191.25 132.167 1189.79 134.295V167H1170.08V137.32C1170.08 130.375 1168.4 125.559 1161.9 125.559C1155.63 125.559 1152.38 131.271 1150.03 134.295V167H1130.32V111.335H1150.03V119.287C1155.74 113.239 1161.45 110.327 1169.63 110.327C1176.8 110.327 1184.3 112.903 1187.89 121.191C1193.82 114.471 1200.09 110.327 1209.5 110.327C1223.17 110.327 1229.55 118.727 1229.55 133.063ZM1240.78 133.063V117.943C1248.17 112.679 1257.47 110.327 1266.99 110.327C1283.56 110.327 1291.29 117.271 1291.29 127.911V149.416C1291.29 153.336 1291.85 155.464 1293.98 155.464C1295.88 155.464 1298.01 154.344 1299.02 153.896V164.2C1295.1 165.768 1289.95 168.008 1282.22 168.008C1274.71 168.008 1273.37 164.088 1272.7 162.072C1269.67 164.536 1265.08 168.008 1255.45 168.008C1242.35 168.008 1238.87 160.056 1238.87 154.008C1238.87 143.144 1247.95 139.336 1260.04 135.527C1268.55 132.839 1269.45 132.615 1271.58 131.495C1271.58 127.351 1270.91 122.871 1262.84 122.871C1253.32 122.871 1245.71 128.135 1240.78 133.063ZM1271.58 153.56V140.344C1263.85 143.592 1258.14 145.944 1258.14 151.656C1258.14 155.688 1260.94 157.368 1263.51 157.368C1266.65 157.368 1270.12 154.68 1271.58 153.56ZM1304.76 133.063V117.943C1312.15 112.679 1321.45 110.327 1330.97 110.327C1347.55 110.327 1355.28 117.271 1355.28 127.911V149.416C1355.28 153.336 1355.84 155.464 1357.96 155.464C1359.87 155.464 1362 154.344 1363 153.896V164.2C1359.08 165.768 1353.93 168.008 1346.2 168.008C1338.7 168.008 1337.36 164.088 1336.68 162.072C1333.66 164.536 1329.07 168.008 1319.43 168.008C1306.33 168.008 1302.86 160.056 1302.86 154.008C1302.86 143.144 1311.93 139.336 1324.03 135.527C1332.54 132.839 1333.44 132.615 1335.56 131.495C1335.56 127.351 1334.89 122.871 1326.83 122.871C1317.31 122.871 1309.69 128.135 1304.76 133.063ZM1335.56 153.56V140.344C1327.83 143.592 1322.12 145.944 1322.12 151.656C1322.12 155.688 1324.92 157.368 1327.5 157.368C1330.63 157.368 1334.11 154.68 1335.56 153.56ZM1370.62 91.1748H1390.55V135.639L1410.04 111.335H1433.67L1411.94 137.32L1436.92 167H1411.94L1390.55 140.568V167H1370.62V91.1748ZM1484.05 111.335V124.999H1465.24V142.808C1465.24 147.512 1465.24 152.328 1473.19 152.328C1477.44 152.328 1481.14 150.648 1485.51 148.408V163.752C1481.92 165.544 1473.97 168.008 1466.8 168.008C1452.13 168.008 1445.52 160.504 1445.52 147.176V124.999H1436.56V121.527L1463 94.6468H1465.24V111.335H1484.05Z" fill="#F4EDD2"/>
</svg>
