<svg width="111" height="179" viewBox="0 0 111 179" fill="none" xmlns="http://www.w3.org/2000/svg">
<path d="M109.401 0.778873H109.141C109.141 1.21198 109.012 1.73171 108.752 2.33806C108.578 2.94441 108.405 3.42083 108.232 3.76732C105.547 8.61813 101.952 14.9415 97.4476 22.7375C93.0299 30.4468 88.2657 38.8924 83.155 48.0743C78.0443 57.1696 74.1896 64.1426 71.591 68.9934C79.8201 71.0723 87.5727 75.49 94.8489 82.2465C102.125 89.003 106.716 96.3659 108.622 104.335C110.008 110.052 110.701 115.553 110.701 120.836C110.701 128.892 109.271 136.515 106.413 143.705C103.641 150.894 99.4832 157.218 93.9394 162.675C83.0251 173.329 68.9923 178.656 51.8413 178.656C43.1791 178.656 35.1233 177.227 27.6738 174.369C17.8856 170.384 9.26673 163.108 1.81727 152.54C1.64402 152.54 1.5574 151.89 1.5574 150.591C1.64402 150.591 7.05788 144.051 17.799 130.971C19.3581 132.79 20.6142 134.306 21.567 135.519C22.6065 136.732 23.5593 137.771 24.4255 138.637C34.2138 147.559 44.2619 152.02 54.5698 152.02C57.6016 152.02 59.8971 151.847 61.4563 151.501C65.874 150.634 69.9452 148.729 73.6699 145.784C77.3946 142.838 80.3398 139.244 82.5053 134.999C84.2378 131.448 85.104 127.333 85.104 122.656C85.104 114.86 82.8951 108.493 78.4774 103.555C74.4928 98.9645 69.7286 95.6296 64.1848 93.5507C58.6411 91.3851 52.6642 90.3023 46.2542 90.3023C40.1907 90.3023 34.6036 91.1686 29.4929 92.901C28.8865 92.901 28.4534 92.8577 28.1936 92.7711C27.9337 92.5978 27.7604 92.4679 27.6738 92.3813C29.233 89.6094 31.6584 85.3216 34.95 79.5179C38.2417 73.7143 41.7065 67.5642 45.3446 61.0675C49.0694 54.4843 53.0973 47.338 57.4284 39.6287C61.8461 31.9194 64.4447 27.3284 65.2243 25.8558C65.2243 25.4227 65.1377 25.2062 64.9644 25.2062C64.7912 25.1196 64.618 25.0762 64.4447 25.0762H-0.00178802V-0.000721455H107.712C108.838 -0.000721455 109.401 0.259143 109.401 0.778873Z" fill="#003E35" fill-opacity="0.8"/>
</svg>
