<svg width="111" height="180" viewBox="0 0 111 180" fill="none" xmlns="http://www.w3.org/2000/svg">
<path d="M110.961 1.16867L94.9788 25.8558L50.0222 26.6354L48.463 27.6749L45.4746 65.7451L46.2542 66.7846C49.1993 66.2648 52.0578 66.005 54.8297 66.005C60.72 66.005 66.3071 67.0011 71.591 68.9934C76.8749 70.8991 81.8124 73.6277 86.4033 77.1792C90.9942 80.7306 95.1954 85.0184 99.0067 90.0425C105.936 99.0511 109.401 110.139 109.401 123.305C109.401 132.66 107.366 141.322 103.295 149.292C98.1838 158.993 90.9942 166.486 81.7257 171.77C72.5438 177.054 62.3225 179.782 51.0617 179.956C41.7065 179.956 32.6546 177.79 23.9058 173.459C15.157 169.041 7.27443 162.848 0.258077 154.879L-0.00178802 153.32C1.90389 151.327 4.93565 148.079 9.09348 143.575C13.2513 138.984 15.9799 135.865 17.2792 134.22C28.1069 147.473 39.1079 154.099 50.2821 154.099C51.4082 154.099 53.3571 153.926 56.129 153.579C61.7594 152.54 66.8701 149.681 71.4611 145.004C76.1386 140.24 78.9971 134.956 80.0366 129.152C80.3831 126.207 80.5563 124.128 80.5563 122.915C80.5563 114.946 78.0876 108.233 73.1502 102.776C65.7873 94.6334 54.9596 90.5622 40.6671 90.5622C36.4226 90.5622 32.5679 90.8221 29.1031 91.3418C25.6382 91.8615 21.8702 92.7277 17.799 93.9404L16.4996 92.6411C17.799 75.5767 19.1416 58.4689 20.5275 41.3178C21.9135 24.0801 23.0396 10.3073 23.9058 -0.000721455H110.181L110.961 1.16867Z" fill="#003E35" fill-opacity="0.8"/>
</svg>
