<svg width="635" height="94" viewBox="0 0 635 94" fill="none" xmlns="http://www.w3.org/2000/svg">
<path d="M50.2953 0.000943698C57.7683 0.000943698 65.4787 1.10807 73.4262 3.32231C77.3802 4.42943 81.0772 5.71449 84.5172 7.17747C87.9967 8.64045 91.2193 10.2814 94.1848 12.1002L74.8497 39.3236C66.7835 35.4486 59.35 33.5112 52.5491 33.5112C48.0019 33.5112 44.3445 34.6974 41.5767 37.0698C38.8089 39.3631 37.425 42.467 37.425 46.3815C37.425 50.2169 38.5914 53.0242 40.9243 54.8035C43.2571 56.5433 46.9146 57.4131 51.8966 57.4131V43.238H91.9903V92.0503L72.24 92.9992C69.0373 93.1574 66.3288 93.2562 64.1145 93.2958C61.9003 93.3749 60.1605 93.4144 58.8952 93.4144C45.9261 93.4144 35.3491 91.8328 27.1643 88.6696C19.0981 85.5459 12.5345 80.1487 7.47336 72.4779C2.49131 64.8467 0.000284463 56.1479 0.000284463 46.3815C0.000284463 37.6826 2.05637 29.6955 6.16854 22.4202C10.2412 15.2239 16.0733 9.68826 23.665 5.81334C31.2172 1.93841 40.0939 0.000943698 50.2953 0.000943698ZM141.099 10.3209C141.099 13.1678 140.071 15.6193 138.015 17.6754C135.998 19.7314 133.586 20.7595 130.779 20.7595C127.932 20.7595 125.481 19.7314 123.425 17.6754C121.369 15.6193 120.341 13.1678 120.341 10.3209C120.341 7.51356 121.369 5.10161 123.425 3.08507C125.481 1.02899 127.932 0.000943698 130.779 0.000943698C133.586 0.000943698 135.998 1.00922 138.015 3.02576C140.071 4.96322 141.099 7.39494 141.099 10.3209ZM104.683 20.5222C106.936 21.8271 109.704 22.8353 112.986 23.5471C116.268 24.2588 119.767 24.6146 123.484 24.6146C126.963 24.6146 130.245 24.2786 133.329 23.6064C136.414 22.8947 139.083 21.8666 141.336 20.5222V91.9316H104.683V20.5222ZM191.869 1.42439V91.9316H155.215V1.42439H191.869ZM242.519 1.42439V91.9316H205.866V1.42439H242.519ZM338.542 0.000943698C341.627 0.000943698 344.75 0.159104 347.913 0.475425C351.077 0.752205 354.339 1.16738 357.7 1.72094C361.061 2.2745 364.164 2.90714 367.011 3.61886C369.858 4.33058 372.468 5.14115 374.84 6.05058L364.876 34.5787C361.753 30.3875 358.273 27.1452 354.438 24.8519C350.602 22.519 346.589 21.3526 342.398 21.3526C339.907 21.3526 338.108 21.8666 337 22.8947C335.893 23.8832 335.34 25.1287 335.34 26.6312C335.34 28.0546 336.407 29.4188 338.542 30.7236C340.717 32.0284 344.058 33.5309 348.566 35.2312C360.309 39.541 367.901 43.8311 371.341 48.1015C374.702 52.2927 376.382 57.4725 376.382 63.6407C376.382 73.249 372.725 80.6232 365.41 85.7634C358.135 90.8641 347.281 93.4144 332.849 93.4144C325.336 93.4144 318.199 92.9004 311.438 91.8723C304.676 90.8443 298.034 89.0848 291.51 86.5937L301.296 56.3456C304.064 60.695 307.563 64.1943 311.794 66.8435C315.985 69.4926 320.038 70.8172 323.952 70.8172C325.89 70.8172 327.491 70.3428 328.756 69.3938C330.061 68.4053 330.714 67.1795 330.714 65.7166C330.714 63.9768 329.804 62.4743 327.985 61.209C326.206 59.9042 323.418 58.5203 319.623 57.0573C310.291 53.5382 303.886 49.7226 300.406 45.6104C296.966 41.4587 295.246 36.3778 295.246 30.3677C295.246 20.285 298.884 12.7131 306.159 7.65195C313.435 2.55128 324.229 0.000943698 338.542 0.000943698ZM457.934 91.9316H421.28V86.5937C418.67 88.5312 415.764 89.9942 412.562 90.9827C409.24 92.0107 406.196 92.5247 403.428 92.5247C398.05 92.5247 393.503 90.7652 389.786 87.2461C386.149 83.6875 384.33 79.2195 384.33 73.8421C384.33 67.7924 386.584 62.8301 391.091 58.9552C395.599 55.0407 401.49 53.0835 408.766 53.0835C410.901 53.0835 413.016 53.2219 415.112 53.4987C417.207 53.7755 419.264 54.1906 421.28 54.7442C421.28 53.044 420.924 51.5414 420.213 50.2366C419.54 48.8923 418.572 47.7851 417.306 46.9153C416.041 46.0058 414.519 45.3337 412.739 44.8987C410.96 44.4242 408.963 44.187 406.749 44.187C403.23 44.187 399.83 44.6417 396.548 45.5511C394.966 45.9861 393.306 46.5792 391.566 47.3304C389.866 48.0421 388.066 48.8923 386.169 49.8808V28.4105C386.841 28.0151 387.77 27.5406 388.956 26.9871C390.142 26.394 391.625 25.7218 393.404 24.9705C395.184 24.2192 397.062 23.5471 399.039 22.954C401.055 22.3213 403.21 21.7875 405.504 21.3526C410.051 20.4036 415.329 19.9291 421.339 19.9291C434.15 19.9291 443.442 22.6772 449.215 28.1733C455.028 33.6298 457.934 41.518 457.934 51.838V91.9316ZM415.586 78.1124C417.801 78.1124 419.699 77.46 421.28 76.1551V66.191C420.015 65.7956 418.947 65.5189 418.077 65.3607C417.247 65.163 416.298 65.0642 415.23 65.0642C413.056 65.0642 411.296 65.6375 409.952 66.7841C408.608 67.8913 407.935 69.3938 407.935 71.2917C407.935 73.2292 408.667 74.8503 410.13 76.1551C411.593 77.46 413.412 78.1124 415.586 78.1124ZM555.973 91.9316H521.336V49.9401C521.336 47.3304 520.803 45.2546 519.735 43.7125C518.667 42.1704 516.947 41.3994 514.575 41.3994C513.586 41.3994 512.479 41.6169 511.254 42.0518C510.028 42.4868 508.94 43.0403 507.992 43.7125V91.9316H471.338V20.5222H507.992V29.4781C511.392 26.0381 514.832 23.5866 518.311 22.1236C521.831 20.6606 525.765 19.9291 530.114 19.9291C538.694 19.9291 545.139 22.3213 549.449 27.1057C553.799 31.89 555.973 38.513 555.973 46.9746V91.9316ZM623.231 43.3566C620.503 40.8656 617.676 38.9479 614.75 37.6036C611.863 36.2592 609.115 35.587 606.506 35.587C604.726 35.587 603.283 35.9824 602.176 36.7732C601.069 37.5245 600.515 38.5328 600.515 39.798C600.515 41.696 601.326 43.1589 602.947 44.187C603.777 44.701 604.964 45.215 606.506 45.7291C608.087 46.2431 610.045 46.7571 612.377 47.2711C619.85 49.0109 625.327 51.7194 628.806 55.3966C632.286 59.0343 634.026 63.6407 634.026 69.2159C634.026 76.6494 631.04 82.4618 625.07 86.653C619.099 90.8838 611.389 92.9992 601.939 92.9992C599.092 92.9992 596.087 92.8213 592.924 92.4654C589.76 92.1096 586.38 91.5955 582.782 90.9234C579.183 90.2512 575.724 89.4208 572.402 88.4323C569.081 87.4043 565.858 86.2576 562.735 84.9924L570.92 64.9455C573.213 68.1878 576.178 70.8172 579.816 72.8338C583.454 74.8108 587.032 75.7993 590.551 75.7993C592.686 75.7993 594.387 75.3248 595.652 74.3758C596.957 73.4269 597.609 72.2011 597.609 70.6986C597.609 68.8402 596.818 67.3772 595.237 66.3097C593.695 65.2421 591.303 64.2734 588.06 63.4035C579.401 61.1497 573.45 58.1051 570.208 54.2697C566.926 50.3948 565.285 46.1442 565.285 41.518C565.285 34.4799 568.31 28.9641 574.36 24.9705C580.449 21.0165 589.049 19.0395 600.159 19.0395C606.249 19.0395 611.962 19.5535 617.3 20.5816C622.678 21.6096 627.581 23.1319 632.009 25.1484L623.231 43.3566Z" fill="#D02B21"/>
</svg>
