<svg width="93" height="181" viewBox="0 0 93 181" fill="none" xmlns="http://www.w3.org/2000/svg">
<path d="M92.9018 129.932C92.9018 149.248 86.1886 163.411 72.7623 172.42C64.6198 177.79 54.9182 180.475 43.6574 180.475C33.6959 180.475 25.1204 178.267 17.9308 173.849C12.8201 170.557 8.61895 166.529 5.32733 161.765C2.12233 157.001 0.346586 151.977 9.90033e-05 146.693C2.94523 145.22 5.58719 144.008 7.92598 143.055C10.2648 142.015 14.899 139.937 21.8288 136.818C22.0886 140.283 23.3446 143.575 25.5968 146.693C27.9356 149.725 30.7941 152.107 34.1723 153.839C37.2041 155.225 40.3658 155.918 43.6574 155.918C48.9413 155.918 53.6622 154.619 57.82 152.02C60.7652 150.115 62.974 147.516 64.4466 144.224C66.0058 140.846 66.9586 137.251 67.3051 133.44C67.7382 129.542 67.9548 124.171 67.9548 117.328V1.16867L69.2541 -0.000721455H91.3426C92.1222 -0.000721455 92.6419 0.648941 92.9018 1.94827V129.932Z" fill="#003E35" fill-opacity="0.8"/>
</svg>
