<svg width="1198" height="112" viewBox="0 0 1198 112" fill="none" xmlns="http://www.w3.org/2000/svg">
<path d="M42.4057 59.7849C42.4057 68.6024 39.3413 75.0672 33.2126 79.1794C29.4958 81.6308 25.0673 82.8566 19.9271 82.8566C15.38 82.8566 11.4655 81.8483 8.18371 79.8318C5.85084 78.3292 3.93315 76.4906 2.43063 74.3159C0.967643 72.1412 0.157071 69.8479 -0.00108936 67.436C1.34327 66.7638 2.54925 66.2102 3.61683 65.7753C4.68441 65.3008 6.79981 64.3518 9.96301 62.9284C10.0816 64.51 10.655 66.0125 11.683 67.436C12.7506 68.8199 14.0554 69.9072 15.5975 70.698C16.9814 71.3306 18.4246 71.647 19.9271 71.647C22.3391 71.647 24.494 71.0539 26.3919 69.8677C27.7363 68.9978 28.7446 67.8116 29.4167 66.3091C30.1285 64.767 30.5634 63.1261 30.7216 61.3863C30.9193 59.607 31.0181 57.1555 31.0181 54.0319V1.00861L31.6112 0.474818H41.6939C42.0498 0.474818 42.287 0.771368 42.4057 1.36447V59.7849ZM109.841 40.6871C111.621 44.1271 112.51 48.1799 112.51 52.8457C112.51 56.2461 111.996 59.5477 110.968 62.7505C109.98 65.9532 108.517 68.721 106.579 71.0539C104.642 73.4658 102.447 75.5021 99.9958 77.1628C97.5838 78.784 94.994 79.9899 92.2262 80.7807C89.4979 81.6111 86.7103 82.0262 83.8634 82.0262C80.8584 82.0262 77.6952 81.532 74.3738 80.5435C72.2386 79.9108 70.1628 78.9223 68.1462 77.578C66.1297 76.1941 64.3504 74.652 62.8083 72.9518C61.2663 71.2516 59.9219 69.3536 58.7752 67.258C57.6681 65.1624 56.8773 62.9877 56.4028 60.7339C56.0074 58.9151 55.8097 56.7404 55.8097 54.2098C55.8097 49.3464 56.8575 44.8388 58.9532 40.6871C61.0883 36.5354 64.2515 33.0954 68.4428 30.3671C70.0244 29.3786 71.6851 28.5483 73.4248 27.8761C75.2041 27.2039 77.0823 26.6899 79.0593 26.334C81.0758 25.9386 83.0726 25.7409 85.0496 25.7409C89.4781 25.7409 93.4519 26.5515 96.971 28.1726C99.4224 29.3193 101.834 31.0591 104.207 33.3919C106.619 35.7248 108.497 38.1565 109.841 40.6871ZM99.2841 61.8608C100.51 59.5675 101.123 56.8787 101.123 53.7946C101.123 50.3546 100.352 47.4089 98.8096 44.9574C97.228 42.1896 95.0928 40.0742 92.4041 38.6112C89.7154 37.1482 86.7894 36.3772 83.6262 36.2981C81.0561 36.2981 78.6639 36.8912 76.4497 38.0774C74.275 39.2636 72.3375 40.9836 70.6373 43.2374C68.2649 46.3215 67.0787 49.979 67.0787 54.2098C67.0787 57.4521 67.8892 60.3187 69.5104 62.8098C73.1085 68.3058 77.9324 71.0539 83.982 71.0539C85.2869 71.0539 86.2951 70.9748 87.0069 70.8166C89.4979 70.3817 91.8505 69.3536 94.0648 67.7325C96.3186 66.1114 98.0583 64.1541 99.2841 61.8608ZM176.624 80.1876L176.031 80.5435H165.83L165.237 79.9504V48.5753C165.118 46.796 164.525 45.1156 163.458 43.534C162.39 41.9524 161.006 40.608 159.306 39.5009C157.606 38.3542 155.945 37.5832 154.324 37.1878C152.663 37.0296 151.477 36.9505 150.765 36.9505C145.744 36.9505 141.256 38.1961 137.302 40.6871V80.1876L136.827 80.5435H126.507L125.855 80.069V1.12723C125.855 0.889988 125.875 0.751598 125.914 0.712058C125.993 0.632978 126.072 0.573668 126.152 0.534128C126.231 0.455048 126.31 0.395737 126.389 0.356197H136.709L137.302 1.00861V29.0623C137.5 28.9832 137.994 28.7657 138.785 28.4099C139.615 28.054 140.287 27.8168 140.801 27.6982C144.874 26.4724 148.571 25.8596 151.892 25.8596C154.344 25.8596 156.657 26.1166 158.831 26.6306C161.006 27.1446 163.102 27.9552 165.118 29.0623C167.174 30.1694 168.973 31.5731 170.516 33.2733C172.097 34.9735 173.323 36.8319 174.193 38.8485C175.102 40.8255 175.715 42.842 176.031 44.8981C176.348 46.9146 176.545 49.3266 176.624 52.1339V80.1876ZM241.51 80.6621H229.766V47.8636C229.41 45.3726 228.185 43.0397 226.089 40.865C224.033 38.6903 221.72 37.2669 219.15 36.5947C217.568 36.397 216.56 36.2981 216.125 36.2981C211.855 36.2981 207.09 37.5634 201.831 40.094C201.594 40.2521 201.436 40.3708 201.357 40.4498C201.278 40.5289 201.218 40.608 201.179 40.6871V80.1876C201.179 80.2667 201.159 80.3656 201.12 80.4842C201.12 80.6028 201.021 80.6621 200.823 80.6621H190.384C190.147 80.6621 190.029 80.5039 190.029 80.1876V27.2237L190.266 26.8678H200.704C201.021 27.0655 201.179 27.9156 201.179 29.4182C201.772 29.3391 202.583 29.0228 203.611 28.4692C204.678 27.8761 205.568 27.4609 206.28 27.2237C209.443 26.1561 212.883 25.6223 216.599 25.6223C221.819 25.6223 226.504 26.769 230.656 29.0623C234.808 31.3161 237.734 34.7165 239.434 39.2636C240.541 41.9919 241.233 45.1353 241.51 48.694C241.747 52.1339 241.866 55.6332 241.866 59.1918C241.866 61.6038 241.846 63.4226 241.806 64.6484C241.806 65.8346 241.787 67.3371 241.747 69.1559C241.707 70.9748 241.648 72.9123 241.569 74.9683C241.53 77.0244 241.51 78.9223 241.51 80.6621ZM287.831 79.0607C283.758 80.9191 278.934 81.8483 273.359 81.8483C265.847 81.8483 259.283 80.3656 253.668 77.4001L253.312 76.9256V65.4787C254.103 65.7555 255.369 66.2497 257.108 66.9615C258.888 67.6732 260.212 68.1872 261.082 68.5035C265.748 70.5201 270.414 71.5283 275.079 71.5283C275.831 71.5283 276.918 71.4493 278.341 71.2911C281.386 70.9748 283.501 69.5711 284.688 67.0801C284.846 66.7242 284.925 66.1904 284.925 65.4787C284.925 64.1739 284.549 63.1656 283.798 62.4539C282.493 60.9514 280.951 59.8838 279.172 59.2512C277.392 58.6185 275.119 58.1045 272.351 57.7091C269.623 57.2741 267.567 56.859 266.183 56.4636C263.099 55.5542 260.351 54.2098 257.939 52.4305C255.527 50.6116 253.906 48.3974 253.075 45.7878C252.68 44.3248 252.482 42.9211 252.482 41.5767C252.482 39.2439 252.976 37.0494 253.965 34.9933C254.993 32.8977 256.397 31.1975 258.176 29.8926C260.153 28.4297 262.486 27.3423 265.174 26.6306C267.863 25.8793 270.591 25.5037 273.359 25.5037C279.528 25.5037 285.241 26.8876 290.5 29.6554V41.1616C289.788 40.8848 288.642 40.4103 287.06 39.7381C285.478 39.0659 284.272 38.5717 283.442 38.2554C281.307 37.4646 279.33 36.8517 277.511 36.4168C275.692 35.9423 273.952 35.705 272.292 35.705C270.038 35.705 268.081 36.1597 266.42 37.0692C265.629 37.5436 264.957 38.1565 264.403 38.9078C263.889 39.659 263.632 40.3708 263.632 41.0429C263.632 41.7151 263.81 42.2489 264.166 42.6443C265.827 44.9376 268.654 46.4402 272.648 47.1519C273.28 47.2705 273.992 47.3891 274.783 47.5077C275.613 47.5868 276.562 47.7054 277.63 47.8636C279.844 48.1799 281.465 48.4567 282.493 48.694C285.933 49.6825 288.997 51.3431 291.686 53.676C294.375 56.0089 295.917 58.7767 296.312 61.9794C296.312 70.8364 293.485 76.5302 287.831 79.0607ZM345.955 37.8995L345.421 38.2554H325.671L325.018 38.7298V63.5215C325.137 66.5661 326.363 68.721 328.696 69.9863C330.08 70.7771 331.859 71.1725 334.034 71.1725C337.157 71.1725 341.131 70.0061 345.955 67.6732V77.9932C342.238 80.2469 337.988 81.3738 333.203 81.3738C329.882 81.3738 326.719 80.8203 323.714 79.7131C319.878 78.2897 317.229 76.0161 315.766 72.8925C314.343 69.7688 313.631 65.9927 313.631 61.5642V38.2554H304.497L303.785 37.6623V27.1051H313.156C313.354 27.1051 313.473 27.0458 313.512 26.9271C313.591 26.8085 313.631 26.7097 313.631 26.6306V13.8789C313.71 13.7207 313.769 13.6021 313.809 13.523C313.848 13.4044 313.868 13.3056 313.868 13.2265H325.018V13.8789V27.1051H345.955V37.8995ZM408.527 40.6871C410.306 44.1271 411.196 48.1799 411.196 52.8457C411.196 56.2461 410.682 59.5477 409.654 62.7505C408.665 65.9532 407.202 68.721 405.265 71.0539C403.328 73.4658 401.133 75.5021 398.682 77.1628C396.27 78.784 393.68 79.9899 390.912 80.7807C388.184 81.6111 385.396 82.0262 382.549 82.0262C379.544 82.0262 376.381 81.532 373.06 80.5435C370.924 79.9108 368.849 78.9223 366.832 77.578C364.816 76.1941 363.036 74.652 361.494 72.9518C359.952 71.2516 358.608 69.3536 357.461 67.258C356.354 65.1624 355.563 62.9877 355.089 60.7339C354.693 58.9151 354.496 56.7404 354.496 54.2098C354.496 49.3464 355.543 44.8388 357.639 40.6871C359.774 36.5354 362.937 33.0954 367.129 30.3671C368.71 29.3786 370.371 28.5483 372.111 27.8761C373.89 27.2039 375.768 26.6899 377.745 26.334C379.762 25.9386 381.758 25.7409 383.735 25.7409C388.164 25.7409 392.138 26.5515 395.657 28.1726C398.108 29.3193 400.52 31.0591 402.893 33.3919C405.305 35.7248 407.183 38.1565 408.527 40.6871ZM397.97 61.8608C399.196 59.5675 399.808 56.8787 399.808 53.7946C399.808 50.3546 399.037 47.4089 397.495 44.9574C395.914 42.1896 393.779 40.0742 391.09 38.6112C388.401 37.1482 385.475 36.3772 382.312 36.2981C379.742 36.2981 377.35 36.8912 375.135 38.0774C372.961 39.2636 371.023 40.9836 369.323 43.2374C366.951 46.3215 365.764 49.979 365.764 54.2098C365.764 57.4521 366.575 60.3187 368.196 62.8098C371.794 68.3058 376.618 71.0539 382.668 71.0539C383.973 71.0539 384.981 70.9748 385.693 70.8166C388.184 70.3817 390.536 69.3536 392.751 67.7325C395.004 66.1114 396.744 64.1541 397.97 61.8608ZM474.836 80.6621H463.092V47.8636C462.737 45.3726 461.511 43.0397 459.415 40.865C457.359 38.6903 455.046 37.2669 452.476 36.5947C450.894 36.397 449.886 36.2981 449.451 36.2981C445.181 36.2981 440.416 37.5634 435.157 40.094C434.92 40.2521 434.762 40.3708 434.683 40.4498C434.604 40.5289 434.544 40.608 434.505 40.6871V80.1876C434.505 80.2667 434.485 80.3656 434.446 80.4842C434.446 80.6028 434.347 80.6621 434.149 80.6621H423.71C423.473 80.6621 423.355 80.5039 423.355 80.1876V27.2237L423.592 26.8678H434.03C434.347 27.0655 434.505 27.9156 434.505 29.4182C435.098 29.3391 435.909 29.0228 436.937 28.4692C438.004 27.8761 438.894 27.4609 439.606 27.2237C442.769 26.1561 446.209 25.6223 449.926 25.6223C455.145 25.6223 459.83 26.769 463.982 29.0623C468.134 31.3161 471.06 34.7165 472.76 39.2636C473.867 41.9919 474.559 45.1353 474.836 48.694C475.073 52.1339 475.192 55.6332 475.192 59.1918C475.192 61.6038 475.172 63.4226 475.132 64.6484C475.132 65.8346 475.113 67.3371 475.073 69.1559C475.033 70.9748 474.974 72.9123 474.895 74.9683C474.856 77.0244 474.836 78.9223 474.836 80.6621ZM593.337 0.830678V46.1436C593.337 50.928 592.408 55.5146 590.55 59.9036C588.731 64.253 586.181 68.0488 582.899 71.2911C579.657 74.5334 575.821 77.0837 571.393 78.9421C567.004 80.8005 562.417 81.7297 557.633 81.7297C552.848 81.7297 548.262 80.8005 543.873 78.9421C539.523 77.0837 535.728 74.5334 532.485 71.2911C529.243 68.0488 526.693 64.253 524.834 59.9036C522.976 55.5146 522.047 50.928 522.047 46.1436V1.00861C522.047 0.652748 522.205 0.474818 522.521 0.474818H533.078C533.316 0.474818 533.434 0.593438 533.434 0.830678V46.025C533.434 50.4139 534.522 54.4668 536.696 58.1836C538.871 61.9003 541.797 64.8658 545.474 67.0801C549.191 69.2548 553.244 70.3421 557.633 70.3421C562.022 70.3421 566.075 69.2548 569.791 67.0801C573.548 64.8658 576.513 61.9003 578.688 58.1836C580.863 54.4668 581.95 50.4139 581.95 46.025V1.00861C581.95 0.652748 582.108 0.474818 582.424 0.474818H592.982C593.219 0.474818 593.337 0.593438 593.337 0.830678ZM659.409 80.6621H647.665V47.8636C647.31 45.3726 646.084 43.0397 643.988 40.865C641.932 38.6903 639.619 37.2669 637.049 36.5947C635.467 36.397 634.459 36.2981 634.024 36.2981C629.754 36.2981 624.989 37.5634 619.73 40.094C619.493 40.2521 619.335 40.3708 619.256 40.4498C619.177 40.5289 619.118 40.608 619.078 40.6871V80.1876C619.078 80.2667 619.058 80.3656 619.019 80.4842C619.019 80.6028 618.92 80.6621 618.722 80.6621H608.284C608.046 80.6621 607.928 80.5039 607.928 80.1876V27.2237L608.165 26.8678H618.604C618.92 27.0655 619.078 27.9156 619.078 29.4182C619.671 29.3391 620.482 29.0228 621.51 28.4692C622.577 27.8761 623.467 27.4609 624.179 27.2237C627.342 26.1561 630.782 25.6223 634.499 25.6223C639.718 25.6223 644.403 26.769 648.555 29.0623C652.707 31.3161 655.633 34.7165 657.333 39.2636C658.44 41.9919 659.132 45.1353 659.409 48.694C659.646 52.1339 659.765 55.6332 659.765 59.1918C659.765 61.6038 659.745 63.4226 659.705 64.6484C659.705 65.8346 659.686 67.3371 659.646 69.1559C659.607 70.9748 659.547 72.9123 659.468 74.9683C659.429 77.0244 659.409 78.9223 659.409 80.6621ZM724.176 80.069L723.82 80.6621H712.788C712.788 79.2782 712.748 78.4676 712.669 78.2304C712.669 78.0722 712.491 77.9932 712.136 77.9932C710.119 79.2189 707.925 80.1283 705.552 80.7214C703.18 81.3145 700.689 81.6111 698.079 81.6111C692.425 81.6111 687.482 80.2469 683.252 77.5187C680.523 75.6998 678.171 73.5054 676.194 70.9352C674.256 68.3256 672.793 65.4985 671.805 62.4539C670.856 59.4093 670.381 56.2461 670.381 52.9643C670.381 50.236 670.658 47.6857 671.212 45.3133C671.844 42.3478 673.129 39.5404 675.067 36.8912C677.044 34.2025 679.337 31.9685 681.947 30.1892C684.596 28.4099 687.423 27.1841 690.428 26.512C693.315 25.8398 696.063 25.5037 698.672 25.5037C703.615 25.5037 708.102 26.5515 712.136 28.6471C712.294 28.6471 712.432 28.568 712.551 28.4099C712.709 28.2517 712.788 28.1331 712.788 28.054V0.474818L713.262 0.000336587C715.516 0.000336587 717.375 0.0201066 718.838 0.0596467C720.301 0.0596467 721.882 0.0794168 723.582 0.118957C723.701 0.118957 723.82 0.158497 723.938 0.237577C724.057 0.316657 724.136 0.356197 724.176 0.356197V80.069ZM712.788 65.4787C712.788 63.8971 712.788 61.9201 712.788 59.5477C712.788 57.1358 712.768 53.676 712.729 49.1684C712.729 44.6609 712.709 42.1303 712.669 41.5767C710.851 39.9951 708.557 38.7298 705.789 37.7809C703.022 36.7924 700.293 36.2981 697.605 36.2981C694.995 36.2981 692.642 36.8319 690.547 37.8995C688.135 39.1253 686.019 41.1616 684.201 44.0085C682.421 46.8553 681.532 49.9988 681.532 53.4388C682.164 60.3978 685.13 65.3008 690.428 68.1477C692.919 69.5316 695.667 70.2235 698.672 70.2235C703.457 70.2235 708.162 68.6419 712.788 65.4787ZM788.646 55.5146L787.697 56.345C783.664 56.345 779.512 56.345 775.242 56.345C770.971 56.345 765.693 56.345 759.406 56.345C753.119 56.3054 749.758 56.2659 749.323 56.2263C749.323 59.1128 750.114 61.7422 751.695 64.1146C754.542 68.6617 759.663 70.9352 767.057 70.9352C768.124 70.9352 769.607 70.8562 771.505 70.698C775.854 70.2631 781.291 67.6732 787.815 62.9284L788.408 63.047V74.6125C785.245 76.7476 781.627 78.4083 777.555 79.5945C773.522 80.7807 769.528 81.3738 765.574 81.3738C760.513 81.3738 756.223 80.4842 752.704 78.7049C749.857 77.321 747.287 75.3637 744.993 72.8332C742.74 70.2631 740.941 67.3371 739.596 64.0553C738.291 60.7734 737.639 57.3532 737.639 53.7946C737.639 52.5293 737.678 51.5606 737.758 50.8884C738.153 47.6066 739.181 44.3445 740.842 41.1023C742.542 37.86 744.717 35.0526 747.366 32.6802C750.055 30.2683 753 28.5285 756.203 27.4609C759.248 26.5515 762.174 26.0968 764.981 26.0968C768.737 26.0968 772.237 26.8678 775.479 28.4099C778.761 29.9124 781.449 32.186 783.545 35.2306C786.945 40.0149 788.646 46.7763 788.646 55.5146ZM776.962 47.1519C776.962 46.1238 776.606 44.997 775.894 43.7712C775.222 42.5455 774.372 41.3988 773.344 40.3312C772.316 39.2636 771.386 38.4926 770.556 38.0181C768.54 36.9901 766.266 36.4761 763.735 36.4761C760.493 36.4761 757.547 37.3657 754.898 39.145C753.356 40.094 752.13 41.3395 751.221 42.8816C750.351 44.4236 749.877 45.8471 749.798 47.1519H776.962ZM837.102 40.3312C836.628 40.0544 835.995 39.659 835.204 39.145C834.413 38.631 833.761 38.2554 833.247 38.0181C830.637 36.7924 828.087 36.1795 825.596 36.1795C821.563 36.1795 817.51 37.8797 813.437 41.2802L812.192 42.5257V80.069L811.836 80.6621H801.16L800.804 80.1876V27.2237C800.804 27.2237 800.844 27.1644 800.923 27.0458C801.002 26.9271 801.081 26.8678 801.16 26.8678H811.717C812.034 26.8678 812.192 26.9469 812.192 27.1051V29.8926C812.548 29.7345 813.259 29.3391 814.327 28.7064C815.434 28.0738 816.264 27.6586 816.818 27.4609C820.179 26.3143 823.421 25.7409 826.545 25.7409C830.024 25.7409 833.306 26.4329 836.39 27.8168L837.102 40.3312ZM893.98 37.7809C893.98 38.0972 893.803 38.2554 893.447 38.2554H887.516C887.99 39.7184 888.326 41.1616 888.524 42.585C888.722 43.9689 888.82 45.4121 888.82 46.9146C888.82 53.3992 886.843 58.3417 882.889 61.7422C880.794 63.4819 878.362 64.8263 875.594 65.7753C872.866 66.7242 870.078 67.1987 867.232 67.1987C864.266 67.1987 861.597 66.7835 859.225 65.9532C858.236 67.1394 857.742 67.95 857.742 68.3849C857.742 68.7012 857.821 68.978 857.979 69.2153L859.225 70.5794C861.676 71.4097 865.156 72.3587 869.663 73.4263C874.171 74.4543 877.848 75.4824 880.695 76.5104C883.581 77.5384 886.231 79.12 888.643 81.2552C891.094 83.4299 892.814 86.3163 893.803 89.9145C894.158 91.0216 894.336 92.3067 894.336 93.7696C894.336 97.7237 893.031 101.005 890.422 103.615C885.598 108.558 878.105 111.029 867.943 111.029C865.769 111.029 862.665 110.871 858.632 110.554C854.796 110.278 851.238 109.289 847.956 107.589C844.674 105.889 842.222 103.477 840.601 100.353C839.89 98.7715 839.534 97.0317 839.534 95.1338C839.534 92.1683 840.226 89.4993 841.61 87.1269C842.638 85.229 843.942 83.5288 845.524 82.0262C847.106 80.5633 849.004 79.0607 851.218 77.5187C850.546 76.9256 849.933 76.3918 849.379 75.9173C848.826 75.4033 848.312 74.8299 847.837 74.1973C847.402 73.5647 847.106 72.932 846.948 72.2994C846.948 69.7293 847.363 67.5941 848.193 65.8939C849.023 64.1541 850.229 62.6318 851.811 61.327C847.185 57.5707 844.872 52.5096 844.872 46.1436C844.872 43.6921 845.247 41.3593 845.999 39.145C846.829 36.4168 848.213 33.985 850.15 31.8499C852.127 29.6752 854.44 27.9354 857.09 26.6306C859.739 25.2862 862.388 24.5943 865.037 24.5547C870.573 24.5547 875.436 25.3258 879.627 26.8678H893.565C893.842 26.8678 893.98 26.9864 893.98 27.2237V37.7809ZM876.721 39.9754C875.772 38.5124 874.408 37.3855 872.629 36.5947C870.849 35.7643 869.011 35.3492 867.113 35.3492C864.82 35.3492 862.744 35.9225 860.885 37.0692C857.406 39.2043 855.666 42.2687 855.666 46.2622C855.666 47.3298 855.804 48.3974 856.081 49.465C856.516 51.1652 857.524 52.5886 859.106 53.7353C860.688 54.8424 862.427 55.5937 864.325 55.9891C864.958 56.1473 865.887 56.2263 867.113 56.2263C871.027 56.2263 874.112 54.7436 876.365 51.7781C877.631 50.1174 878.263 48.0415 878.263 45.5505C878.263 43.2176 877.749 41.3593 876.721 39.9754ZM882.652 96.0827C883.206 95.4106 883.483 94.5604 883.483 93.5324C883.483 92.5044 883.127 91.417 882.415 90.2703C880.912 88.1352 878.125 86.435 874.052 85.1697C872.431 84.5766 870.098 83.9242 867.054 83.2124C864.049 82.5007 861.913 81.9669 860.648 81.6111C857.683 83.5881 855.35 85.6442 853.65 87.7793C851.949 89.954 851.099 91.9508 851.099 93.7696C851.099 98.0795 855.271 100.511 863.614 101.065C864.404 101.144 865.848 101.183 867.943 101.183C875.416 101.183 880.319 99.4832 882.652 96.0827ZM940.42 40.3312C939.946 40.0544 939.313 39.659 938.522 39.145C937.732 38.631 937.079 38.2554 936.565 38.0181C933.955 36.7924 931.405 36.1795 928.914 36.1795C924.881 36.1795 920.828 37.8797 916.756 41.2802L915.51 42.5257V80.069L915.154 80.6621H904.478L904.122 80.1876V27.2237C904.122 27.2237 904.162 27.1644 904.241 27.0458C904.32 26.9271 904.399 26.8678 904.478 26.8678H915.036C915.352 26.8678 915.51 26.9469 915.51 27.1051V29.8926C915.866 29.7345 916.578 29.3391 917.645 28.7064C918.752 28.0738 919.583 27.6586 920.136 27.4609C923.497 26.3143 926.739 25.7409 929.863 25.7409C933.343 25.7409 936.624 26.4329 939.709 27.8168L940.42 40.3312ZM1001.75 40.6871C1003.53 44.1271 1004.42 48.1799 1004.42 52.8457C1004.42 56.2461 1003.9 59.5477 1002.87 62.7505C1001.89 65.9532 1000.42 68.721 998.485 71.0539C996.547 73.4658 994.353 75.5021 991.901 77.1628C989.49 78.784 986.9 79.9899 984.132 80.7807C981.404 81.6111 978.616 82.0262 975.769 82.0262C972.764 82.0262 969.601 81.532 966.279 80.5435C964.144 79.9108 962.068 78.9223 960.052 77.578C958.035 76.1941 956.256 74.652 954.714 72.9518C953.172 71.2516 951.828 69.3536 950.681 67.258C949.574 65.1624 948.783 62.9877 948.309 60.7339C947.913 58.9151 947.715 56.7404 947.715 54.2098C947.715 49.3464 948.763 44.8388 950.859 40.6871C952.994 36.5354 956.157 33.0954 960.348 30.3671C961.93 29.3786 963.591 28.5483 965.331 27.8761C967.11 27.2039 968.988 26.6899 970.965 26.334C972.982 25.9386 974.978 25.7409 976.955 25.7409C981.384 25.7409 985.358 26.5515 988.877 28.1726C991.328 29.3193 993.74 31.0591 996.112 33.3919C998.524 35.7248 1000.4 38.1565 1001.75 40.6871ZM991.19 61.8608C992.415 59.5675 993.028 56.8787 993.028 53.7946C993.028 50.3546 992.257 47.4089 990.715 44.9574C989.134 42.1896 986.998 40.0742 984.31 38.6112C981.621 37.1482 978.695 36.3772 975.532 36.2981C972.962 36.2981 970.57 36.8912 968.355 38.0774C966.181 39.2636 964.243 40.9836 962.543 43.2374C960.171 46.3215 958.984 49.979 958.984 54.2098C958.984 57.4521 959.795 60.3187 961.416 62.8098C965.014 68.3058 969.838 71.0539 975.888 71.0539C977.193 71.0539 978.201 70.9748 978.913 70.8166C981.404 70.3817 983.756 69.3536 985.97 67.7325C988.224 66.1114 989.964 64.1541 991.19 61.8608ZM1065.98 80.6621H1055.42C1055.26 80.6621 1055.15 80.5435 1055.07 80.3062V77.7559C1052.65 79.1398 1050.14 80.1679 1047.53 80.84C1044.96 81.5122 1042.26 81.8483 1039.41 81.8483C1035.77 81.8483 1032.37 81.2552 1029.21 80.069C1025.45 78.5269 1022.19 76.0952 1019.42 72.7739C1016.69 69.413 1015.33 65.9334 1015.33 62.3353V26.8678H1026.42L1026.78 27.6982V61.0898C1027.29 63.5017 1028.59 65.6369 1030.69 67.4953C1032.83 69.3141 1035.24 70.4608 1037.93 70.9352C1039.27 71.0934 1040.24 71.1725 1040.83 71.1725C1045.74 71.1725 1050.44 69.2746 1054.95 65.4787C1054.95 55.0006 1054.93 47.231 1054.89 42.1698C1054.89 37.1087 1054.87 32.1662 1054.83 27.3423C1054.83 27.1841 1054.91 27.0655 1055.07 26.9864C1055.22 26.9074 1055.34 26.8678 1055.42 26.8678H1065.98C1066.06 26.9074 1066.16 26.9667 1066.28 27.0458C1066.43 27.1248 1066.51 27.2632 1066.51 27.4609V80.3062C1066.47 80.4249 1066.39 80.5237 1066.28 80.6028C1066.16 80.6423 1066.06 80.6621 1065.98 80.6621ZM1132.59 80.6621H1120.84V47.8636C1120.49 45.3726 1119.26 43.0397 1117.16 40.865C1115.11 38.6903 1112.8 37.2669 1110.23 36.5947C1108.64 36.397 1107.64 36.2981 1107.2 36.2981C1102.93 36.2981 1098.17 37.5634 1092.91 40.094C1092.67 40.2521 1092.51 40.3708 1092.43 40.4498C1092.35 40.5289 1092.29 40.608 1092.25 40.6871V80.1876C1092.25 80.2667 1092.23 80.3656 1092.19 80.4842C1092.19 80.6028 1092.1 80.6621 1091.9 80.6621H1081.46C1081.22 80.6621 1081.1 80.5039 1081.1 80.1876V27.2237L1081.34 26.8678H1091.78C1092.1 27.0655 1092.25 27.9156 1092.25 29.4182C1092.85 29.3391 1093.66 29.0228 1094.69 28.4692C1095.75 27.8761 1096.64 27.4609 1097.35 27.2237C1100.52 26.1561 1103.96 25.6223 1107.67 25.6223C1112.89 25.6223 1117.58 26.769 1121.73 29.0623C1125.88 31.3161 1128.81 34.7165 1130.51 39.2636C1131.62 41.9919 1132.31 45.1353 1132.59 48.694C1132.82 52.1339 1132.94 55.6332 1132.94 59.1918C1132.94 61.6038 1132.92 63.4226 1132.88 64.6484C1132.88 65.8346 1132.86 67.3371 1132.82 69.1559C1132.78 70.9748 1132.72 72.9123 1132.64 74.9683C1132.6 77.0244 1132.59 78.9223 1132.59 80.6621ZM1197.35 80.069L1197 80.6621H1185.96C1185.96 79.2782 1185.92 78.4676 1185.85 78.2304C1185.85 78.0722 1185.67 77.9932 1185.31 77.9932C1183.3 79.2189 1181.1 80.1283 1178.73 80.7214C1176.36 81.3145 1173.86 81.6111 1171.26 81.6111C1165.6 81.6111 1160.66 80.2469 1156.43 77.5187C1153.7 75.6998 1151.35 73.5054 1149.37 70.9352C1147.43 68.3256 1145.97 65.4985 1144.98 62.4539C1144.03 59.4093 1143.56 56.2461 1143.56 52.9643C1143.56 50.236 1143.83 47.6857 1144.39 45.3133C1145.02 42.3478 1146.31 39.5404 1148.24 36.8912C1150.22 34.2025 1152.51 31.9685 1155.12 30.1892C1157.77 28.4099 1160.6 27.1841 1163.6 26.512C1166.49 25.8398 1169.24 25.5037 1171.85 25.5037C1176.79 25.5037 1181.28 26.5515 1185.31 28.6471C1185.47 28.6471 1185.61 28.568 1185.73 28.4099C1185.89 28.2517 1185.96 28.1331 1185.96 28.054V0.474818L1186.44 0.000336587C1188.69 0.000336587 1190.55 0.0201066 1192.01 0.0596467C1193.48 0.0596467 1195.06 0.0794168 1196.76 0.118957C1196.88 0.118957 1197 0.158497 1197.11 0.237577C1197.23 0.316657 1197.31 0.356197 1197.35 0.356197V80.069ZM1185.96 65.4787C1185.96 63.8971 1185.96 61.9201 1185.96 59.5477C1185.96 57.1358 1185.94 53.676 1185.9 49.1684C1185.9 44.6609 1185.89 42.1303 1185.85 41.5767C1184.03 39.9951 1181.73 38.7298 1178.97 37.7809C1176.2 36.7924 1173.47 36.2981 1170.78 36.2981C1168.17 36.2981 1165.82 36.8319 1163.72 37.8995C1161.31 39.1253 1159.2 41.1616 1157.38 44.0085C1155.6 46.8553 1154.71 49.9988 1154.71 53.4388C1155.34 60.3978 1158.31 65.3008 1163.6 68.1477C1166.1 69.5316 1168.84 70.2235 1171.85 70.2235C1176.63 70.2235 1181.34 68.6419 1185.96 65.4787Z" fill="#003E35"/>
</svg>
