<svg width="187" height="184" viewBox="0 0 187 184" fill="none" xmlns="http://www.w3.org/2000/svg">
<path d="M186.841 161.766C186.754 162.026 184.589 164.668 180.344 169.692C176.187 174.629 172.765 178.657 170.08 181.776L149.291 164.105C134.305 176.752 115.335 183.075 92.3802 183.075C78.001 183.075 64.3148 180.303 51.3215 174.759C40.9269 170.342 31.9183 164.018 24.2956 155.789C16.6729 147.474 10.8259 138.118 6.7547 127.724C2.68348 117.243 0.43132 106.328 -0.00178802 94.9809C-0.00178802 82.6806 2.16375 70.7701 6.49484 59.2494C10.9125 47.6421 17.1493 37.4641 25.2051 28.7153C33.3475 19.9665 42.7027 13.21 53.2705 8.44585C65.8307 2.81544 79.6468 0.000238657 94.719 0.000238657C102.775 0.000238657 110.744 0.953077 118.627 2.85875C126.596 4.76443 134.045 7.70956 140.975 11.6942C147.991 15.5921 154.055 20.3996 159.165 26.1167C164.363 31.8337 168.824 38.3303 172.549 45.6065C176.36 52.8828 179.175 60.4188 180.994 68.2148C182.9 75.9241 183.853 83.7634 183.853 91.7326C183.853 104.553 181.644 116.376 177.226 127.204C175.061 132.921 171.769 138.941 167.351 145.265L186.841 161.766ZM151.629 63.7971C149.291 57.5603 145.436 51.67 140.065 46.1263C134.695 40.5825 128.631 36.0348 121.875 32.4834C113.039 27.8058 103.381 25.467 92.8999 25.467C83.1117 25.467 73.9731 27.5459 65.4842 31.7038C57.8615 35.4285 51.2349 40.4525 45.6045 46.7759C39.9741 53.0993 35.643 60.4188 32.6113 68.7345C29.6661 76.9636 28.1936 85.5391 28.1936 94.4611C28.4534 102.604 30.1859 110.616 33.3909 118.499C36.5959 126.381 41.1002 133.354 46.9038 139.418C52.7075 145.395 59.4207 149.899 67.0434 152.931C75.7055 156.482 84.8441 158.258 94.4591 158.258C109.098 158.258 120.446 154.533 128.501 147.084L113.299 133.831C114.945 131.579 117.76 128.114 121.745 123.436C125.73 118.759 128.805 115.207 130.97 112.782C132.529 114.168 134.652 116.03 137.337 118.369C140.109 120.707 143.27 123.22 146.822 125.905C153.232 117.069 156.437 105.592 156.437 91.4727C156.437 81.9443 154.834 72.7191 151.629 63.7971Z" fill="#003E35" fill-opacity="0.8"/>
</svg>
