<svg width="135" height="176" viewBox="0 0 135 176" fill="none" xmlns="http://www.w3.org/2000/svg">
<path d="M134.738 174.629C134.738 175.321 133.915 175.668 132.27 175.668H104.334C103.988 175.668 85.5372 150.764 48.9828 100.957H25.0753V174.629L24.2957 175.668H0.518041L-0.00168902 174.109V0.259143L1.9473 -0.000721455H33.261C45.9944 -0.000721455 56.9087 0.778873 66.004 2.33806C75.1859 3.81063 83.3716 7.23219 90.5612 12.6027C97.8375 17.8866 103.078 25.9425 106.283 36.7702C107.669 41.8808 108.362 46.6883 108.362 51.1927C108.362 56.5632 107.496 61.8471 105.763 67.0444C104.031 72.2417 101.519 76.876 98.2273 80.9472C95.7152 84.1522 92.8567 86.7075 89.6517 88.6132C86.5333 90.4323 82.4621 92.3813 77.4381 94.4602V95.6296C79.8635 98.748 83.7181 103.902 89.002 111.092C94.286 118.195 99.6565 125.601 105.114 133.31C110.571 141.019 115.682 148.209 120.446 154.879C125.21 161.462 129.974 168.045 134.738 174.629ZM79.1272 45.6056C78.0011 40.8414 75.8356 37.03 72.6306 34.1715C69.4256 31.313 65.7874 29.2341 61.7162 27.9348C57.7316 26.6354 53.5305 25.8125 49.1128 25.466C44.6951 25.0329 39.4112 24.8164 33.261 24.8164H26.1147L25.0753 25.596V75.3601C28.8866 75.3601 32.0916 75.4034 34.6903 75.49C37.3755 75.49 40.2774 75.5334 43.3958 75.62C49.8058 75.62 55.5228 75.0136 60.5468 73.8009C65.6575 72.5882 69.8154 70.2494 73.0204 66.7846C77.4381 62.107 79.6469 56.6065 79.6469 50.2831C79.6469 49.2437 79.4737 47.6845 79.1272 45.6056Z" fill="#003E35" fill-opacity="0.8"/>
</svg>
