<svg width="107" height="182" viewBox="0 0 107 182" fill="none" xmlns="http://www.w3.org/2000/svg">
<path d="M103.295 105.376C105.547 111.526 106.673 118.369 106.673 125.905C106.673 133.094 105.417 139.981 102.905 146.564C100.479 153.147 96.9711 158.821 92.3802 163.585C86.923 169.129 80.4697 173.46 73.0203 176.579C65.6574 179.697 58.1646 181.256 50.5419 181.256C43.3523 181.256 36.5959 180 30.2725 177.488C23.6892 174.803 17.5824 170.428 11.952 164.365C6.40821 158.215 2.42362 151.502 -0.00178802 144.225L20.2677 130.323C20.874 131.362 21.3938 132.488 21.8269 133.701C22.3466 134.827 22.7364 135.78 22.9963 136.559C23.3427 137.252 23.7325 137.945 24.1657 138.638C29.1031 147.127 36.5525 152.541 46.514 154.88C49.1127 155.226 51.0617 155.4 52.361 155.4C57.1252 155.4 61.5429 154.36 65.6141 152.281C69.7719 150.202 73.0203 147.257 75.359 143.446C78.8239 137.815 80.5563 131.665 80.5563 124.995C80.5563 118.412 78.6074 113.128 74.7094 109.144C71.0713 105.419 67.1733 102.344 63.0155 99.9184C58.9442 97.493 53.6603 94.8077 47.1637 91.8626C40.6671 88.8308 35.4265 86.2322 31.4419 84.0666C24.9452 80.6018 19.2282 76.6172 14.2908 72.1129C9.43997 67.6085 6.27828 62.6278 4.80571 57.1706C3.50639 52.9262 2.85673 48.5951 2.85673 44.1774C2.85673 34.2159 5.71524 25.6837 11.4323 18.5807C21.4804 6.19379 34.0838 0.000337958 49.2426 0.000337958C53.8336 0.000337958 57.8182 0.433446 61.1964 1.29966C65.0944 2.2525 69.2089 4.02824 73.54 6.62689C77.9577 9.13892 81.8557 12.1274 85.2339 15.5922C88.6122 19.0571 91.1675 22.5653 92.8999 26.1168C90.821 27.5893 87.3561 29.8848 82.5053 33.0032C77.6545 36.1216 74.103 38.5037 71.8509 40.1495C65.5275 30.7943 58.1646 26.1168 49.7623 26.1168C47.8567 26.1168 45.9943 26.3766 44.1752 26.8964C41.0569 27.5027 38.285 29.1485 35.8596 31.8338C33.4342 34.4324 31.9616 37.291 31.4419 40.4093C31.4419 49.8511 34.7768 56.3477 41.4467 59.8992C42.053 60.1591 46.9905 62.3679 56.259 66.5258C65.6141 70.6836 72.9769 74.2784 78.3475 77.3102C83.718 80.3419 88.6122 84.1533 93.0299 88.7442C97.5342 93.2485 100.956 98.7923 103.295 105.376Z" fill="#003E35" fill-opacity="0.8"/>
</svg>
