<svg width="569" height="409" viewBox="0 0 569 409" fill="none" xmlns="http://www.w3.org/2000/svg">
<path d="M104.643 135.092L157.379 203.744L157.992 203.533L157.405 116.967L260.782 81.4532L261.738 342.802L161.276 377.314L1.26643 170.606L104.643 135.092ZM388.048 33.6173C396.024 30.8774 404.242 28.5114 412.703 26.5192C421.129 24.4248 429.934 22.6005 439.117 21.0462C448.3 19.4919 456.889 18.3705 464.884 17.6818C472.878 16.9932 480.347 16.771 487.29 17.0152L486.866 99.642C475.065 91.5783 463.186 86.2848 451.231 83.7616C439.24 81.136 427.825 81.685 416.986 85.4085C410.544 87.6215 406.349 90.549 404.399 94.1911C402.414 97.731 402.089 101.444 403.424 105.329C404.688 109.01 408.661 111.59 415.342 113.067C422.125 114.509 432.1 115.427 445.267 115.819C479.465 116.532 502.908 120.882 515.598 128.869C528.013 136.722 536.96 148.624 542.44 164.575C550.976 189.422 548.069 211.742 533.719 231.533C519.436 251.187 493.633 267.424 456.312 280.246C436.884 286.92 417.971 291.931 399.572 295.279C381.174 298.628 362.432 299.979 343.348 299.333L341.783 212.416C352.804 221.205 364.962 227.145 378.257 230.238C391.449 233.365 403.107 233.19 413.23 229.712C418.24 227.991 421.96 225.342 424.389 221.763C426.885 218.048 427.483 214.299 426.183 210.515C424.638 206.016 420.951 202.938 415.124 201.282C409.363 199.489 400.925 198.386 389.809 197.975C362.551 197.165 342.597 192.988 329.945 185.445C317.361 177.765 308.399 166.153 303.06 150.611C294.102 124.537 296.783 101.724 311.101 82.1722C325.384 62.5183 351.033 46.3333 388.048 33.6173Z" fill="#D4CEB6"/>
</svg>
